<svg width="258" height="517" viewBox="0 0 258 517" fill="none" xmlns="http://www.w3.org/2000/svg">
<path d="M-255 2C-255 3.10457 -255.895 4 -257 4C-258.105 4 -259 3.10457 -259 2C-259 0.89543 -258.105 0 -257 0C-255.895 0 -255 0.89543 -255 2Z" fill="#0037FB"/>
<path d="M-228 2C-228 3.10457 -228.895 4 -230 4C-231.105 4 -232 3.10457 -232 2C-232 0.89543 -231.105 0 -230 0C-228.895 0 -228 0.89543 -228 2Z" fill="#0037FB"/>
<path d="M-201 2C-201 3.10457 -201.895 4 -203 4C-204.105 4 -205 3.10457 -205 2C-205 0.89543 -204.105 0 -203 0C-201.895 0 -201 0.89543 -201 2Z" fill="#0037FB"/>
<path d="M-174 2C-174 3.10457 -174.895 4 -176 4C-177.105 4 -178 3.10457 -178 2C-178 0.89543 -177.105 0 -176 0C-174.895 0 -174 0.89543 -174 2Z" fill="#0037FB"/>
<path d="M-147 2C-147 3.10457 -147.895 4 -149 4C-150.105 4 -151 3.10457 -151 2C-151 0.89543 -150.105 0 -149 0C-147.895 0 -147 0.89543 -147 2Z" fill="#0037FB"/>
<path d="M-120 2C-120 3.10457 -120.895 4 -122 4C-123.105 4 -124 3.10457 -124 2C-124 0.89543 -123.105 0 -122 0C-120.895 0 -120 0.89543 -120 2Z" fill="#0037FB"/>
<path d="M-93 2C-93 3.10457 -93.8954 4 -95 4C-96.1046 4 -97 3.10457 -97 2C-97 0.89543 -96.1046 0 -95 0C-93.8954 0 -93 0.89543 -93 2Z" fill="#0037FB"/>
<path d="M-66 2C-66 3.10457 -66.8954 4 -68 4C-69.1046 4 -70 3.10457 -70 2C-70 0.89543 -69.1046 0 -68 0C-66.8954 0 -66 0.89543 -66 2Z" fill="#0037FB"/>
<path d="M-39 2C-39 3.10457 -39.8954 4 -41 4C-42.1046 4 -43 3.10457 -43 2C-43 0.89543 -42.1046 0 -41 0C-39.8954 0 -39 0.89543 -39 2Z" fill="#0037FB"/>
<path d="M-12 2C-12 3.10457 -12.8954 4 -14 4C-15.1046 4 -16 3.10457 -16 2C-16 0.89543 -15.1046 0 -14 0C-12.8954 0 -12 0.89543 -12 2Z" fill="#0037FB"/>
<path d="M15 2C15 3.10457 14.1046 4 13 4C11.8954 4 11 3.10457 11 2C11 0.89543 11.8954 0 13 0C14.1046 0 15 0.89543 15 2Z" fill="#0037FB"/>
<path d="M42 2C42 3.10457 41.1046 4 40 4C38.8954 4 38 3.10457 38 2C38 0.89543 38.8954 0 40 0C41.1046 0 42 0.89543 42 2Z" fill="#0037FB"/>
<path d="M69 2C69 3.10457 68.1046 4 67 4C65.8954 4 65 3.10457 65 2C65 0.89543 65.8954 0 67 0C68.1046 0 69 0.89543 69 2Z" fill="#0037FB"/>
<path d="M96 2C96 3.10457 95.1046 4 94 4C92.8954 4 92 3.10457 92 2C92 0.89543 92.8954 0 94 0C95.1046 0 96 0.89543 96 2Z" fill="#0037FB"/>
<path d="M123 2C123 3.10457 122.105 4 121 4C119.895 4 119 3.10457 119 2C119 0.89543 119.895 0 121 0C122.105 0 123 0.89543 123 2Z" fill="#0037FB"/>
<path d="M150 2C150 3.10457 149.105 4 148 4C146.895 4 146 3.10457 146 2C146 0.89543 146.895 0 148 0C149.105 0 150 0.89543 150 2Z" fill="#0037FB"/>
<path d="M177 2C177 3.10457 176.105 4 175 4C173.895 4 173 3.10457 173 2C173 0.89543 173.895 0 175 0C176.105 0 177 0.89543 177 2Z" fill="#0037FB"/>
<path d="M204 2C204 3.10457 203.105 4 202 4C200.895 4 200 3.10457 200 2C200 0.89543 200.895 0 202 0C203.105 0 204 0.89543 204 2Z" fill="#0037FB"/>
<path d="M231 2C231 3.10457 230.105 4 229 4C227.895 4 227 3.10457 227 2C227 0.89543 227.895 0 229 0C230.105 0 231 0.89543 231 2Z" fill="#0037FB"/>
<path d="M258 2C258 3.10457 257.105 4 256 4C254.895 4 254 3.10457 254 2C254 0.89543 254.895 0 256 0C257.105 0 258 0.89543 258 2Z" fill="#0037FB"/>
<path d="M-255 29C-255 30.1046 -255.895 31 -257 31C-258.105 31 -259 30.1046 -259 29C-259 27.8954 -258.105 27 -257 27C-255.895 27 -255 27.8954 -255 29Z" fill="#0037FB"/>
<path d="M-228 29C-228 30.1046 -228.895 31 -230 31C-231.105 31 -232 30.1046 -232 29C-232 27.8954 -231.105 27 -230 27C-228.895 27 -228 27.8954 -228 29Z" fill="#0037FB"/>
<path d="M-201 29C-201 30.1046 -201.895 31 -203 31C-204.105 31 -205 30.1046 -205 29C-205 27.8954 -204.105 27 -203 27C-201.895 27 -201 27.8954 -201 29Z" fill="#0037FB"/>
<path d="M-174 29C-174 30.1046 -174.895 31 -176 31C-177.105 31 -178 30.1046 -178 29C-178 27.8954 -177.105 27 -176 27C-174.895 27 -174 27.8954 -174 29Z" fill="#0037FB"/>
<path d="M-147 29C-147 30.1046 -147.895 31 -149 31C-150.105 31 -151 30.1046 -151 29C-151 27.8954 -150.105 27 -149 27C-147.895 27 -147 27.8954 -147 29Z" fill="#0037FB"/>
<path d="M-120 29C-120 30.1046 -120.895 31 -122 31C-123.105 31 -124 30.1046 -124 29C-124 27.8954 -123.105 27 -122 27C-120.895 27 -120 27.8954 -120 29Z" fill="#0037FB"/>
<path d="M-93 29C-93 30.1046 -93.8954 31 -95 31C-96.1046 31 -97 30.1046 -97 29C-97 27.8954 -96.1046 27 -95 27C-93.8954 27 -93 27.8954 -93 29Z" fill="#0037FB"/>
<path d="M-66 29C-66 30.1046 -66.8954 31 -68 31C-69.1046 31 -70 30.1046 -70 29C-70 27.8954 -69.1046 27 -68 27C-66.8954 27 -66 27.8954 -66 29Z" fill="#0037FB"/>
<path d="M-39 29C-39 30.1046 -39.8954 31 -41 31C-42.1046 31 -43 30.1046 -43 29C-43 27.8954 -42.1046 27 -41 27C-39.8954 27 -39 27.8954 -39 29Z" fill="#0037FB"/>
<path d="M-12 29C-12 30.1046 -12.8954 31 -14 31C-15.1046 31 -16 30.1046 -16 29C-16 27.8954 -15.1046 27 -14 27C-12.8954 27 -12 27.8954 -12 29Z" fill="#0037FB"/>
<path d="M15 29C15 30.1046 14.1046 31 13 31C11.8954 31 11 30.1046 11 29C11 27.8954 11.8954 27 13 27C14.1046 27 15 27.8954 15 29Z" fill="#0037FB"/>
<path d="M42 29C42 30.1046 41.1046 31 40 31C38.8954 31 38 30.1046 38 29C38 27.8954 38.8954 27 40 27C41.1046 27 42 27.8954 42 29Z" fill="#0037FB"/>
<path d="M69 29C69 30.1046 68.1046 31 67 31C65.8954 31 65 30.1046 65 29C65 27.8954 65.8954 27 67 27C68.1046 27 69 27.8954 69 29Z" fill="#0037FB"/>
<path d="M96 29C96 30.1046 95.1046 31 94 31C92.8954 31 92 30.1046 92 29C92 27.8954 92.8954 27 94 27C95.1046 27 96 27.8954 96 29Z" fill="#0037FB"/>
<path d="M123 29C123 30.1046 122.105 31 121 31C119.895 31 119 30.1046 119 29C119 27.8954 119.895 27 121 27C122.105 27 123 27.8954 123 29Z" fill="#0037FB"/>
<path d="M150 29C150 30.1046 149.105 31 148 31C146.895 31 146 30.1046 146 29C146 27.8954 146.895 27 148 27C149.105 27 150 27.8954 150 29Z" fill="#0037FB"/>
<path d="M177 29C177 30.1046 176.105 31 175 31C173.895 31 173 30.1046 173 29C173 27.8954 173.895 27 175 27C176.105 27 177 27.8954 177 29Z" fill="#0037FB"/>
<path d="M204 29C204 30.1046 203.105 31 202 31C200.895 31 200 30.1046 200 29C200 27.8954 200.895 27 202 27C203.105 27 204 27.8954 204 29Z" fill="#0037FB"/>
<path d="M231 29C231 30.1046 230.105 31 229 31C227.895 31 227 30.1046 227 29C227 27.8954 227.895 27 229 27C230.105 27 231 27.8954 231 29Z" fill="#0037FB"/>
<path d="M258 29C258 30.1046 257.105 31 256 31C254.895 31 254 30.1046 254 29C254 27.8954 254.895 27 256 27C257.105 27 258 27.8954 258 29Z" fill="#0037FB"/>
<path d="M-255 56C-255 57.1046 -255.895 58 -257 58C-258.105 58 -259 57.1046 -259 56C-259 54.8954 -258.105 54 -257 54C-255.895 54 -255 54.8954 -255 56Z" fill="#0037FB"/>
<path d="M-228 56C-228 57.1046 -228.895 58 -230 58C-231.105 58 -232 57.1046 -232 56C-232 54.8954 -231.105 54 -230 54C-228.895 54 -228 54.8954 -228 56Z" fill="#0037FB"/>
<path d="M-201 56C-201 57.1046 -201.895 58 -203 58C-204.105 58 -205 57.1046 -205 56C-205 54.8954 -204.105 54 -203 54C-201.895 54 -201 54.8954 -201 56Z" fill="#0037FB"/>
<path d="M-174 56C-174 57.1046 -174.895 58 -176 58C-177.105 58 -178 57.1046 -178 56C-178 54.8954 -177.105 54 -176 54C-174.895 54 -174 54.8954 -174 56Z" fill="#0037FB"/>
<path d="M-147 56C-147 57.1046 -147.895 58 -149 58C-150.105 58 -151 57.1046 -151 56C-151 54.8954 -150.105 54 -149 54C-147.895 54 -147 54.8954 -147 56Z" fill="#0037FB"/>
<path d="M-120 56C-120 57.1046 -120.895 58 -122 58C-123.105 58 -124 57.1046 -124 56C-124 54.8954 -123.105 54 -122 54C-120.895 54 -120 54.8954 -120 56Z" fill="#0037FB"/>
<path d="M-93 56C-93 57.1046 -93.8954 58 -95 58C-96.1046 58 -97 57.1046 -97 56C-97 54.8954 -96.1046 54 -95 54C-93.8954 54 -93 54.8954 -93 56Z" fill="#0037FB"/>
<path d="M-66 56C-66 57.1046 -66.8954 58 -68 58C-69.1046 58 -70 57.1046 -70 56C-70 54.8954 -69.1046 54 -68 54C-66.8954 54 -66 54.8954 -66 56Z" fill="#0037FB"/>
<path d="M-39 56C-39 57.1046 -39.8954 58 -41 58C-42.1046 58 -43 57.1046 -43 56C-43 54.8954 -42.1046 54 -41 54C-39.8954 54 -39 54.8954 -39 56Z" fill="#0037FB"/>
<path d="M-12 56C-12 57.1046 -12.8954 58 -14 58C-15.1046 58 -16 57.1046 -16 56C-16 54.8954 -15.1046 54 -14 54C-12.8954 54 -12 54.8954 -12 56Z" fill="#0037FB"/>
<path d="M15 56C15 57.1046 14.1046 58 13 58C11.8954 58 11 57.1046 11 56C11 54.8954 11.8954 54 13 54C14.1046 54 15 54.8954 15 56Z" fill="#0037FB"/>
<path d="M42 56C42 57.1046 41.1046 58 40 58C38.8954 58 38 57.1046 38 56C38 54.8954 38.8954 54 40 54C41.1046 54 42 54.8954 42 56Z" fill="#0037FB"/>
<path d="M69 56C69 57.1046 68.1046 58 67 58C65.8954 58 65 57.1046 65 56C65 54.8954 65.8954 54 67 54C68.1046 54 69 54.8954 69 56Z" fill="#0037FB"/>
<path d="M96 56C96 57.1046 95.1046 58 94 58C92.8954 58 92 57.1046 92 56C92 54.8954 92.8954 54 94 54C95.1046 54 96 54.8954 96 56Z" fill="#0037FB"/>
<path d="M123 56C123 57.1046 122.105 58 121 58C119.895 58 119 57.1046 119 56C119 54.8954 119.895 54 121 54C122.105 54 123 54.8954 123 56Z" fill="#0037FB"/>
<path d="M150 56C150 57.1046 149.105 58 148 58C146.895 58 146 57.1046 146 56C146 54.8954 146.895 54 148 54C149.105 54 150 54.8954 150 56Z" fill="#0037FB"/>
<path d="M177 56C177 57.1046 176.105 58 175 58C173.895 58 173 57.1046 173 56C173 54.8954 173.895 54 175 54C176.105 54 177 54.8954 177 56Z" fill="#0037FB"/>
<path d="M204 56C204 57.1046 203.105 58 202 58C200.895 58 200 57.1046 200 56C200 54.8954 200.895 54 202 54C203.105 54 204 54.8954 204 56Z" fill="#0037FB"/>
<path d="M231 56C231 57.1046 230.105 58 229 58C227.895 58 227 57.1046 227 56C227 54.8954 227.895 54 229 54C230.105 54 231 54.8954 231 56Z" fill="#0037FB"/>
<path d="M258 56C258 57.1046 257.105 58 256 58C254.895 58 254 57.1046 254 56C254 54.8954 254.895 54 256 54C257.105 54 258 54.8954 258 56Z" fill="#0037FB"/>
<path d="M-255 83C-255 84.1046 -255.895 85 -257 85C-258.105 85 -259 84.1046 -259 83C-259 81.8954 -258.105 81 -257 81C-255.895 81 -255 81.8954 -255 83Z" fill="#0037FB"/>
<path d="M-228 83C-228 84.1046 -228.895 85 -230 85C-231.105 85 -232 84.1046 -232 83C-232 81.8954 -231.105 81 -230 81C-228.895 81 -228 81.8954 -228 83Z" fill="#0037FB"/>
<path d="M-201 83C-201 84.1046 -201.895 85 -203 85C-204.105 85 -205 84.1046 -205 83C-205 81.8954 -204.105 81 -203 81C-201.895 81 -201 81.8954 -201 83Z" fill="#0037FB"/>
<path d="M-174 83C-174 84.1046 -174.895 85 -176 85C-177.105 85 -178 84.1046 -178 83C-178 81.8954 -177.105 81 -176 81C-174.895 81 -174 81.8954 -174 83Z" fill="#0037FB"/>
<path d="M-147 83C-147 84.1046 -147.895 85 -149 85C-150.105 85 -151 84.1046 -151 83C-151 81.8954 -150.105 81 -149 81C-147.895 81 -147 81.8954 -147 83Z" fill="#0037FB"/>
<path d="M-120 83C-120 84.1046 -120.895 85 -122 85C-123.105 85 -124 84.1046 -124 83C-124 81.8954 -123.105 81 -122 81C-120.895 81 -120 81.8954 -120 83Z" fill="#0037FB"/>
<path d="M-93 83C-93 84.1046 -93.8954 85 -95 85C-96.1046 85 -97 84.1046 -97 83C-97 81.8954 -96.1046 81 -95 81C-93.8954 81 -93 81.8954 -93 83Z" fill="#0037FB"/>
<path d="M-66 83C-66 84.1046 -66.8954 85 -68 85C-69.1046 85 -70 84.1046 -70 83C-70 81.8954 -69.1046 81 -68 81C-66.8954 81 -66 81.8954 -66 83Z" fill="#0037FB"/>
<path d="M-39 83C-39 84.1046 -39.8954 85 -41 85C-42.1046 85 -43 84.1046 -43 83C-43 81.8954 -42.1046 81 -41 81C-39.8954 81 -39 81.8954 -39 83Z" fill="#0037FB"/>
<path d="M-12 83C-12 84.1046 -12.8954 85 -14 85C-15.1046 85 -16 84.1046 -16 83C-16 81.8954 -15.1046 81 -14 81C-12.8954 81 -12 81.8954 -12 83Z" fill="#0037FB"/>
<path d="M15 83C15 84.1046 14.1046 85 13 85C11.8954 85 11 84.1046 11 83C11 81.8954 11.8954 81 13 81C14.1046 81 15 81.8954 15 83Z" fill="#0037FB"/>
<path d="M42 83C42 84.1046 41.1046 85 40 85C38.8954 85 38 84.1046 38 83C38 81.8954 38.8954 81 40 81C41.1046 81 42 81.8954 42 83Z" fill="#0037FB"/>
<path d="M69 83C69 84.1046 68.1046 85 67 85C65.8954 85 65 84.1046 65 83C65 81.8954 65.8954 81 67 81C68.1046 81 69 81.8954 69 83Z" fill="#0037FB"/>
<path d="M96 83C96 84.1046 95.1046 85 94 85C92.8954 85 92 84.1046 92 83C92 81.8954 92.8954 81 94 81C95.1046 81 96 81.8954 96 83Z" fill="#0037FB"/>
<path d="M123 83C123 84.1046 122.105 85 121 85C119.895 85 119 84.1046 119 83C119 81.8954 119.895 81 121 81C122.105 81 123 81.8954 123 83Z" fill="#0037FB"/>
<path d="M150 83C150 84.1046 149.105 85 148 85C146.895 85 146 84.1046 146 83C146 81.8954 146.895 81 148 81C149.105 81 150 81.8954 150 83Z" fill="#0037FB"/>
<path d="M177 83C177 84.1046 176.105 85 175 85C173.895 85 173 84.1046 173 83C173 81.8954 173.895 81 175 81C176.105 81 177 81.8954 177 83Z" fill="#0037FB"/>
<path d="M204 83C204 84.1046 203.105 85 202 85C200.895 85 200 84.1046 200 83C200 81.8954 200.895 81 202 81C203.105 81 204 81.8954 204 83Z" fill="#0037FB"/>
<path d="M231 83C231 84.1046 230.105 85 229 85C227.895 85 227 84.1046 227 83C227 81.8954 227.895 81 229 81C230.105 81 231 81.8954 231 83Z" fill="#0037FB"/>
<path d="M258 83C258 84.1046 257.105 85 256 85C254.895 85 254 84.1046 254 83C254 81.8954 254.895 81 256 81C257.105 81 258 81.8954 258 83Z" fill="#0037FB"/>
<path d="M-255 110C-255 111.105 -255.895 112 -257 112C-258.105 112 -259 111.105 -259 110C-259 108.895 -258.105 108 -257 108C-255.895 108 -255 108.895 -255 110Z" fill="#0037FB"/>
<path d="M-228 110C-228 111.105 -228.895 112 -230 112C-231.105 112 -232 111.105 -232 110C-232 108.895 -231.105 108 -230 108C-228.895 108 -228 108.895 -228 110Z" fill="#0037FB"/>
<path d="M-201 110C-201 111.105 -201.895 112 -203 112C-204.105 112 -205 111.105 -205 110C-205 108.895 -204.105 108 -203 108C-201.895 108 -201 108.895 -201 110Z" fill="#0037FB"/>
<path d="M-174 110C-174 111.105 -174.895 112 -176 112C-177.105 112 -178 111.105 -178 110C-178 108.895 -177.105 108 -176 108C-174.895 108 -174 108.895 -174 110Z" fill="#0037FB"/>
<path d="M-147 110C-147 111.105 -147.895 112 -149 112C-150.105 112 -151 111.105 -151 110C-151 108.895 -150.105 108 -149 108C-147.895 108 -147 108.895 -147 110Z" fill="#0037FB"/>
<path d="M-120 110C-120 111.105 -120.895 112 -122 112C-123.105 112 -124 111.105 -124 110C-124 108.895 -123.105 108 -122 108C-120.895 108 -120 108.895 -120 110Z" fill="#0037FB"/>
<path d="M-93 110C-93 111.105 -93.8954 112 -95 112C-96.1046 112 -97 111.105 -97 110C-97 108.895 -96.1046 108 -95 108C-93.8954 108 -93 108.895 -93 110Z" fill="#0037FB"/>
<path d="M-66 110C-66 111.105 -66.8954 112 -68 112C-69.1046 112 -70 111.105 -70 110C-70 108.895 -69.1046 108 -68 108C-66.8954 108 -66 108.895 -66 110Z" fill="#0037FB"/>
<path d="M-39 110C-39 111.105 -39.8954 112 -41 112C-42.1046 112 -43 111.105 -43 110C-43 108.895 -42.1046 108 -41 108C-39.8954 108 -39 108.895 -39 110Z" fill="#0037FB"/>
<path d="M-12 110C-12 111.105 -12.8954 112 -14 112C-15.1046 112 -16 111.105 -16 110C-16 108.895 -15.1046 108 -14 108C-12.8954 108 -12 108.895 -12 110Z" fill="#0037FB"/>
<path d="M15 110C15 111.105 14.1046 112 13 112C11.8954 112 11 111.105 11 110C11 108.895 11.8954 108 13 108C14.1046 108 15 108.895 15 110Z" fill="#0037FB"/>
<path d="M42 110C42 111.105 41.1046 112 40 112C38.8954 112 38 111.105 38 110C38 108.895 38.8954 108 40 108C41.1046 108 42 108.895 42 110Z" fill="#0037FB"/>
<path d="M69 110C69 111.105 68.1046 112 67 112C65.8954 112 65 111.105 65 110C65 108.895 65.8954 108 67 108C68.1046 108 69 108.895 69 110Z" fill="#0037FB"/>
<path d="M96 110C96 111.105 95.1046 112 94 112C92.8954 112 92 111.105 92 110C92 108.895 92.8954 108 94 108C95.1046 108 96 108.895 96 110Z" fill="#0037FB"/>
<path d="M123 110C123 111.105 122.105 112 121 112C119.895 112 119 111.105 119 110C119 108.895 119.895 108 121 108C122.105 108 123 108.895 123 110Z" fill="#0037FB"/>
<path d="M150 110C150 111.105 149.105 112 148 112C146.895 112 146 111.105 146 110C146 108.895 146.895 108 148 108C149.105 108 150 108.895 150 110Z" fill="#0037FB"/>
<path d="M177 110C177 111.105 176.105 112 175 112C173.895 112 173 111.105 173 110C173 108.895 173.895 108 175 108C176.105 108 177 108.895 177 110Z" fill="#0037FB"/>
<path d="M204 110C204 111.105 203.105 112 202 112C200.895 112 200 111.105 200 110C200 108.895 200.895 108 202 108C203.105 108 204 108.895 204 110Z" fill="#0037FB"/>
<path d="M231 110C231 111.105 230.105 112 229 112C227.895 112 227 111.105 227 110C227 108.895 227.895 108 229 108C230.105 108 231 108.895 231 110Z" fill="#0037FB"/>
<path d="M258 110C258 111.105 257.105 112 256 112C254.895 112 254 111.105 254 110C254 108.895 254.895 108 256 108C257.105 108 258 108.895 258 110Z" fill="#0037FB"/>
<path d="M-255 137C-255 138.105 -255.895 139 -257 139C-258.105 139 -259 138.105 -259 137C-259 135.895 -258.105 135 -257 135C-255.895 135 -255 135.895 -255 137Z" fill="#0037FB"/>
<path d="M-228 137C-228 138.105 -228.895 139 -230 139C-231.105 139 -232 138.105 -232 137C-232 135.895 -231.105 135 -230 135C-228.895 135 -228 135.895 -228 137Z" fill="#0037FB"/>
<path d="M-201 137C-201 138.105 -201.895 139 -203 139C-204.105 139 -205 138.105 -205 137C-205 135.895 -204.105 135 -203 135C-201.895 135 -201 135.895 -201 137Z" fill="#0037FB"/>
<path d="M-174 137C-174 138.105 -174.895 139 -176 139C-177.105 139 -178 138.105 -178 137C-178 135.895 -177.105 135 -176 135C-174.895 135 -174 135.895 -174 137Z" fill="#0037FB"/>
<path d="M-147 137C-147 138.105 -147.895 139 -149 139C-150.105 139 -151 138.105 -151 137C-151 135.895 -150.105 135 -149 135C-147.895 135 -147 135.895 -147 137Z" fill="#0037FB"/>
<path d="M-120 137C-120 138.105 -120.895 139 -122 139C-123.105 139 -124 138.105 -124 137C-124 135.895 -123.105 135 -122 135C-120.895 135 -120 135.895 -120 137Z" fill="#0037FB"/>
<path d="M-93 137C-93 138.105 -93.8954 139 -95 139C-96.1046 139 -97 138.105 -97 137C-97 135.895 -96.1046 135 -95 135C-93.8954 135 -93 135.895 -93 137Z" fill="#0037FB"/>
<path d="M-66 137C-66 138.105 -66.8954 139 -68 139C-69.1046 139 -70 138.105 -70 137C-70 135.895 -69.1046 135 -68 135C-66.8954 135 -66 135.895 -66 137Z" fill="#0037FB"/>
<path d="M-39 137C-39 138.105 -39.8954 139 -41 139C-42.1046 139 -43 138.105 -43 137C-43 135.895 -42.1046 135 -41 135C-39.8954 135 -39 135.895 -39 137Z" fill="#0037FB"/>
<path d="M-12 137C-12 138.105 -12.8954 139 -14 139C-15.1046 139 -16 138.105 -16 137C-16 135.895 -15.1046 135 -14 135C-12.8954 135 -12 135.895 -12 137Z" fill="#0037FB"/>
<path d="M15 137C15 138.105 14.1046 139 13 139C11.8954 139 11 138.105 11 137C11 135.895 11.8954 135 13 135C14.1046 135 15 135.895 15 137Z" fill="#0037FB"/>
<path d="M42 137C42 138.105 41.1046 139 40 139C38.8954 139 38 138.105 38 137C38 135.895 38.8954 135 40 135C41.1046 135 42 135.895 42 137Z" fill="#0037FB"/>
<path d="M69 137C69 138.105 68.1046 139 67 139C65.8954 139 65 138.105 65 137C65 135.895 65.8954 135 67 135C68.1046 135 69 135.895 69 137Z" fill="#0037FB"/>
<path d="M96 137C96 138.105 95.1046 139 94 139C92.8954 139 92 138.105 92 137C92 135.895 92.8954 135 94 135C95.1046 135 96 135.895 96 137Z" fill="#0037FB"/>
<path d="M123 137C123 138.105 122.105 139 121 139C119.895 139 119 138.105 119 137C119 135.895 119.895 135 121 135C122.105 135 123 135.895 123 137Z" fill="#0037FB"/>
<path d="M150 137C150 138.105 149.105 139 148 139C146.895 139 146 138.105 146 137C146 135.895 146.895 135 148 135C149.105 135 150 135.895 150 137Z" fill="#0037FB"/>
<path d="M177 137C177 138.105 176.105 139 175 139C173.895 139 173 138.105 173 137C173 135.895 173.895 135 175 135C176.105 135 177 135.895 177 137Z" fill="#0037FB"/>
<path d="M204 137C204 138.105 203.105 139 202 139C200.895 139 200 138.105 200 137C200 135.895 200.895 135 202 135C203.105 135 204 135.895 204 137Z" fill="#0037FB"/>
<path d="M231 137C231 138.105 230.105 139 229 139C227.895 139 227 138.105 227 137C227 135.895 227.895 135 229 135C230.105 135 231 135.895 231 137Z" fill="#0037FB"/>
<path d="M258 137C258 138.105 257.105 139 256 139C254.895 139 254 138.105 254 137C254 135.895 254.895 135 256 135C257.105 135 258 135.895 258 137Z" fill="#0037FB"/>
<path d="M-255 164C-255 165.105 -255.895 166 -257 166C-258.105 166 -259 165.105 -259 164C-259 162.895 -258.105 162 -257 162C-255.895 162 -255 162.895 -255 164Z" fill="#0037FB"/>
<path d="M-228 164C-228 165.105 -228.895 166 -230 166C-231.105 166 -232 165.105 -232 164C-232 162.895 -231.105 162 -230 162C-228.895 162 -228 162.895 -228 164Z" fill="#0037FB"/>
<path d="M-201 164C-201 165.105 -201.895 166 -203 166C-204.105 166 -205 165.105 -205 164C-205 162.895 -204.105 162 -203 162C-201.895 162 -201 162.895 -201 164Z" fill="#0037FB"/>
<path d="M-174 164C-174 165.105 -174.895 166 -176 166C-177.105 166 -178 165.105 -178 164C-178 162.895 -177.105 162 -176 162C-174.895 162 -174 162.895 -174 164Z" fill="#0037FB"/>
<path d="M-147 164C-147 165.105 -147.895 166 -149 166C-150.105 166 -151 165.105 -151 164C-151 162.895 -150.105 162 -149 162C-147.895 162 -147 162.895 -147 164Z" fill="#0037FB"/>
<path d="M-120 164C-120 165.105 -120.895 166 -122 166C-123.105 166 -124 165.105 -124 164C-124 162.895 -123.105 162 -122 162C-120.895 162 -120 162.895 -120 164Z" fill="#0037FB"/>
<path d="M-93 164C-93 165.105 -93.8954 166 -95 166C-96.1046 166 -97 165.105 -97 164C-97 162.895 -96.1046 162 -95 162C-93.8954 162 -93 162.895 -93 164Z" fill="#0037FB"/>
<path d="M-66 164C-66 165.105 -66.8954 166 -68 166C-69.1046 166 -70 165.105 -70 164C-70 162.895 -69.1046 162 -68 162C-66.8954 162 -66 162.895 -66 164Z" fill="#0037FB"/>
<path d="M-39 164C-39 165.105 -39.8954 166 -41 166C-42.1046 166 -43 165.105 -43 164C-43 162.895 -42.1046 162 -41 162C-39.8954 162 -39 162.895 -39 164Z" fill="#0037FB"/>
<path d="M-12 164C-12 165.105 -12.8954 166 -14 166C-15.1046 166 -16 165.105 -16 164C-16 162.895 -15.1046 162 -14 162C-12.8954 162 -12 162.895 -12 164Z" fill="#0037FB"/>
<path d="M15 164C15 165.105 14.1046 166 13 166C11.8954 166 11 165.105 11 164C11 162.895 11.8954 162 13 162C14.1046 162 15 162.895 15 164Z" fill="#0037FB"/>
<path d="M42 164C42 165.105 41.1046 166 40 166C38.8954 166 38 165.105 38 164C38 162.895 38.8954 162 40 162C41.1046 162 42 162.895 42 164Z" fill="#0037FB"/>
<path d="M69 164C69 165.105 68.1046 166 67 166C65.8954 166 65 165.105 65 164C65 162.895 65.8954 162 67 162C68.1046 162 69 162.895 69 164Z" fill="#0037FB"/>
<path d="M96 164C96 165.105 95.1046 166 94 166C92.8954 166 92 165.105 92 164C92 162.895 92.8954 162 94 162C95.1046 162 96 162.895 96 164Z" fill="#0037FB"/>
<path d="M123 164C123 165.105 122.105 166 121 166C119.895 166 119 165.105 119 164C119 162.895 119.895 162 121 162C122.105 162 123 162.895 123 164Z" fill="#0037FB"/>
<path d="M150 164C150 165.105 149.105 166 148 166C146.895 166 146 165.105 146 164C146 162.895 146.895 162 148 162C149.105 162 150 162.895 150 164Z" fill="#0037FB"/>
<path d="M177 164C177 165.105 176.105 166 175 166C173.895 166 173 165.105 173 164C173 162.895 173.895 162 175 162C176.105 162 177 162.895 177 164Z" fill="#0037FB"/>
<path d="M204 164C204 165.105 203.105 166 202 166C200.895 166 200 165.105 200 164C200 162.895 200.895 162 202 162C203.105 162 204 162.895 204 164Z" fill="#0037FB"/>
<path d="M231 164C231 165.105 230.105 166 229 166C227.895 166 227 165.105 227 164C227 162.895 227.895 162 229 162C230.105 162 231 162.895 231 164Z" fill="#0037FB"/>
<path d="M258 164C258 165.105 257.105 166 256 166C254.895 166 254 165.105 254 164C254 162.895 254.895 162 256 162C257.105 162 258 162.895 258 164Z" fill="#0037FB"/>
<path d="M-255 191C-255 192.105 -255.895 193 -257 193C-258.105 193 -259 192.105 -259 191C-259 189.895 -258.105 189 -257 189C-255.895 189 -255 189.895 -255 191Z" fill="#0037FB"/>
<path d="M-228 191C-228 192.105 -228.895 193 -230 193C-231.105 193 -232 192.105 -232 191C-232 189.895 -231.105 189 -230 189C-228.895 189 -228 189.895 -228 191Z" fill="#0037FB"/>
<path d="M-201 191C-201 192.105 -201.895 193 -203 193C-204.105 193 -205 192.105 -205 191C-205 189.895 -204.105 189 -203 189C-201.895 189 -201 189.895 -201 191Z" fill="#0037FB"/>
<path d="M-174 191C-174 192.105 -174.895 193 -176 193C-177.105 193 -178 192.105 -178 191C-178 189.895 -177.105 189 -176 189C-174.895 189 -174 189.895 -174 191Z" fill="#0037FB"/>
<path d="M-147 191C-147 192.105 -147.895 193 -149 193C-150.105 193 -151 192.105 -151 191C-151 189.895 -150.105 189 -149 189C-147.895 189 -147 189.895 -147 191Z" fill="#0037FB"/>
<path d="M-120 191C-120 192.105 -120.895 193 -122 193C-123.105 193 -124 192.105 -124 191C-124 189.895 -123.105 189 -122 189C-120.895 189 -120 189.895 -120 191Z" fill="#0037FB"/>
<path d="M-93 191C-93 192.105 -93.8954 193 -95 193C-96.1046 193 -97 192.105 -97 191C-97 189.895 -96.1046 189 -95 189C-93.8954 189 -93 189.895 -93 191Z" fill="#0037FB"/>
<path d="M-66 191C-66 192.105 -66.8954 193 -68 193C-69.1046 193 -70 192.105 -70 191C-70 189.895 -69.1046 189 -68 189C-66.8954 189 -66 189.895 -66 191Z" fill="#0037FB"/>
<path d="M-39 191C-39 192.105 -39.8954 193 -41 193C-42.1046 193 -43 192.105 -43 191C-43 189.895 -42.1046 189 -41 189C-39.8954 189 -39 189.895 -39 191Z" fill="#0037FB"/>
<path d="M-12 191C-12 192.105 -12.8954 193 -14 193C-15.1046 193 -16 192.105 -16 191C-16 189.895 -15.1046 189 -14 189C-12.8954 189 -12 189.895 -12 191Z" fill="#0037FB"/>
<path d="M15 191C15 192.105 14.1046 193 13 193C11.8954 193 11 192.105 11 191C11 189.895 11.8954 189 13 189C14.1046 189 15 189.895 15 191Z" fill="#0037FB"/>
<path d="M42 191C42 192.105 41.1046 193 40 193C38.8954 193 38 192.105 38 191C38 189.895 38.8954 189 40 189C41.1046 189 42 189.895 42 191Z" fill="#0037FB"/>
<path d="M69 191C69 192.105 68.1046 193 67 193C65.8954 193 65 192.105 65 191C65 189.895 65.8954 189 67 189C68.1046 189 69 189.895 69 191Z" fill="#0037FB"/>
<path d="M96 191C96 192.105 95.1046 193 94 193C92.8954 193 92 192.105 92 191C92 189.895 92.8954 189 94 189C95.1046 189 96 189.895 96 191Z" fill="#0037FB"/>
<path d="M123 191C123 192.105 122.105 193 121 193C119.895 193 119 192.105 119 191C119 189.895 119.895 189 121 189C122.105 189 123 189.895 123 191Z" fill="#0037FB"/>
<path d="M150 191C150 192.105 149.105 193 148 193C146.895 193 146 192.105 146 191C146 189.895 146.895 189 148 189C149.105 189 150 189.895 150 191Z" fill="#0037FB"/>
<path d="M177 191C177 192.105 176.105 193 175 193C173.895 193 173 192.105 173 191C173 189.895 173.895 189 175 189C176.105 189 177 189.895 177 191Z" fill="#0037FB"/>
<path d="M204 191C204 192.105 203.105 193 202 193C200.895 193 200 192.105 200 191C200 189.895 200.895 189 202 189C203.105 189 204 189.895 204 191Z" fill="#0037FB"/>
<path d="M231 191C231 192.105 230.105 193 229 193C227.895 193 227 192.105 227 191C227 189.895 227.895 189 229 189C230.105 189 231 189.895 231 191Z" fill="#0037FB"/>
<path d="M258 191C258 192.105 257.105 193 256 193C254.895 193 254 192.105 254 191C254 189.895 254.895 189 256 189C257.105 189 258 189.895 258 191Z" fill="#0037FB"/>
<path d="M-255 218C-255 219.105 -255.895 220 -257 220C-258.105 220 -259 219.105 -259 218C-259 216.895 -258.105 216 -257 216C-255.895 216 -255 216.895 -255 218Z" fill="#0037FB"/>
<path d="M-228 218C-228 219.105 -228.895 220 -230 220C-231.105 220 -232 219.105 -232 218C-232 216.895 -231.105 216 -230 216C-228.895 216 -228 216.895 -228 218Z" fill="#0037FB"/>
<path d="M-201 218C-201 219.105 -201.895 220 -203 220C-204.105 220 -205 219.105 -205 218C-205 216.895 -204.105 216 -203 216C-201.895 216 -201 216.895 -201 218Z" fill="#0037FB"/>
<path d="M-174 218C-174 219.105 -174.895 220 -176 220C-177.105 220 -178 219.105 -178 218C-178 216.895 -177.105 216 -176 216C-174.895 216 -174 216.895 -174 218Z" fill="#0037FB"/>
<path d="M-147 218C-147 219.105 -147.895 220 -149 220C-150.105 220 -151 219.105 -151 218C-151 216.895 -150.105 216 -149 216C-147.895 216 -147 216.895 -147 218Z" fill="#0037FB"/>
<path d="M-120 218C-120 219.105 -120.895 220 -122 220C-123.105 220 -124 219.105 -124 218C-124 216.895 -123.105 216 -122 216C-120.895 216 -120 216.895 -120 218Z" fill="#0037FB"/>
<path d="M-93 218C-93 219.105 -93.8954 220 -95 220C-96.1046 220 -97 219.105 -97 218C-97 216.895 -96.1046 216 -95 216C-93.8954 216 -93 216.895 -93 218Z" fill="#0037FB"/>
<path d="M-66 218C-66 219.105 -66.8954 220 -68 220C-69.1046 220 -70 219.105 -70 218C-70 216.895 -69.1046 216 -68 216C-66.8954 216 -66 216.895 -66 218Z" fill="#0037FB"/>
<path d="M-39 218C-39 219.105 -39.8954 220 -41 220C-42.1046 220 -43 219.105 -43 218C-43 216.895 -42.1046 216 -41 216C-39.8954 216 -39 216.895 -39 218Z" fill="#0037FB"/>
<path d="M-12 218C-12 219.105 -12.8954 220 -14 220C-15.1046 220 -16 219.105 -16 218C-16 216.895 -15.1046 216 -14 216C-12.8954 216 -12 216.895 -12 218Z" fill="#0037FB"/>
<path d="M15 218C15 219.105 14.1046 220 13 220C11.8954 220 11 219.105 11 218C11 216.895 11.8954 216 13 216C14.1046 216 15 216.895 15 218Z" fill="#0037FB"/>
<path d="M42 218C42 219.105 41.1046 220 40 220C38.8954 220 38 219.105 38 218C38 216.895 38.8954 216 40 216C41.1046 216 42 216.895 42 218Z" fill="#0037FB"/>
<path d="M69 218C69 219.105 68.1046 220 67 220C65.8954 220 65 219.105 65 218C65 216.895 65.8954 216 67 216C68.1046 216 69 216.895 69 218Z" fill="#0037FB"/>
<path d="M96 218C96 219.105 95.1046 220 94 220C92.8954 220 92 219.105 92 218C92 216.895 92.8954 216 94 216C95.1046 216 96 216.895 96 218Z" fill="#0037FB"/>
<path d="M123 218C123 219.105 122.105 220 121 220C119.895 220 119 219.105 119 218C119 216.895 119.895 216 121 216C122.105 216 123 216.895 123 218Z" fill="#0037FB"/>
<path d="M150 218C150 219.105 149.105 220 148 220C146.895 220 146 219.105 146 218C146 216.895 146.895 216 148 216C149.105 216 150 216.895 150 218Z" fill="#0037FB"/>
<path d="M177 218C177 219.105 176.105 220 175 220C173.895 220 173 219.105 173 218C173 216.895 173.895 216 175 216C176.105 216 177 216.895 177 218Z" fill="#0037FB"/>
<path d="M204 218C204 219.105 203.105 220 202 220C200.895 220 200 219.105 200 218C200 216.895 200.895 216 202 216C203.105 216 204 216.895 204 218Z" fill="#0037FB"/>
<path d="M231 218C231 219.105 230.105 220 229 220C227.895 220 227 219.105 227 218C227 216.895 227.895 216 229 216C230.105 216 231 216.895 231 218Z" fill="#0037FB"/>
<path d="M258 218C258 219.105 257.105 220 256 220C254.895 220 254 219.105 254 218C254 216.895 254.895 216 256 216C257.105 216 258 216.895 258 218Z" fill="#0037FB"/>
<path d="M-255 245C-255 246.105 -255.895 247 -257 247C-258.105 247 -259 246.105 -259 245C-259 243.895 -258.105 243 -257 243C-255.895 243 -255 243.895 -255 245Z" fill="#0037FB"/>
<path d="M-228 245C-228 246.105 -228.895 247 -230 247C-231.105 247 -232 246.105 -232 245C-232 243.895 -231.105 243 -230 243C-228.895 243 -228 243.895 -228 245Z" fill="#0037FB"/>
<path d="M-201 245C-201 246.105 -201.895 247 -203 247C-204.105 247 -205 246.105 -205 245C-205 243.895 -204.105 243 -203 243C-201.895 243 -201 243.895 -201 245Z" fill="#0037FB"/>
<path d="M-174 245C-174 246.105 -174.895 247 -176 247C-177.105 247 -178 246.105 -178 245C-178 243.895 -177.105 243 -176 243C-174.895 243 -174 243.895 -174 245Z" fill="#0037FB"/>
<path d="M-147 245C-147 246.105 -147.895 247 -149 247C-150.105 247 -151 246.105 -151 245C-151 243.895 -150.105 243 -149 243C-147.895 243 -147 243.895 -147 245Z" fill="#0037FB"/>
<path d="M-120 245C-120 246.105 -120.895 247 -122 247C-123.105 247 -124 246.105 -124 245C-124 243.895 -123.105 243 -122 243C-120.895 243 -120 243.895 -120 245Z" fill="#0037FB"/>
<path d="M-93 245C-93 246.105 -93.8954 247 -95 247C-96.1046 247 -97 246.105 -97 245C-97 243.895 -96.1046 243 -95 243C-93.8954 243 -93 243.895 -93 245Z" fill="#0037FB"/>
<path d="M-66 245C-66 246.105 -66.8954 247 -68 247C-69.1046 247 -70 246.105 -70 245C-70 243.895 -69.1046 243 -68 243C-66.8954 243 -66 243.895 -66 245Z" fill="#0037FB"/>
<path d="M-39 245C-39 246.105 -39.8954 247 -41 247C-42.1046 247 -43 246.105 -43 245C-43 243.895 -42.1046 243 -41 243C-39.8954 243 -39 243.895 -39 245Z" fill="#0037FB"/>
<path d="M-12 245C-12 246.105 -12.8954 247 -14 247C-15.1046 247 -16 246.105 -16 245C-16 243.895 -15.1046 243 -14 243C-12.8954 243 -12 243.895 -12 245Z" fill="#0037FB"/>
<path d="M15 245C15 246.105 14.1046 247 13 247C11.8954 247 11 246.105 11 245C11 243.895 11.8954 243 13 243C14.1046 243 15 243.895 15 245Z" fill="#0037FB"/>
<path d="M42 245C42 246.105 41.1046 247 40 247C38.8954 247 38 246.105 38 245C38 243.895 38.8954 243 40 243C41.1046 243 42 243.895 42 245Z" fill="#0037FB"/>
<path d="M69 245C69 246.105 68.1046 247 67 247C65.8954 247 65 246.105 65 245C65 243.895 65.8954 243 67 243C68.1046 243 69 243.895 69 245Z" fill="#0037FB"/>
<path d="M96 245C96 246.105 95.1046 247 94 247C92.8954 247 92 246.105 92 245C92 243.895 92.8954 243 94 243C95.1046 243 96 243.895 96 245Z" fill="#0037FB"/>
<path d="M123 245C123 246.105 122.105 247 121 247C119.895 247 119 246.105 119 245C119 243.895 119.895 243 121 243C122.105 243 123 243.895 123 245Z" fill="#0037FB"/>
<path d="M150 245C150 246.105 149.105 247 148 247C146.895 247 146 246.105 146 245C146 243.895 146.895 243 148 243C149.105 243 150 243.895 150 245Z" fill="#0037FB"/>
<path d="M177 245C177 246.105 176.105 247 175 247C173.895 247 173 246.105 173 245C173 243.895 173.895 243 175 243C176.105 243 177 243.895 177 245Z" fill="#0037FB"/>
<path d="M204 245C204 246.105 203.105 247 202 247C200.895 247 200 246.105 200 245C200 243.895 200.895 243 202 243C203.105 243 204 243.895 204 245Z" fill="#0037FB"/>
<path d="M231 245C231 246.105 230.105 247 229 247C227.895 247 227 246.105 227 245C227 243.895 227.895 243 229 243C230.105 243 231 243.895 231 245Z" fill="#0037FB"/>
<path d="M258 245C258 246.105 257.105 247 256 247C254.895 247 254 246.105 254 245C254 243.895 254.895 243 256 243C257.105 243 258 243.895 258 245Z" fill="#0037FB"/>
<path d="M-255 272C-255 273.105 -255.895 274 -257 274C-258.105 274 -259 273.105 -259 272C-259 270.895 -258.105 270 -257 270C-255.895 270 -255 270.895 -255 272Z" fill="#0037FB"/>
<path d="M-228 272C-228 273.105 -228.895 274 -230 274C-231.105 274 -232 273.105 -232 272C-232 270.895 -231.105 270 -230 270C-228.895 270 -228 270.895 -228 272Z" fill="#0037FB"/>
<path d="M-201 272C-201 273.105 -201.895 274 -203 274C-204.105 274 -205 273.105 -205 272C-205 270.895 -204.105 270 -203 270C-201.895 270 -201 270.895 -201 272Z" fill="#0037FB"/>
<path d="M-174 272C-174 273.105 -174.895 274 -176 274C-177.105 274 -178 273.105 -178 272C-178 270.895 -177.105 270 -176 270C-174.895 270 -174 270.895 -174 272Z" fill="#0037FB"/>
<path d="M-147 272C-147 273.105 -147.895 274 -149 274C-150.105 274 -151 273.105 -151 272C-151 270.895 -150.105 270 -149 270C-147.895 270 -147 270.895 -147 272Z" fill="#0037FB"/>
<path d="M-120 272C-120 273.105 -120.895 274 -122 274C-123.105 274 -124 273.105 -124 272C-124 270.895 -123.105 270 -122 270C-120.895 270 -120 270.895 -120 272Z" fill="#0037FB"/>
<path d="M-93 272C-93 273.105 -93.8954 274 -95 274C-96.1046 274 -97 273.105 -97 272C-97 270.895 -96.1046 270 -95 270C-93.8954 270 -93 270.895 -93 272Z" fill="#0037FB"/>
<path d="M-66 272C-66 273.105 -66.8954 274 -68 274C-69.1046 274 -70 273.105 -70 272C-70 270.895 -69.1046 270 -68 270C-66.8954 270 -66 270.895 -66 272Z" fill="#0037FB"/>
<path d="M-39 272C-39 273.105 -39.8954 274 -41 274C-42.1046 274 -43 273.105 -43 272C-43 270.895 -42.1046 270 -41 270C-39.8954 270 -39 270.895 -39 272Z" fill="#0037FB"/>
<path d="M-12 272C-12 273.105 -12.8954 274 -14 274C-15.1046 274 -16 273.105 -16 272C-16 270.895 -15.1046 270 -14 270C-12.8954 270 -12 270.895 -12 272Z" fill="#0037FB"/>
<path d="M15 272C15 273.105 14.1046 274 13 274C11.8954 274 11 273.105 11 272C11 270.895 11.8954 270 13 270C14.1046 270 15 270.895 15 272Z" fill="#0037FB"/>
<path d="M42 272C42 273.105 41.1046 274 40 274C38.8954 274 38 273.105 38 272C38 270.895 38.8954 270 40 270C41.1046 270 42 270.895 42 272Z" fill="#0037FB"/>
<path d="M69 272C69 273.105 68.1046 274 67 274C65.8954 274 65 273.105 65 272C65 270.895 65.8954 270 67 270C68.1046 270 69 270.895 69 272Z" fill="#0037FB"/>
<path d="M96 272C96 273.105 95.1046 274 94 274C92.8954 274 92 273.105 92 272C92 270.895 92.8954 270 94 270C95.1046 270 96 270.895 96 272Z" fill="#0037FB"/>
<path d="M123 272C123 273.105 122.105 274 121 274C119.895 274 119 273.105 119 272C119 270.895 119.895 270 121 270C122.105 270 123 270.895 123 272Z" fill="#0037FB"/>
<path d="M150 272C150 273.105 149.105 274 148 274C146.895 274 146 273.105 146 272C146 270.895 146.895 270 148 270C149.105 270 150 270.895 150 272Z" fill="#0037FB"/>
<path d="M177 272C177 273.105 176.105 274 175 274C173.895 274 173 273.105 173 272C173 270.895 173.895 270 175 270C176.105 270 177 270.895 177 272Z" fill="#0037FB"/>
<path d="M204 272C204 273.105 203.105 274 202 274C200.895 274 200 273.105 200 272C200 270.895 200.895 270 202 270C203.105 270 204 270.895 204 272Z" fill="#0037FB"/>
<path d="M231 272C231 273.105 230.105 274 229 274C227.895 274 227 273.105 227 272C227 270.895 227.895 270 229 270C230.105 270 231 270.895 231 272Z" fill="#0037FB"/>
<path d="M258 272C258 273.105 257.105 274 256 274C254.895 274 254 273.105 254 272C254 270.895 254.895 270 256 270C257.105 270 258 270.895 258 272Z" fill="#0037FB"/>
<path d="M-255 299C-255 300.105 -255.895 301 -257 301C-258.105 301 -259 300.105 -259 299C-259 297.895 -258.105 297 -257 297C-255.895 297 -255 297.895 -255 299Z" fill="#0037FB"/>
<path d="M-228 299C-228 300.105 -228.895 301 -230 301C-231.105 301 -232 300.105 -232 299C-232 297.895 -231.105 297 -230 297C-228.895 297 -228 297.895 -228 299Z" fill="#0037FB"/>
<path d="M-201 299C-201 300.105 -201.895 301 -203 301C-204.105 301 -205 300.105 -205 299C-205 297.895 -204.105 297 -203 297C-201.895 297 -201 297.895 -201 299Z" fill="#0037FB"/>
<path d="M-174 299C-174 300.105 -174.895 301 -176 301C-177.105 301 -178 300.105 -178 299C-178 297.895 -177.105 297 -176 297C-174.895 297 -174 297.895 -174 299Z" fill="#0037FB"/>
<path d="M-147 299C-147 300.105 -147.895 301 -149 301C-150.105 301 -151 300.105 -151 299C-151 297.895 -150.105 297 -149 297C-147.895 297 -147 297.895 -147 299Z" fill="#0037FB"/>
<path d="M-120 299C-120 300.105 -120.895 301 -122 301C-123.105 301 -124 300.105 -124 299C-124 297.895 -123.105 297 -122 297C-120.895 297 -120 297.895 -120 299Z" fill="#0037FB"/>
<path d="M-93 299C-93 300.105 -93.8954 301 -95 301C-96.1046 301 -97 300.105 -97 299C-97 297.895 -96.1046 297 -95 297C-93.8954 297 -93 297.895 -93 299Z" fill="#0037FB"/>
<path d="M-66 299C-66 300.105 -66.8954 301 -68 301C-69.1046 301 -70 300.105 -70 299C-70 297.895 -69.1046 297 -68 297C-66.8954 297 -66 297.895 -66 299Z" fill="#0037FB"/>
<path d="M-39 299C-39 300.105 -39.8954 301 -41 301C-42.1046 301 -43 300.105 -43 299C-43 297.895 -42.1046 297 -41 297C-39.8954 297 -39 297.895 -39 299Z" fill="#0037FB"/>
<path d="M-12 299C-12 300.105 -12.8954 301 -14 301C-15.1046 301 -16 300.105 -16 299C-16 297.895 -15.1046 297 -14 297C-12.8954 297 -12 297.895 -12 299Z" fill="#0037FB"/>
<path d="M15 299C15 300.105 14.1046 301 13 301C11.8954 301 11 300.105 11 299C11 297.895 11.8954 297 13 297C14.1046 297 15 297.895 15 299Z" fill="#0037FB"/>
<path d="M42 299C42 300.105 41.1046 301 40 301C38.8954 301 38 300.105 38 299C38 297.895 38.8954 297 40 297C41.1046 297 42 297.895 42 299Z" fill="#0037FB"/>
<path d="M69 299C69 300.105 68.1046 301 67 301C65.8954 301 65 300.105 65 299C65 297.895 65.8954 297 67 297C68.1046 297 69 297.895 69 299Z" fill="#0037FB"/>
<path d="M96 299C96 300.105 95.1046 301 94 301C92.8954 301 92 300.105 92 299C92 297.895 92.8954 297 94 297C95.1046 297 96 297.895 96 299Z" fill="#0037FB"/>
<path d="M123 299C123 300.105 122.105 301 121 301C119.895 301 119 300.105 119 299C119 297.895 119.895 297 121 297C122.105 297 123 297.895 123 299Z" fill="#0037FB"/>
<path d="M150 299C150 300.105 149.105 301 148 301C146.895 301 146 300.105 146 299C146 297.895 146.895 297 148 297C149.105 297 150 297.895 150 299Z" fill="#0037FB"/>
<path d="M177 299C177 300.105 176.105 301 175 301C173.895 301 173 300.105 173 299C173 297.895 173.895 297 175 297C176.105 297 177 297.895 177 299Z" fill="#0037FB"/>
<path d="M204 299C204 300.105 203.105 301 202 301C200.895 301 200 300.105 200 299C200 297.895 200.895 297 202 297C203.105 297 204 297.895 204 299Z" fill="#0037FB"/>
<path d="M231 299C231 300.105 230.105 301 229 301C227.895 301 227 300.105 227 299C227 297.895 227.895 297 229 297C230.105 297 231 297.895 231 299Z" fill="#0037FB"/>
<path d="M258 299C258 300.105 257.105 301 256 301C254.895 301 254 300.105 254 299C254 297.895 254.895 297 256 297C257.105 297 258 297.895 258 299Z" fill="#0037FB"/>
<path d="M-255 326C-255 327.105 -255.895 328 -257 328C-258.105 328 -259 327.105 -259 326C-259 324.895 -258.105 324 -257 324C-255.895 324 -255 324.895 -255 326Z" fill="#0037FB"/>
<path d="M-228 326C-228 327.105 -228.895 328 -230 328C-231.105 328 -232 327.105 -232 326C-232 324.895 -231.105 324 -230 324C-228.895 324 -228 324.895 -228 326Z" fill="#0037FB"/>
<path d="M-201 326C-201 327.105 -201.895 328 -203 328C-204.105 328 -205 327.105 -205 326C-205 324.895 -204.105 324 -203 324C-201.895 324 -201 324.895 -201 326Z" fill="#0037FB"/>
<path d="M-174 326C-174 327.105 -174.895 328 -176 328C-177.105 328 -178 327.105 -178 326C-178 324.895 -177.105 324 -176 324C-174.895 324 -174 324.895 -174 326Z" fill="#0037FB"/>
<path d="M-147 326C-147 327.105 -147.895 328 -149 328C-150.105 328 -151 327.105 -151 326C-151 324.895 -150.105 324 -149 324C-147.895 324 -147 324.895 -147 326Z" fill="#0037FB"/>
<path d="M-120 326C-120 327.105 -120.895 328 -122 328C-123.105 328 -124 327.105 -124 326C-124 324.895 -123.105 324 -122 324C-120.895 324 -120 324.895 -120 326Z" fill="#0037FB"/>
<path d="M-93 326C-93 327.105 -93.8954 328 -95 328C-96.1046 328 -97 327.105 -97 326C-97 324.895 -96.1046 324 -95 324C-93.8954 324 -93 324.895 -93 326Z" fill="#0037FB"/>
<path d="M-66 326C-66 327.105 -66.8954 328 -68 328C-69.1046 328 -70 327.105 -70 326C-70 324.895 -69.1046 324 -68 324C-66.8954 324 -66 324.895 -66 326Z" fill="#0037FB"/>
<path d="M-39 326C-39 327.105 -39.8954 328 -41 328C-42.1046 328 -43 327.105 -43 326C-43 324.895 -42.1046 324 -41 324C-39.8954 324 -39 324.895 -39 326Z" fill="#0037FB"/>
<path d="M-12 326C-12 327.105 -12.8954 328 -14 328C-15.1046 328 -16 327.105 -16 326C-16 324.895 -15.1046 324 -14 324C-12.8954 324 -12 324.895 -12 326Z" fill="#0037FB"/>
<path d="M15 326C15 327.105 14.1046 328 13 328C11.8954 328 11 327.105 11 326C11 324.895 11.8954 324 13 324C14.1046 324 15 324.895 15 326Z" fill="#0037FB"/>
<path d="M42 326C42 327.105 41.1046 328 40 328C38.8954 328 38 327.105 38 326C38 324.895 38.8954 324 40 324C41.1046 324 42 324.895 42 326Z" fill="#0037FB"/>
<path d="M69 326C69 327.105 68.1046 328 67 328C65.8954 328 65 327.105 65 326C65 324.895 65.8954 324 67 324C68.1046 324 69 324.895 69 326Z" fill="#0037FB"/>
<path d="M96 326C96 327.105 95.1046 328 94 328C92.8954 328 92 327.105 92 326C92 324.895 92.8954 324 94 324C95.1046 324 96 324.895 96 326Z" fill="#0037FB"/>
<path d="M123 326C123 327.105 122.105 328 121 328C119.895 328 119 327.105 119 326C119 324.895 119.895 324 121 324C122.105 324 123 324.895 123 326Z" fill="#0037FB"/>
<path d="M150 326C150 327.105 149.105 328 148 328C146.895 328 146 327.105 146 326C146 324.895 146.895 324 148 324C149.105 324 150 324.895 150 326Z" fill="#0037FB"/>
<path d="M177 326C177 327.105 176.105 328 175 328C173.895 328 173 327.105 173 326C173 324.895 173.895 324 175 324C176.105 324 177 324.895 177 326Z" fill="#0037FB"/>
<path d="M204 326C204 327.105 203.105 328 202 328C200.895 328 200 327.105 200 326C200 324.895 200.895 324 202 324C203.105 324 204 324.895 204 326Z" fill="#0037FB"/>
<path d="M231 326C231 327.105 230.105 328 229 328C227.895 328 227 327.105 227 326C227 324.895 227.895 324 229 324C230.105 324 231 324.895 231 326Z" fill="#0037FB"/>
<path d="M258 326C258 327.105 257.105 328 256 328C254.895 328 254 327.105 254 326C254 324.895 254.895 324 256 324C257.105 324 258 324.895 258 326Z" fill="#0037FB"/>
<path d="M-255 353C-255 354.105 -255.895 355 -257 355C-258.105 355 -259 354.105 -259 353C-259 351.895 -258.105 351 -257 351C-255.895 351 -255 351.895 -255 353Z" fill="#0037FB"/>
<path d="M-228 353C-228 354.105 -228.895 355 -230 355C-231.105 355 -232 354.105 -232 353C-232 351.895 -231.105 351 -230 351C-228.895 351 -228 351.895 -228 353Z" fill="#0037FB"/>
<path d="M-201 353C-201 354.105 -201.895 355 -203 355C-204.105 355 -205 354.105 -205 353C-205 351.895 -204.105 351 -203 351C-201.895 351 -201 351.895 -201 353Z" fill="#0037FB"/>
<path d="M-174 353C-174 354.105 -174.895 355 -176 355C-177.105 355 -178 354.105 -178 353C-178 351.895 -177.105 351 -176 351C-174.895 351 -174 351.895 -174 353Z" fill="#0037FB"/>
<path d="M-147 353C-147 354.105 -147.895 355 -149 355C-150.105 355 -151 354.105 -151 353C-151 351.895 -150.105 351 -149 351C-147.895 351 -147 351.895 -147 353Z" fill="#0037FB"/>
<path d="M-120 353C-120 354.105 -120.895 355 -122 355C-123.105 355 -124 354.105 -124 353C-124 351.895 -123.105 351 -122 351C-120.895 351 -120 351.895 -120 353Z" fill="#0037FB"/>
<path d="M-93 353C-93 354.105 -93.8954 355 -95 355C-96.1046 355 -97 354.105 -97 353C-97 351.895 -96.1046 351 -95 351C-93.8954 351 -93 351.895 -93 353Z" fill="#0037FB"/>
<path d="M-66 353C-66 354.105 -66.8954 355 -68 355C-69.1046 355 -70 354.105 -70 353C-70 351.895 -69.1046 351 -68 351C-66.8954 351 -66 351.895 -66 353Z" fill="#0037FB"/>
<path d="M-39 353C-39 354.105 -39.8954 355 -41 355C-42.1046 355 -43 354.105 -43 353C-43 351.895 -42.1046 351 -41 351C-39.8954 351 -39 351.895 -39 353Z" fill="#0037FB"/>
<path d="M-12 353C-12 354.105 -12.8954 355 -14 355C-15.1046 355 -16 354.105 -16 353C-16 351.895 -15.1046 351 -14 351C-12.8954 351 -12 351.895 -12 353Z" fill="#0037FB"/>
<path d="M15 353C15 354.105 14.1046 355 13 355C11.8954 355 11 354.105 11 353C11 351.895 11.8954 351 13 351C14.1046 351 15 351.895 15 353Z" fill="#0037FB"/>
<path d="M42 353C42 354.105 41.1046 355 40 355C38.8954 355 38 354.105 38 353C38 351.895 38.8954 351 40 351C41.1046 351 42 351.895 42 353Z" fill="#0037FB"/>
<path d="M69 353C69 354.105 68.1046 355 67 355C65.8954 355 65 354.105 65 353C65 351.895 65.8954 351 67 351C68.1046 351 69 351.895 69 353Z" fill="#0037FB"/>
<path d="M96 353C96 354.105 95.1046 355 94 355C92.8954 355 92 354.105 92 353C92 351.895 92.8954 351 94 351C95.1046 351 96 351.895 96 353Z" fill="#0037FB"/>
<path d="M123 353C123 354.105 122.105 355 121 355C119.895 355 119 354.105 119 353C119 351.895 119.895 351 121 351C122.105 351 123 351.895 123 353Z" fill="#0037FB"/>
<path d="M150 353C150 354.105 149.105 355 148 355C146.895 355 146 354.105 146 353C146 351.895 146.895 351 148 351C149.105 351 150 351.895 150 353Z" fill="#0037FB"/>
<path d="M177 353C177 354.105 176.105 355 175 355C173.895 355 173 354.105 173 353C173 351.895 173.895 351 175 351C176.105 351 177 351.895 177 353Z" fill="#0037FB"/>
<path d="M204 353C204 354.105 203.105 355 202 355C200.895 355 200 354.105 200 353C200 351.895 200.895 351 202 351C203.105 351 204 351.895 204 353Z" fill="#0037FB"/>
<path d="M231 353C231 354.105 230.105 355 229 355C227.895 355 227 354.105 227 353C227 351.895 227.895 351 229 351C230.105 351 231 351.895 231 353Z" fill="#0037FB"/>
<path d="M258 353C258 354.105 257.105 355 256 355C254.895 355 254 354.105 254 353C254 351.895 254.895 351 256 351C257.105 351 258 351.895 258 353Z" fill="#0037FB"/>
<path d="M-255 380C-255 381.105 -255.895 382 -257 382C-258.105 382 -259 381.105 -259 380C-259 378.895 -258.105 378 -257 378C-255.895 378 -255 378.895 -255 380Z" fill="#0037FB"/>
<path d="M-228 380C-228 381.105 -228.895 382 -230 382C-231.105 382 -232 381.105 -232 380C-232 378.895 -231.105 378 -230 378C-228.895 378 -228 378.895 -228 380Z" fill="#0037FB"/>
<path d="M-201 380C-201 381.105 -201.895 382 -203 382C-204.105 382 -205 381.105 -205 380C-205 378.895 -204.105 378 -203 378C-201.895 378 -201 378.895 -201 380Z" fill="#0037FB"/>
<path d="M-174 380C-174 381.105 -174.895 382 -176 382C-177.105 382 -178 381.105 -178 380C-178 378.895 -177.105 378 -176 378C-174.895 378 -174 378.895 -174 380Z" fill="#0037FB"/>
<path d="M-147 380C-147 381.105 -147.895 382 -149 382C-150.105 382 -151 381.105 -151 380C-151 378.895 -150.105 378 -149 378C-147.895 378 -147 378.895 -147 380Z" fill="#0037FB"/>
<path d="M-120 380C-120 381.105 -120.895 382 -122 382C-123.105 382 -124 381.105 -124 380C-124 378.895 -123.105 378 -122 378C-120.895 378 -120 378.895 -120 380Z" fill="#0037FB"/>
<path d="M-93 380C-93 381.105 -93.8954 382 -95 382C-96.1046 382 -97 381.105 -97 380C-97 378.895 -96.1046 378 -95 378C-93.8954 378 -93 378.895 -93 380Z" fill="#0037FB"/>
<path d="M-66 380C-66 381.105 -66.8954 382 -68 382C-69.1046 382 -70 381.105 -70 380C-70 378.895 -69.1046 378 -68 378C-66.8954 378 -66 378.895 -66 380Z" fill="#0037FB"/>
<path d="M-39 380C-39 381.105 -39.8954 382 -41 382C-42.1046 382 -43 381.105 -43 380C-43 378.895 -42.1046 378 -41 378C-39.8954 378 -39 378.895 -39 380Z" fill="#0037FB"/>
<path d="M-12 380C-12 381.105 -12.8954 382 -14 382C-15.1046 382 -16 381.105 -16 380C-16 378.895 -15.1046 378 -14 378C-12.8954 378 -12 378.895 -12 380Z" fill="#0037FB"/>
<path d="M15 380C15 381.105 14.1046 382 13 382C11.8954 382 11 381.105 11 380C11 378.895 11.8954 378 13 378C14.1046 378 15 378.895 15 380Z" fill="#0037FB"/>
<path d="M42 380C42 381.105 41.1046 382 40 382C38.8954 382 38 381.105 38 380C38 378.895 38.8954 378 40 378C41.1046 378 42 378.895 42 380Z" fill="#0037FB"/>
<path d="M69 380C69 381.105 68.1046 382 67 382C65.8954 382 65 381.105 65 380C65 378.895 65.8954 378 67 378C68.1046 378 69 378.895 69 380Z" fill="#0037FB"/>
<path d="M96 380C96 381.105 95.1046 382 94 382C92.8954 382 92 381.105 92 380C92 378.895 92.8954 378 94 378C95.1046 378 96 378.895 96 380Z" fill="#0037FB"/>
<path d="M123 380C123 381.105 122.105 382 121 382C119.895 382 119 381.105 119 380C119 378.895 119.895 378 121 378C122.105 378 123 378.895 123 380Z" fill="#0037FB"/>
<path d="M150 380C150 381.105 149.105 382 148 382C146.895 382 146 381.105 146 380C146 378.895 146.895 378 148 378C149.105 378 150 378.895 150 380Z" fill="#0037FB"/>
<path d="M177 380C177 381.105 176.105 382 175 382C173.895 382 173 381.105 173 380C173 378.895 173.895 378 175 378C176.105 378 177 378.895 177 380Z" fill="#0037FB"/>
<path d="M204 380C204 381.105 203.105 382 202 382C200.895 382 200 381.105 200 380C200 378.895 200.895 378 202 378C203.105 378 204 378.895 204 380Z" fill="#0037FB"/>
<path d="M231 380C231 381.105 230.105 382 229 382C227.895 382 227 381.105 227 380C227 378.895 227.895 378 229 378C230.105 378 231 378.895 231 380Z" fill="#0037FB"/>
<path d="M258 380C258 381.105 257.105 382 256 382C254.895 382 254 381.105 254 380C254 378.895 254.895 378 256 378C257.105 378 258 378.895 258 380Z" fill="#0037FB"/>
<path d="M-255 407C-255 408.105 -255.895 409 -257 409C-258.105 409 -259 408.105 -259 407C-259 405.895 -258.105 405 -257 405C-255.895 405 -255 405.895 -255 407Z" fill="#0037FB"/>
<path d="M-228 407C-228 408.105 -228.895 409 -230 409C-231.105 409 -232 408.105 -232 407C-232 405.895 -231.105 405 -230 405C-228.895 405 -228 405.895 -228 407Z" fill="#0037FB"/>
<path d="M-201 407C-201 408.105 -201.895 409 -203 409C-204.105 409 -205 408.105 -205 407C-205 405.895 -204.105 405 -203 405C-201.895 405 -201 405.895 -201 407Z" fill="#0037FB"/>
<path d="M-174 407C-174 408.105 -174.895 409 -176 409C-177.105 409 -178 408.105 -178 407C-178 405.895 -177.105 405 -176 405C-174.895 405 -174 405.895 -174 407Z" fill="#0037FB"/>
<path d="M-147 407C-147 408.105 -147.895 409 -149 409C-150.105 409 -151 408.105 -151 407C-151 405.895 -150.105 405 -149 405C-147.895 405 -147 405.895 -147 407Z" fill="#0037FB"/>
<path d="M-120 407C-120 408.105 -120.895 409 -122 409C-123.105 409 -124 408.105 -124 407C-124 405.895 -123.105 405 -122 405C-120.895 405 -120 405.895 -120 407Z" fill="#0037FB"/>
<path d="M-93 407C-93 408.105 -93.8954 409 -95 409C-96.1046 409 -97 408.105 -97 407C-97 405.895 -96.1046 405 -95 405C-93.8954 405 -93 405.895 -93 407Z" fill="#0037FB"/>
<path d="M-66 407C-66 408.105 -66.8954 409 -68 409C-69.1046 409 -70 408.105 -70 407C-70 405.895 -69.1046 405 -68 405C-66.8954 405 -66 405.895 -66 407Z" fill="#0037FB"/>
<path d="M-39 407C-39 408.105 -39.8954 409 -41 409C-42.1046 409 -43 408.105 -43 407C-43 405.895 -42.1046 405 -41 405C-39.8954 405 -39 405.895 -39 407Z" fill="#0037FB"/>
<path d="M-12 407C-12 408.105 -12.8954 409 -14 409C-15.1046 409 -16 408.105 -16 407C-16 405.895 -15.1046 405 -14 405C-12.8954 405 -12 405.895 -12 407Z" fill="#0037FB"/>
<path d="M15 407C15 408.105 14.1046 409 13 409C11.8954 409 11 408.105 11 407C11 405.895 11.8954 405 13 405C14.1046 405 15 405.895 15 407Z" fill="#0037FB"/>
<path d="M42 407C42 408.105 41.1046 409 40 409C38.8954 409 38 408.105 38 407C38 405.895 38.8954 405 40 405C41.1046 405 42 405.895 42 407Z" fill="#0037FB"/>
<path d="M69 407C69 408.105 68.1046 409 67 409C65.8954 409 65 408.105 65 407C65 405.895 65.8954 405 67 405C68.1046 405 69 405.895 69 407Z" fill="#0037FB"/>
<path d="M96 407C96 408.105 95.1046 409 94 409C92.8954 409 92 408.105 92 407C92 405.895 92.8954 405 94 405C95.1046 405 96 405.895 96 407Z" fill="#0037FB"/>
<path d="M123 407C123 408.105 122.105 409 121 409C119.895 409 119 408.105 119 407C119 405.895 119.895 405 121 405C122.105 405 123 405.895 123 407Z" fill="#0037FB"/>
<path d="M150 407C150 408.105 149.105 409 148 409C146.895 409 146 408.105 146 407C146 405.895 146.895 405 148 405C149.105 405 150 405.895 150 407Z" fill="#0037FB"/>
<path d="M177 407C177 408.105 176.105 409 175 409C173.895 409 173 408.105 173 407C173 405.895 173.895 405 175 405C176.105 405 177 405.895 177 407Z" fill="#0037FB"/>
<path d="M204 407C204 408.105 203.105 409 202 409C200.895 409 200 408.105 200 407C200 405.895 200.895 405 202 405C203.105 405 204 405.895 204 407Z" fill="#0037FB"/>
<path d="M231 407C231 408.105 230.105 409 229 409C227.895 409 227 408.105 227 407C227 405.895 227.895 405 229 405C230.105 405 231 405.895 231 407Z" fill="#0037FB"/>
<path d="M258 407C258 408.105 257.105 409 256 409C254.895 409 254 408.105 254 407C254 405.895 254.895 405 256 405C257.105 405 258 405.895 258 407Z" fill="#0037FB"/>
<path d="M-255 434C-255 435.105 -255.895 436 -257 436C-258.105 436 -259 435.105 -259 434C-259 432.895 -258.105 432 -257 432C-255.895 432 -255 432.895 -255 434Z" fill="#0037FB"/>
<path d="M-228 434C-228 435.105 -228.895 436 -230 436C-231.105 436 -232 435.105 -232 434C-232 432.895 -231.105 432 -230 432C-228.895 432 -228 432.895 -228 434Z" fill="#0037FB"/>
<path d="M-201 434C-201 435.105 -201.895 436 -203 436C-204.105 436 -205 435.105 -205 434C-205 432.895 -204.105 432 -203 432C-201.895 432 -201 432.895 -201 434Z" fill="#0037FB"/>
<path d="M-174 434C-174 435.105 -174.895 436 -176 436C-177.105 436 -178 435.105 -178 434C-178 432.895 -177.105 432 -176 432C-174.895 432 -174 432.895 -174 434Z" fill="#0037FB"/>
<path d="M-147 434C-147 435.105 -147.895 436 -149 436C-150.105 436 -151 435.105 -151 434C-151 432.895 -150.105 432 -149 432C-147.895 432 -147 432.895 -147 434Z" fill="#0037FB"/>
<path d="M-120 434C-120 435.105 -120.895 436 -122 436C-123.105 436 -124 435.105 -124 434C-124 432.895 -123.105 432 -122 432C-120.895 432 -120 432.895 -120 434Z" fill="#0037FB"/>
<path d="M-93 434C-93 435.105 -93.8954 436 -95 436C-96.1046 436 -97 435.105 -97 434C-97 432.895 -96.1046 432 -95 432C-93.8954 432 -93 432.895 -93 434Z" fill="#0037FB"/>
<path d="M-66 434C-66 435.105 -66.8954 436 -68 436C-69.1046 436 -70 435.105 -70 434C-70 432.895 -69.1046 432 -68 432C-66.8954 432 -66 432.895 -66 434Z" fill="#0037FB"/>
<path d="M-39 434C-39 435.105 -39.8954 436 -41 436C-42.1046 436 -43 435.105 -43 434C-43 432.895 -42.1046 432 -41 432C-39.8954 432 -39 432.895 -39 434Z" fill="#0037FB"/>
<path d="M-12 434C-12 435.105 -12.8954 436 -14 436C-15.1046 436 -16 435.105 -16 434C-16 432.895 -15.1046 432 -14 432C-12.8954 432 -12 432.895 -12 434Z" fill="#0037FB"/>
<path d="M15 434C15 435.105 14.1046 436 13 436C11.8954 436 11 435.105 11 434C11 432.895 11.8954 432 13 432C14.1046 432 15 432.895 15 434Z" fill="#0037FB"/>
<path d="M42 434C42 435.105 41.1046 436 40 436C38.8954 436 38 435.105 38 434C38 432.895 38.8954 432 40 432C41.1046 432 42 432.895 42 434Z" fill="#0037FB"/>
<path d="M69 434C69 435.105 68.1046 436 67 436C65.8954 436 65 435.105 65 434C65 432.895 65.8954 432 67 432C68.1046 432 69 432.895 69 434Z" fill="#0037FB"/>
<path d="M96 434C96 435.105 95.1046 436 94 436C92.8954 436 92 435.105 92 434C92 432.895 92.8954 432 94 432C95.1046 432 96 432.895 96 434Z" fill="#0037FB"/>
<path d="M123 434C123 435.105 122.105 436 121 436C119.895 436 119 435.105 119 434C119 432.895 119.895 432 121 432C122.105 432 123 432.895 123 434Z" fill="#0037FB"/>
<path d="M150 434C150 435.105 149.105 436 148 436C146.895 436 146 435.105 146 434C146 432.895 146.895 432 148 432C149.105 432 150 432.895 150 434Z" fill="#0037FB"/>
<path d="M177 434C177 435.105 176.105 436 175 436C173.895 436 173 435.105 173 434C173 432.895 173.895 432 175 432C176.105 432 177 432.895 177 434Z" fill="#0037FB"/>
<path d="M204 434C204 435.105 203.105 436 202 436C200.895 436 200 435.105 200 434C200 432.895 200.895 432 202 432C203.105 432 204 432.895 204 434Z" fill="#0037FB"/>
<path d="M231 434C231 435.105 230.105 436 229 436C227.895 436 227 435.105 227 434C227 432.895 227.895 432 229 432C230.105 432 231 432.895 231 434Z" fill="#0037FB"/>
<path d="M258 434C258 435.105 257.105 436 256 436C254.895 436 254 435.105 254 434C254 432.895 254.895 432 256 432C257.105 432 258 432.895 258 434Z" fill="#0037FB"/>
<path d="M-255 461C-255 462.105 -255.895 463 -257 463C-258.105 463 -259 462.105 -259 461C-259 459.895 -258.105 459 -257 459C-255.895 459 -255 459.895 -255 461Z" fill="#0037FB"/>
<path d="M-228 461C-228 462.105 -228.895 463 -230 463C-231.105 463 -232 462.105 -232 461C-232 459.895 -231.105 459 -230 459C-228.895 459 -228 459.895 -228 461Z" fill="#0037FB"/>
<path d="M-201 461C-201 462.105 -201.895 463 -203 463C-204.105 463 -205 462.105 -205 461C-205 459.895 -204.105 459 -203 459C-201.895 459 -201 459.895 -201 461Z" fill="#0037FB"/>
<path d="M-174 461C-174 462.105 -174.895 463 -176 463C-177.105 463 -178 462.105 -178 461C-178 459.895 -177.105 459 -176 459C-174.895 459 -174 459.895 -174 461Z" fill="#0037FB"/>
<path d="M-147 461C-147 462.105 -147.895 463 -149 463C-150.105 463 -151 462.105 -151 461C-151 459.895 -150.105 459 -149 459C-147.895 459 -147 459.895 -147 461Z" fill="#0037FB"/>
<path d="M-120 461C-120 462.105 -120.895 463 -122 463C-123.105 463 -124 462.105 -124 461C-124 459.895 -123.105 459 -122 459C-120.895 459 -120 459.895 -120 461Z" fill="#0037FB"/>
<path d="M-93 461C-93 462.105 -93.8954 463 -95 463C-96.1046 463 -97 462.105 -97 461C-97 459.895 -96.1046 459 -95 459C-93.8954 459 -93 459.895 -93 461Z" fill="#0037FB"/>
<path d="M-66 461C-66 462.105 -66.8954 463 -68 463C-69.1046 463 -70 462.105 -70 461C-70 459.895 -69.1046 459 -68 459C-66.8954 459 -66 459.895 -66 461Z" fill="#0037FB"/>
<path d="M-39 461C-39 462.105 -39.8954 463 -41 463C-42.1046 463 -43 462.105 -43 461C-43 459.895 -42.1046 459 -41 459C-39.8954 459 -39 459.895 -39 461Z" fill="#0037FB"/>
<path d="M-12 461C-12 462.105 -12.8954 463 -14 463C-15.1046 463 -16 462.105 -16 461C-16 459.895 -15.1046 459 -14 459C-12.8954 459 -12 459.895 -12 461Z" fill="#0037FB"/>
<path d="M15 461C15 462.105 14.1046 463 13 463C11.8954 463 11 462.105 11 461C11 459.895 11.8954 459 13 459C14.1046 459 15 459.895 15 461Z" fill="#0037FB"/>
<path d="M42 461C42 462.105 41.1046 463 40 463C38.8954 463 38 462.105 38 461C38 459.895 38.8954 459 40 459C41.1046 459 42 459.895 42 461Z" fill="#0037FB"/>
<path d="M69 461C69 462.105 68.1046 463 67 463C65.8954 463 65 462.105 65 461C65 459.895 65.8954 459 67 459C68.1046 459 69 459.895 69 461Z" fill="#0037FB"/>
<path d="M96 461C96 462.105 95.1046 463 94 463C92.8954 463 92 462.105 92 461C92 459.895 92.8954 459 94 459C95.1046 459 96 459.895 96 461Z" fill="#0037FB"/>
<path d="M123 461C123 462.105 122.105 463 121 463C119.895 463 119 462.105 119 461C119 459.895 119.895 459 121 459C122.105 459 123 459.895 123 461Z" fill="#0037FB"/>
<path d="M150 461C150 462.105 149.105 463 148 463C146.895 463 146 462.105 146 461C146 459.895 146.895 459 148 459C149.105 459 150 459.895 150 461Z" fill="#0037FB"/>
<path d="M177 461C177 462.105 176.105 463 175 463C173.895 463 173 462.105 173 461C173 459.895 173.895 459 175 459C176.105 459 177 459.895 177 461Z" fill="#0037FB"/>
<path d="M204 461C204 462.105 203.105 463 202 463C200.895 463 200 462.105 200 461C200 459.895 200.895 459 202 459C203.105 459 204 459.895 204 461Z" fill="#0037FB"/>
<path d="M231 461C231 462.105 230.105 463 229 463C227.895 463 227 462.105 227 461C227 459.895 227.895 459 229 459C230.105 459 231 459.895 231 461Z" fill="#0037FB"/>
<path d="M258 461C258 462.105 257.105 463 256 463C254.895 463 254 462.105 254 461C254 459.895 254.895 459 256 459C257.105 459 258 459.895 258 461Z" fill="#0037FB"/>
<path d="M-255 488C-255 489.105 -255.895 490 -257 490C-258.105 490 -259 489.105 -259 488C-259 486.895 -258.105 486 -257 486C-255.895 486 -255 486.895 -255 488Z" fill="#0037FB"/>
<path d="M-228 488C-228 489.105 -228.895 490 -230 490C-231.105 490 -232 489.105 -232 488C-232 486.895 -231.105 486 -230 486C-228.895 486 -228 486.895 -228 488Z" fill="#0037FB"/>
<path d="M-201 488C-201 489.105 -201.895 490 -203 490C-204.105 490 -205 489.105 -205 488C-205 486.895 -204.105 486 -203 486C-201.895 486 -201 486.895 -201 488Z" fill="#0037FB"/>
<path d="M-174 488C-174 489.105 -174.895 490 -176 490C-177.105 490 -178 489.105 -178 488C-178 486.895 -177.105 486 -176 486C-174.895 486 -174 486.895 -174 488Z" fill="#0037FB"/>
<path d="M-147 488C-147 489.105 -147.895 490 -149 490C-150.105 490 -151 489.105 -151 488C-151 486.895 -150.105 486 -149 486C-147.895 486 -147 486.895 -147 488Z" fill="#0037FB"/>
<path d="M-120 488C-120 489.105 -120.895 490 -122 490C-123.105 490 -124 489.105 -124 488C-124 486.895 -123.105 486 -122 486C-120.895 486 -120 486.895 -120 488Z" fill="#0037FB"/>
<path d="M-93 488C-93 489.105 -93.8954 490 -95 490C-96.1046 490 -97 489.105 -97 488C-97 486.895 -96.1046 486 -95 486C-93.8954 486 -93 486.895 -93 488Z" fill="#0037FB"/>
<path d="M-66 488C-66 489.105 -66.8954 490 -68 490C-69.1046 490 -70 489.105 -70 488C-70 486.895 -69.1046 486 -68 486C-66.8954 486 -66 486.895 -66 488Z" fill="#0037FB"/>
<path d="M-39 488C-39 489.105 -39.8954 490 -41 490C-42.1046 490 -43 489.105 -43 488C-43 486.895 -42.1046 486 -41 486C-39.8954 486 -39 486.895 -39 488Z" fill="#0037FB"/>
<path d="M-12 488C-12 489.105 -12.8954 490 -14 490C-15.1046 490 -16 489.105 -16 488C-16 486.895 -15.1046 486 -14 486C-12.8954 486 -12 486.895 -12 488Z" fill="#0037FB"/>
<path d="M15 488C15 489.105 14.1046 490 13 490C11.8954 490 11 489.105 11 488C11 486.895 11.8954 486 13 486C14.1046 486 15 486.895 15 488Z" fill="#0037FB"/>
<path d="M42 488C42 489.105 41.1046 490 40 490C38.8954 490 38 489.105 38 488C38 486.895 38.8954 486 40 486C41.1046 486 42 486.895 42 488Z" fill="#0037FB"/>
<path d="M69 488C69 489.105 68.1046 490 67 490C65.8954 490 65 489.105 65 488C65 486.895 65.8954 486 67 486C68.1046 486 69 486.895 69 488Z" fill="#0037FB"/>
<path d="M96 488C96 489.105 95.1046 490 94 490C92.8954 490 92 489.105 92 488C92 486.895 92.8954 486 94 486C95.1046 486 96 486.895 96 488Z" fill="#0037FB"/>
<path d="M123 488C123 489.105 122.105 490 121 490C119.895 490 119 489.105 119 488C119 486.895 119.895 486 121 486C122.105 486 123 486.895 123 488Z" fill="#0037FB"/>
<path d="M150 488C150 489.105 149.105 490 148 490C146.895 490 146 489.105 146 488C146 486.895 146.895 486 148 486C149.105 486 150 486.895 150 488Z" fill="#0037FB"/>
<path d="M177 488C177 489.105 176.105 490 175 490C173.895 490 173 489.105 173 488C173 486.895 173.895 486 175 486C176.105 486 177 486.895 177 488Z" fill="#0037FB"/>
<path d="M204 488C204 489.105 203.105 490 202 490C200.895 490 200 489.105 200 488C200 486.895 200.895 486 202 486C203.105 486 204 486.895 204 488Z" fill="#0037FB"/>
<path d="M231 488C231 489.105 230.105 490 229 490C227.895 490 227 489.105 227 488C227 486.895 227.895 486 229 486C230.105 486 231 486.895 231 488Z" fill="#0037FB"/>
<path d="M258 488C258 489.105 257.105 490 256 490C254.895 490 254 489.105 254 488C254 486.895 254.895 486 256 486C257.105 486 258 486.895 258 488Z" fill="#0037FB"/>
<path d="M-255 515C-255 516.105 -255.895 517 -257 517C-258.105 517 -259 516.105 -259 515C-259 513.895 -258.105 513 -257 513C-255.895 513 -255 513.895 -255 515Z" fill="#0037FB"/>
<path d="M-228 515C-228 516.105 -228.895 517 -230 517C-231.105 517 -232 516.105 -232 515C-232 513.895 -231.105 513 -230 513C-228.895 513 -228 513.895 -228 515Z" fill="#0037FB"/>
<path d="M-201 515C-201 516.105 -201.895 517 -203 517C-204.105 517 -205 516.105 -205 515C-205 513.895 -204.105 513 -203 513C-201.895 513 -201 513.895 -201 515Z" fill="#0037FB"/>
<path d="M-174 515C-174 516.105 -174.895 517 -176 517C-177.105 517 -178 516.105 -178 515C-178 513.895 -177.105 513 -176 513C-174.895 513 -174 513.895 -174 515Z" fill="#0037FB"/>
<path d="M-147 515C-147 516.105 -147.895 517 -149 517C-150.105 517 -151 516.105 -151 515C-151 513.895 -150.105 513 -149 513C-147.895 513 -147 513.895 -147 515Z" fill="#0037FB"/>
<path d="M-120 515C-120 516.105 -120.895 517 -122 517C-123.105 517 -124 516.105 -124 515C-124 513.895 -123.105 513 -122 513C-120.895 513 -120 513.895 -120 515Z" fill="#0037FB"/>
<path d="M-93 515C-93 516.105 -93.8954 517 -95 517C-96.1046 517 -97 516.105 -97 515C-97 513.895 -96.1046 513 -95 513C-93.8954 513 -93 513.895 -93 515Z" fill="#0037FB"/>
<path d="M-66 515C-66 516.105 -66.8954 517 -68 517C-69.1046 517 -70 516.105 -70 515C-70 513.895 -69.1046 513 -68 513C-66.8954 513 -66 513.895 -66 515Z" fill="#0037FB"/>
<path d="M-39 515C-39 516.105 -39.8954 517 -41 517C-42.1046 517 -43 516.105 -43 515C-43 513.895 -42.1046 513 -41 513C-39.8954 513 -39 513.895 -39 515Z" fill="#0037FB"/>
<path d="M-12 515C-12 516.105 -12.8954 517 -14 517C-15.1046 517 -16 516.105 -16 515C-16 513.895 -15.1046 513 -14 513C-12.8954 513 -12 513.895 -12 515Z" fill="#0037FB"/>
<path d="M15 515C15 516.105 14.1046 517 13 517C11.8954 517 11 516.105 11 515C11 513.895 11.8954 513 13 513C14.1046 513 15 513.895 15 515Z" fill="#0037FB"/>
<path d="M42 515C42 516.105 41.1046 517 40 517C38.8954 517 38 516.105 38 515C38 513.895 38.8954 513 40 513C41.1046 513 42 513.895 42 515Z" fill="#0037FB"/>
<path d="M69 515C69 516.105 68.1046 517 67 517C65.8954 517 65 516.105 65 515C65 513.895 65.8954 513 67 513C68.1046 513 69 513.895 69 515Z" fill="#0037FB"/>
<path d="M96 515C96 516.105 95.1046 517 94 517C92.8954 517 92 516.105 92 515C92 513.895 92.8954 513 94 513C95.1046 513 96 513.895 96 515Z" fill="#0037FB"/>
<path d="M123 515C123 516.105 122.105 517 121 517C119.895 517 119 516.105 119 515C119 513.895 119.895 513 121 513C122.105 513 123 513.895 123 515Z" fill="#0037FB"/>
<path d="M150 515C150 516.105 149.105 517 148 517C146.895 517 146 516.105 146 515C146 513.895 146.895 513 148 513C149.105 513 150 513.895 150 515Z" fill="#0037FB"/>
<path d="M177 515C177 516.105 176.105 517 175 517C173.895 517 173 516.105 173 515C173 513.895 173.895 513 175 513C176.105 513 177 513.895 177 515Z" fill="#0037FB"/>
<path d="M204 515C204 516.105 203.105 517 202 517C200.895 517 200 516.105 200 515C200 513.895 200.895 513 202 513C203.105 513 204 513.895 204 515Z" fill="#0037FB"/>
<path d="M231 515C231 516.105 230.105 517 229 517C227.895 517 227 516.105 227 515C227 513.895 227.895 513 229 513C230.105 513 231 513.895 231 515Z" fill="#0037FB"/>
<path d="M258 515C258 516.105 257.105 517 256 517C254.895 517 254 516.105 254 515C254 513.895 254.895 513 256 513C257.105 513 258 513.895 258 515Z" fill="#0037FB"/>
</svg>
