<svg width="109" height="44" viewBox="0 0 109 44" fill="none" xmlns="http://www.w3.org/2000/svg">
<path d="M11.0114 28V16.3636H15.6023C16.4811 16.3636 17.2311 16.5208 17.8523 16.8352C18.4773 17.1458 18.9527 17.5871 19.2784 18.1591C19.608 18.7273 19.7727 19.3958 19.7727 20.1648C19.7727 20.9375 19.6061 21.6023 19.2727 22.1591C18.9394 22.7121 18.4564 23.1364 17.8239 23.4318C17.1951 23.7273 16.4337 23.875 15.5398 23.875H12.4659V21.8977H15.142C15.6117 21.8977 16.0019 21.8333 16.3125 21.7045C16.6231 21.5758 16.8542 21.3826 17.0057 21.125C17.161 20.8674 17.2386 20.5473 17.2386 20.1648C17.2386 19.7784 17.161 19.4527 17.0057 19.1875C16.8542 18.9223 16.6212 18.7216 16.3068 18.5852C15.9962 18.4451 15.6042 18.375 15.1307 18.375H13.4716V28H11.0114ZM17.2955 22.7045L20.1875 28H17.4716L14.642 22.7045H17.2955ZM25.3026 28.1705C24.4048 28.1705 23.6321 27.9886 22.9844 27.625C22.3404 27.2576 21.8442 26.7386 21.4957 26.0682C21.1473 25.3939 20.973 24.5966 20.973 23.6761C20.973 22.7784 21.1473 21.9905 21.4957 21.3125C21.8442 20.6345 22.3348 20.1061 22.9673 19.7273C23.6037 19.3485 24.3499 19.1591 25.206 19.1591C25.7817 19.1591 26.3177 19.2519 26.8139 19.4375C27.3139 19.6193 27.7495 19.8939 28.1207 20.2614C28.4957 20.6288 28.7874 21.0909 28.9957 21.6477C29.2041 22.2008 29.3082 22.8485 29.3082 23.5909V24.2557H21.9389V22.7557H27.0298C27.0298 22.4072 26.9541 22.0985 26.8026 21.8295C26.651 21.5606 26.4408 21.3504 26.1719 21.1989C25.9067 21.0436 25.598 20.9659 25.2457 20.9659C24.8783 20.9659 24.5526 21.0511 24.2685 21.2216C23.9882 21.3883 23.7685 21.6136 23.6094 21.8977C23.4503 22.178 23.3688 22.4905 23.3651 22.8352V24.2614C23.3651 24.6932 23.4446 25.0663 23.6037 25.3807C23.7666 25.6951 23.9957 25.9375 24.2912 26.108C24.5866 26.2784 24.937 26.3636 25.3423 26.3636C25.6113 26.3636 25.8575 26.3258 26.081 26.25C26.3045 26.1742 26.4957 26.0606 26.6548 25.9091C26.8139 25.7576 26.9351 25.572 27.0185 25.3523L29.2571 25.5C29.1435 26.0379 28.9105 26.5076 28.5582 26.9091C28.2098 27.3068 27.759 27.6174 27.206 27.8409C26.6567 28.0606 26.0223 28.1705 25.3026 28.1705ZM30.8878 28V19.2727H33.1946V20.8125H33.2969C33.4787 20.3011 33.7817 19.8977 34.206 19.6023C34.6302 19.3068 35.1378 19.1591 35.7287 19.1591C36.3272 19.1591 36.8366 19.3087 37.2571 19.608C37.6776 19.9034 37.9579 20.3049 38.098 20.8125H38.1889C38.367 20.3125 38.6889 19.9129 39.1548 19.6136C39.6245 19.3106 40.1795 19.1591 40.8196 19.1591C41.634 19.1591 42.295 19.4186 42.8026 19.9375C43.3139 20.4527 43.5696 21.1837 43.5696 22.1307V28H41.1548V22.608C41.1548 22.1231 41.026 21.7595 40.7685 21.517C40.5109 21.2746 40.1889 21.1534 39.8026 21.1534C39.3632 21.1534 39.0204 21.2936 38.7741 21.5739C38.5279 21.8504 38.4048 22.2159 38.4048 22.6705V28H36.0582V22.5568C36.0582 22.1288 35.9351 21.7879 35.6889 21.5341C35.4465 21.2803 35.1264 21.1534 34.7287 21.1534C34.4598 21.1534 34.2173 21.2216 34.0014 21.358C33.7893 21.4905 33.6207 21.678 33.4957 21.9205C33.3707 22.1591 33.3082 22.4394 33.3082 22.7614V28H30.8878ZM49.4247 28.1705C48.5421 28.1705 47.7789 27.983 47.1349 27.608C46.4948 27.2292 46.0005 26.7027 45.652 26.0284C45.3035 25.3504 45.1293 24.5644 45.1293 23.6705C45.1293 22.7689 45.3035 21.9811 45.652 21.3068C46.0005 20.6288 46.4948 20.1023 47.1349 19.7273C47.7789 19.3485 48.5421 19.1591 49.4247 19.1591C50.3073 19.1591 51.0687 19.3485 51.7088 19.7273C52.3527 20.1023 52.849 20.6288 53.1974 21.3068C53.5459 21.9811 53.7202 22.7689 53.7202 23.6705C53.7202 24.5644 53.5459 25.3504 53.1974 26.0284C52.849 26.7027 52.3527 27.2292 51.7088 27.608C51.0687 27.983 50.3073 28.1705 49.4247 28.1705ZM49.4361 26.2955C49.8376 26.2955 50.1728 26.1818 50.4418 25.9545C50.7107 25.7235 50.9134 25.4091 51.0497 25.0114C51.1899 24.6136 51.2599 24.161 51.2599 23.6534C51.2599 23.1458 51.1899 22.6932 51.0497 22.2955C50.9134 21.8977 50.7107 21.5833 50.4418 21.3523C50.1728 21.1212 49.8376 21.0057 49.4361 21.0057C49.0308 21.0057 48.6899 21.1212 48.4134 21.3523C48.1406 21.5833 47.9342 21.8977 47.794 22.2955C47.6577 22.6932 47.5895 23.1458 47.5895 23.6534C47.5895 24.161 47.6577 24.6136 47.794 25.0114C47.9342 25.4091 48.1406 25.7235 48.4134 25.9545C48.6899 26.1818 49.0308 26.2955 49.4361 26.2955ZM55.3395 28V16.3636H59.9986C60.8546 16.3636 61.5687 16.4905 62.1406 16.7443C62.7126 16.9981 63.1425 17.3504 63.4304 17.8011C63.7183 18.2481 63.8622 18.7633 63.8622 19.3466C63.8622 19.8011 63.7713 20.2008 63.5895 20.5455C63.4077 20.8864 63.1577 21.1667 62.8395 21.3864C62.5251 21.6023 62.1652 21.7557 61.7599 21.8466V21.9602C62.2031 21.9792 62.6179 22.1042 63.0043 22.3352C63.3944 22.5663 63.7107 22.8902 63.9531 23.3068C64.1955 23.7197 64.3168 24.2121 64.3168 24.7841C64.3168 25.4015 64.1634 25.9527 63.8565 26.4375C63.5535 26.9186 63.1046 27.2992 62.5099 27.5795C61.9152 27.8598 61.1823 28 60.3111 28H55.3395ZM57.7997 25.9886H59.8054C60.491 25.9886 60.991 25.858 61.3054 25.5966C61.6198 25.3314 61.777 24.9792 61.777 24.5398C61.777 24.2178 61.6993 23.9337 61.544 23.6875C61.3887 23.4413 61.1671 23.2481 60.8793 23.108C60.5952 22.9678 60.2562 22.8977 59.8622 22.8977H57.7997V25.9886ZM57.7997 21.233H59.6236C59.9607 21.233 60.2599 21.1742 60.5213 21.0568C60.7865 20.9356 60.9948 20.7652 61.1463 20.5455C61.3016 20.3258 61.3793 20.0625 61.3793 19.7557C61.3793 19.3352 61.2296 18.9962 60.9304 18.7386C60.6349 18.4811 60.2145 18.3523 59.669 18.3523H57.7997V21.233ZM69.8153 28.1705C68.9328 28.1705 68.1695 27.983 67.5256 27.608C66.8854 27.2292 66.3911 26.7027 66.0426 26.0284C65.6941 25.3504 65.5199 24.5644 65.5199 23.6705C65.5199 22.7689 65.6941 21.9811 66.0426 21.3068C66.3911 20.6288 66.8854 20.1023 67.5256 19.7273C68.1695 19.3485 68.9328 19.1591 69.8153 19.1591C70.6979 19.1591 71.4593 19.3485 72.0994 19.7273C72.7434 20.1023 73.2396 20.6288 73.5881 21.3068C73.9366 21.9811 74.1108 22.7689 74.1108 23.6705C74.1108 24.5644 73.9366 25.3504 73.5881 26.0284C73.2396 26.7027 72.7434 27.2292 72.0994 27.608C71.4593 27.983 70.6979 28.1705 69.8153 28.1705ZM69.8267 26.2955C70.2282 26.2955 70.5634 26.1818 70.8324 25.9545C71.1013 25.7235 71.304 25.4091 71.4403 25.0114C71.5805 24.6136 71.6506 24.161 71.6506 23.6534C71.6506 23.1458 71.5805 22.6932 71.4403 22.2955C71.304 21.8977 71.1013 21.5833 70.8324 21.3523C70.5634 21.1212 70.2282 21.0057 69.8267 21.0057C69.4214 21.0057 69.0805 21.1212 68.804 21.3523C68.5313 21.5833 68.3248 21.8977 68.1847 22.2955C68.0483 22.6932 67.9801 23.1458 67.9801 23.6534C67.9801 24.161 68.0483 24.6136 68.1847 25.0114C68.3248 25.4091 68.5313 25.7235 68.804 25.9545C69.0805 26.1818 69.4214 26.2955 69.8267 26.2955ZM78.1733 28.1648C77.6165 28.1648 77.1203 28.0682 76.6847 27.875C76.2491 27.678 75.9044 27.3883 75.6506 27.0057C75.4006 26.6193 75.2756 26.1383 75.2756 25.5625C75.2756 25.0777 75.3646 24.6705 75.5426 24.3409C75.7206 24.0114 75.9631 23.7462 76.2699 23.5455C76.5767 23.3447 76.9252 23.1932 77.3153 23.0909C77.7093 22.9886 78.1222 22.9167 78.554 22.875C79.0616 22.822 79.4706 22.7727 79.7812 22.7273C80.0919 22.678 80.3172 22.6061 80.4574 22.5114C80.5975 22.4167 80.6676 22.2765 80.6676 22.0909V22.0568C80.6676 21.697 80.554 21.4186 80.3267 21.2216C80.1032 21.0246 79.785 20.9261 79.3722 20.9261C78.9366 20.9261 78.59 21.0227 78.3324 21.2159C78.0748 21.4053 77.9044 21.6439 77.821 21.9318L75.5824 21.75C75.696 21.2197 75.9195 20.7614 76.2528 20.375C76.5862 19.9848 77.0161 19.6856 77.5426 19.4773C78.0729 19.2652 78.6866 19.1591 79.3835 19.1591C79.8684 19.1591 80.3324 19.2159 80.7756 19.3295C81.2225 19.4432 81.6184 19.6193 81.9631 19.858C82.3116 20.0966 82.5862 20.4034 82.7869 20.7784C82.9877 21.1496 83.0881 21.5947 83.0881 22.1136V28H80.7926V26.7898H80.7244C80.5843 27.0625 80.3968 27.303 80.1619 27.5114C79.9271 27.7159 79.6449 27.8769 79.3153 27.9943C78.9858 28.108 78.6051 28.1648 78.1733 28.1648ZM78.8665 26.4943C79.2225 26.4943 79.5369 26.4242 79.8097 26.2841C80.0824 26.1402 80.2964 25.947 80.4517 25.7045C80.607 25.4621 80.6847 25.1875 80.6847 24.8807V23.9545C80.6089 24.0038 80.5047 24.0492 80.3722 24.0909C80.2434 24.1288 80.0975 24.1648 79.9347 24.1989C79.7718 24.2292 79.6089 24.2576 79.446 24.2841C79.2831 24.3068 79.1354 24.3277 79.0028 24.3466C78.7188 24.3883 78.4706 24.4545 78.2585 24.5455C78.0464 24.6364 77.8816 24.7595 77.7642 24.9148C77.6468 25.0663 77.5881 25.2557 77.5881 25.483C77.5881 25.8125 77.7074 26.0644 77.946 26.2386C78.1884 26.4091 78.4953 26.4943 78.8665 26.4943ZM84.9659 28V19.2727H87.3125V20.7955H87.4034C87.5625 20.2538 87.8295 19.8447 88.2045 19.5682C88.5795 19.2879 89.0114 19.1477 89.5 19.1477C89.6212 19.1477 89.7519 19.1553 89.892 19.1705C90.0322 19.1856 90.1553 19.2064 90.2614 19.233V21.3807C90.1477 21.3466 89.9905 21.3163 89.7898 21.2898C89.589 21.2633 89.4053 21.25 89.2386 21.25C88.8826 21.25 88.5644 21.3277 88.2841 21.483C88.0076 21.6345 87.7879 21.8466 87.625 22.1193C87.4659 22.392 87.3864 22.7064 87.3864 23.0625V28H84.9659ZM94.3224 28.142C93.6596 28.142 93.0592 27.9716 92.5213 27.6307C91.9872 27.286 91.563 26.7803 91.2486 26.1136C90.938 25.4432 90.7827 24.6212 90.7827 23.6477C90.7827 22.6477 90.9437 21.8163 91.2656 21.1534C91.5876 20.4867 92.0156 19.9886 92.5497 19.6591C93.0876 19.3258 93.6766 19.1591 94.3168 19.1591C94.8054 19.1591 95.2126 19.2424 95.5384 19.4091C95.8679 19.572 96.133 19.7765 96.3338 20.0227C96.5384 20.2652 96.6937 20.5038 96.7997 20.7386H96.8736V16.3636H99.2884V28H96.902V26.6023H96.7997C96.6861 26.8447 96.5251 27.0852 96.3168 27.3239C96.1122 27.5587 95.8452 27.7538 95.5156 27.9091C95.1899 28.0644 94.7921 28.142 94.3224 28.142ZM95.0895 26.2159C95.4796 26.2159 95.8092 26.1098 96.0781 25.8977C96.3509 25.6818 96.5592 25.3807 96.7031 24.9943C96.8509 24.608 96.9247 24.1553 96.9247 23.6364C96.9247 23.1174 96.8527 22.6667 96.7088 22.2841C96.5649 21.9015 96.3565 21.6061 96.0838 21.3977C95.8111 21.1894 95.4796 21.0852 95.0895 21.0852C94.6918 21.0852 94.3565 21.1932 94.0838 21.4091C93.8111 21.625 93.6046 21.9242 93.4645 22.3068C93.3243 22.6894 93.2543 23.1326 93.2543 23.6364C93.2543 24.1439 93.3243 24.5928 93.4645 24.983C93.6084 25.3693 93.8149 25.6723 94.0838 25.892C94.3565 26.108 94.6918 26.2159 95.0895 26.2159Z" fill="black"/>
</svg>
