<svg width="28" height="28" viewBox="0 0 28 28" fill="none" xmlns="http://www.w3.org/2000/svg">
<path d="M2.33326 12.8333H22.8503L16.6751 6.65818C16.5637 6.55056 16.4748 6.42182 16.4136 6.27948C16.3525 6.13715 16.3203 5.98406 16.319 5.82915C16.3176 5.67424 16.3471 5.52061 16.4058 5.37723C16.4645 5.23385 16.5511 5.10359 16.6606 4.99405C16.7702 4.88451 16.9004 4.79788 17.0438 4.73922C17.1872 4.68056 17.3408 4.65104 17.4957 4.65239C17.6506 4.65373 17.8037 4.68592 17.9461 4.74706C18.0884 4.80821 18.2171 4.89708 18.3248 5.00851L26.4914 13.1752C26.7101 13.394 26.833 13.6907 26.833 14C26.833 14.3094 26.7101 14.6061 26.4914 14.8248L18.3248 22.9915C18.1047 23.204 17.81 23.3216 17.5041 23.319C17.1982 23.3163 16.9056 23.1936 16.6893 22.9773C16.473 22.761 16.3503 22.4684 16.3476 22.1625C16.345 21.8566 16.4626 21.5619 16.6751 21.3418L22.8503 15.1667H2.33326C2.02384 15.1667 1.72709 15.0438 1.5083 14.825C1.28951 14.6062 1.16659 14.3094 1.16659 14C1.16659 13.6906 1.28951 13.3938 1.5083 13.1751C1.72709 12.9563 2.02384 12.8333 2.33326 12.8333Z" fill="#F4FAFE"/>
</svg>
