<svg width="517" height="324" viewBox="0 0 517 324" fill="none" xmlns="http://www.w3.org/2000/svg">
<path d="M4 2C4 3.10457 3.10457 4 2 4C0.89543 4 0 3.10457 0 2C0 0.89543 0.89543 0 2 0C3.10457 0 4 0.89543 4 2Z" fill="#C5CAD3"/>
<path d="M31 2C31 3.10457 30.1046 4 29 4C27.8954 4 27 3.10457 27 2C27 0.89543 27.8954 0 29 0C30.1046 0 31 0.89543 31 2Z" fill="#C5CAD3"/>
<path d="M58 2C58 3.10457 57.1046 4 56 4C54.8954 4 54 3.10457 54 2C54 0.89543 54.8954 0 56 0C57.1046 0 58 0.89543 58 2Z" fill="#C5CAD3"/>
<path d="M85 2C85 3.10457 84.1046 4 83 4C81.8954 4 81 3.10457 81 2C81 0.89543 81.8954 0 83 0C84.1046 0 85 0.89543 85 2Z" fill="#C5CAD3"/>
<path d="M112 2C112 3.10457 111.105 4 110 4C108.895 4 108 3.10457 108 2C108 0.89543 108.895 0 110 0C111.105 0 112 0.89543 112 2Z" fill="#C5CAD3"/>
<path d="M139 2C139 3.10457 138.105 4 137 4C135.895 4 135 3.10457 135 2C135 0.89543 135.895 0 137 0C138.105 0 139 0.89543 139 2Z" fill="#C5CAD3"/>
<path d="M166 2C166 3.10457 165.105 4 164 4C162.895 4 162 3.10457 162 2C162 0.89543 162.895 0 164 0C165.105 0 166 0.89543 166 2Z" fill="#C5CAD3"/>
<path d="M193 2C193 3.10457 192.105 4 191 4C189.895 4 189 3.10457 189 2C189 0.89543 189.895 0 191 0C192.105 0 193 0.89543 193 2Z" fill="#C5CAD3"/>
<path d="M220 2C220 3.10457 219.105 4 218 4C216.895 4 216 3.10457 216 2C216 0.89543 216.895 0 218 0C219.105 0 220 0.89543 220 2Z" fill="#C5CAD3"/>
<path d="M247 2C247 3.10457 246.105 4 245 4C243.895 4 243 3.10457 243 2C243 0.89543 243.895 0 245 0C246.105 0 247 0.89543 247 2Z" fill="#C5CAD3"/>
<path d="M274 2C274 3.10457 273.105 4 272 4C270.895 4 270 3.10457 270 2C270 0.89543 270.895 0 272 0C273.105 0 274 0.89543 274 2Z" fill="#C5CAD3"/>
<path d="M301 2C301 3.10457 300.105 4 299 4C297.895 4 297 3.10457 297 2C297 0.89543 297.895 0 299 0C300.105 0 301 0.89543 301 2Z" fill="#C5CAD3"/>
<path d="M328 2C328 3.10457 327.105 4 326 4C324.895 4 324 3.10457 324 2C324 0.89543 324.895 0 326 0C327.105 0 328 0.89543 328 2Z" fill="#C5CAD3"/>
<path d="M355 2C355 3.10457 354.105 4 353 4C351.895 4 351 3.10457 351 2C351 0.89543 351.895 0 353 0C354.105 0 355 0.89543 355 2Z" fill="#C5CAD3"/>
<path d="M382 2C382 3.10457 381.105 4 380 4C378.895 4 378 3.10457 378 2C378 0.89543 378.895 0 380 0C381.105 0 382 0.89543 382 2Z" fill="#C5CAD3"/>
<path d="M409 2C409 3.10457 408.105 4 407 4C405.895 4 405 3.10457 405 2C405 0.89543 405.895 0 407 0C408.105 0 409 0.89543 409 2Z" fill="#C5CAD3"/>
<path d="M436 2C436 3.10457 435.105 4 434 4C432.895 4 432 3.10457 432 2C432 0.89543 432.895 0 434 0C435.105 0 436 0.89543 436 2Z" fill="#C5CAD3"/>
<path d="M463 2C463 3.10457 462.105 4 461 4C459.895 4 459 3.10457 459 2C459 0.89543 459.895 0 461 0C462.105 0 463 0.89543 463 2Z" fill="#C5CAD3"/>
<path d="M490 2C490 3.10457 489.105 4 488 4C486.895 4 486 3.10457 486 2C486 0.89543 486.895 0 488 0C489.105 0 490 0.89543 490 2Z" fill="#C5CAD3"/>
<path d="M517 2C517 3.10457 516.105 4 515 4C513.895 4 513 3.10457 513 2C513 0.89543 513.895 0 515 0C516.105 0 517 0.89543 517 2Z" fill="#C5CAD3"/>
<path d="M4 29C4 30.1046 3.10457 31 2 31C0.89543 31 0 30.1046 0 29C0 27.8954 0.89543 27 2 27C3.10457 27 4 27.8954 4 29Z" fill="#C5CAD3"/>
<path d="M31 29C31 30.1046 30.1046 31 29 31C27.8954 31 27 30.1046 27 29C27 27.8954 27.8954 27 29 27C30.1046 27 31 27.8954 31 29Z" fill="#C5CAD3"/>
<path d="M58 29C58 30.1046 57.1046 31 56 31C54.8954 31 54 30.1046 54 29C54 27.8954 54.8954 27 56 27C57.1046 27 58 27.8954 58 29Z" fill="#C5CAD3"/>
<path d="M85 29C85 30.1046 84.1046 31 83 31C81.8954 31 81 30.1046 81 29C81 27.8954 81.8954 27 83 27C84.1046 27 85 27.8954 85 29Z" fill="#C5CAD3"/>
<path d="M112 29C112 30.1046 111.105 31 110 31C108.895 31 108 30.1046 108 29C108 27.8954 108.895 27 110 27C111.105 27 112 27.8954 112 29Z" fill="#C5CAD3"/>
<path d="M139 29C139 30.1046 138.105 31 137 31C135.895 31 135 30.1046 135 29C135 27.8954 135.895 27 137 27C138.105 27 139 27.8954 139 29Z" fill="#C5CAD3"/>
<path d="M166 29C166 30.1046 165.105 31 164 31C162.895 31 162 30.1046 162 29C162 27.8954 162.895 27 164 27C165.105 27 166 27.8954 166 29Z" fill="#C5CAD3"/>
<path d="M193 29C193 30.1046 192.105 31 191 31C189.895 31 189 30.1046 189 29C189 27.8954 189.895 27 191 27C192.105 27 193 27.8954 193 29Z" fill="#C5CAD3"/>
<path d="M220 29C220 30.1046 219.105 31 218 31C216.895 31 216 30.1046 216 29C216 27.8954 216.895 27 218 27C219.105 27 220 27.8954 220 29Z" fill="#C5CAD3"/>
<path d="M247 29C247 30.1046 246.105 31 245 31C243.895 31 243 30.1046 243 29C243 27.8954 243.895 27 245 27C246.105 27 247 27.8954 247 29Z" fill="#C5CAD3"/>
<path d="M274 29C274 30.1046 273.105 31 272 31C270.895 31 270 30.1046 270 29C270 27.8954 270.895 27 272 27C273.105 27 274 27.8954 274 29Z" fill="#C5CAD3"/>
<path d="M301 29C301 30.1046 300.105 31 299 31C297.895 31 297 30.1046 297 29C297 27.8954 297.895 27 299 27C300.105 27 301 27.8954 301 29Z" fill="#C5CAD3"/>
<path d="M328 29C328 30.1046 327.105 31 326 31C324.895 31 324 30.1046 324 29C324 27.8954 324.895 27 326 27C327.105 27 328 27.8954 328 29Z" fill="#C5CAD3"/>
<path d="M355 29C355 30.1046 354.105 31 353 31C351.895 31 351 30.1046 351 29C351 27.8954 351.895 27 353 27C354.105 27 355 27.8954 355 29Z" fill="#C5CAD3"/>
<path d="M382 29C382 30.1046 381.105 31 380 31C378.895 31 378 30.1046 378 29C378 27.8954 378.895 27 380 27C381.105 27 382 27.8954 382 29Z" fill="#C5CAD3"/>
<path d="M409 29C409 30.1046 408.105 31 407 31C405.895 31 405 30.1046 405 29C405 27.8954 405.895 27 407 27C408.105 27 409 27.8954 409 29Z" fill="#C5CAD3"/>
<path d="M436 29C436 30.1046 435.105 31 434 31C432.895 31 432 30.1046 432 29C432 27.8954 432.895 27 434 27C435.105 27 436 27.8954 436 29Z" fill="#C5CAD3"/>
<path d="M463 29C463 30.1046 462.105 31 461 31C459.895 31 459 30.1046 459 29C459 27.8954 459.895 27 461 27C462.105 27 463 27.8954 463 29Z" fill="#C5CAD3"/>
<path d="M490 29C490 30.1046 489.105 31 488 31C486.895 31 486 30.1046 486 29C486 27.8954 486.895 27 488 27C489.105 27 490 27.8954 490 29Z" fill="#C5CAD3"/>
<path d="M517 29C517 30.1046 516.105 31 515 31C513.895 31 513 30.1046 513 29C513 27.8954 513.895 27 515 27C516.105 27 517 27.8954 517 29Z" fill="#C5CAD3"/>
<path d="M4 56C4 57.1046 3.10457 58 2 58C0.89543 58 0 57.1046 0 56C0 54.8954 0.89543 54 2 54C3.10457 54 4 54.8954 4 56Z" fill="#C5CAD3"/>
<path d="M31 56C31 57.1046 30.1046 58 29 58C27.8954 58 27 57.1046 27 56C27 54.8954 27.8954 54 29 54C30.1046 54 31 54.8954 31 56Z" fill="#C5CAD3"/>
<path d="M58 56C58 57.1046 57.1046 58 56 58C54.8954 58 54 57.1046 54 56C54 54.8954 54.8954 54 56 54C57.1046 54 58 54.8954 58 56Z" fill="#C5CAD3"/>
<path d="M85 56C85 57.1046 84.1046 58 83 58C81.8954 58 81 57.1046 81 56C81 54.8954 81.8954 54 83 54C84.1046 54 85 54.8954 85 56Z" fill="#C5CAD3"/>
<path d="M112 56C112 57.1046 111.105 58 110 58C108.895 58 108 57.1046 108 56C108 54.8954 108.895 54 110 54C111.105 54 112 54.8954 112 56Z" fill="#C5CAD3"/>
<path d="M139 56C139 57.1046 138.105 58 137 58C135.895 58 135 57.1046 135 56C135 54.8954 135.895 54 137 54C138.105 54 139 54.8954 139 56Z" fill="#C5CAD3"/>
<path d="M166 56C166 57.1046 165.105 58 164 58C162.895 58 162 57.1046 162 56C162 54.8954 162.895 54 164 54C165.105 54 166 54.8954 166 56Z" fill="#C5CAD3"/>
<path d="M193 56C193 57.1046 192.105 58 191 58C189.895 58 189 57.1046 189 56C189 54.8954 189.895 54 191 54C192.105 54 193 54.8954 193 56Z" fill="#C5CAD3"/>
<path d="M220 56C220 57.1046 219.105 58 218 58C216.895 58 216 57.1046 216 56C216 54.8954 216.895 54 218 54C219.105 54 220 54.8954 220 56Z" fill="#C5CAD3"/>
<path d="M247 56C247 57.1046 246.105 58 245 58C243.895 58 243 57.1046 243 56C243 54.8954 243.895 54 245 54C246.105 54 247 54.8954 247 56Z" fill="#C5CAD3"/>
<path d="M274 56C274 57.1046 273.105 58 272 58C270.895 58 270 57.1046 270 56C270 54.8954 270.895 54 272 54C273.105 54 274 54.8954 274 56Z" fill="#C5CAD3"/>
<path d="M301 56C301 57.1046 300.105 58 299 58C297.895 58 297 57.1046 297 56C297 54.8954 297.895 54 299 54C300.105 54 301 54.8954 301 56Z" fill="#C5CAD3"/>
<path d="M328 56C328 57.1046 327.105 58 326 58C324.895 58 324 57.1046 324 56C324 54.8954 324.895 54 326 54C327.105 54 328 54.8954 328 56Z" fill="#C5CAD3"/>
<path d="M355 56C355 57.1046 354.105 58 353 58C351.895 58 351 57.1046 351 56C351 54.8954 351.895 54 353 54C354.105 54 355 54.8954 355 56Z" fill="#C5CAD3"/>
<path d="M382 56C382 57.1046 381.105 58 380 58C378.895 58 378 57.1046 378 56C378 54.8954 378.895 54 380 54C381.105 54 382 54.8954 382 56Z" fill="#C5CAD3"/>
<path d="M409 56C409 57.1046 408.105 58 407 58C405.895 58 405 57.1046 405 56C405 54.8954 405.895 54 407 54C408.105 54 409 54.8954 409 56Z" fill="#C5CAD3"/>
<path d="M436 56C436 57.1046 435.105 58 434 58C432.895 58 432 57.1046 432 56C432 54.8954 432.895 54 434 54C435.105 54 436 54.8954 436 56Z" fill="#C5CAD3"/>
<path d="M463 56C463 57.1046 462.105 58 461 58C459.895 58 459 57.1046 459 56C459 54.8954 459.895 54 461 54C462.105 54 463 54.8954 463 56Z" fill="#C5CAD3"/>
<path d="M490 56C490 57.1046 489.105 58 488 58C486.895 58 486 57.1046 486 56C486 54.8954 486.895 54 488 54C489.105 54 490 54.8954 490 56Z" fill="#C5CAD3"/>
<path d="M517 56C517 57.1046 516.105 58 515 58C513.895 58 513 57.1046 513 56C513 54.8954 513.895 54 515 54C516.105 54 517 54.8954 517 56Z" fill="#C5CAD3"/>
<path d="M4 83C4 84.1046 3.10457 85 2 85C0.89543 85 0 84.1046 0 83C0 81.8954 0.89543 81 2 81C3.10457 81 4 81.8954 4 83Z" fill="#C5CAD3"/>
<path d="M31 83C31 84.1046 30.1046 85 29 85C27.8954 85 27 84.1046 27 83C27 81.8954 27.8954 81 29 81C30.1046 81 31 81.8954 31 83Z" fill="#C5CAD3"/>
<path d="M58 83C58 84.1046 57.1046 85 56 85C54.8954 85 54 84.1046 54 83C54 81.8954 54.8954 81 56 81C57.1046 81 58 81.8954 58 83Z" fill="#C5CAD3"/>
<path d="M85 83C85 84.1046 84.1046 85 83 85C81.8954 85 81 84.1046 81 83C81 81.8954 81.8954 81 83 81C84.1046 81 85 81.8954 85 83Z" fill="#C5CAD3"/>
<path d="M112 83C112 84.1046 111.105 85 110 85C108.895 85 108 84.1046 108 83C108 81.8954 108.895 81 110 81C111.105 81 112 81.8954 112 83Z" fill="#C5CAD3"/>
<path d="M139 83C139 84.1046 138.105 85 137 85C135.895 85 135 84.1046 135 83C135 81.8954 135.895 81 137 81C138.105 81 139 81.8954 139 83Z" fill="#C5CAD3"/>
<path d="M166 83C166 84.1046 165.105 85 164 85C162.895 85 162 84.1046 162 83C162 81.8954 162.895 81 164 81C165.105 81 166 81.8954 166 83Z" fill="#C5CAD3"/>
<path d="M193 83C193 84.1046 192.105 85 191 85C189.895 85 189 84.1046 189 83C189 81.8954 189.895 81 191 81C192.105 81 193 81.8954 193 83Z" fill="#C5CAD3"/>
<path d="M220 83C220 84.1046 219.105 85 218 85C216.895 85 216 84.1046 216 83C216 81.8954 216.895 81 218 81C219.105 81 220 81.8954 220 83Z" fill="#C5CAD3"/>
<path d="M247 83C247 84.1046 246.105 85 245 85C243.895 85 243 84.1046 243 83C243 81.8954 243.895 81 245 81C246.105 81 247 81.8954 247 83Z" fill="#C5CAD3"/>
<path d="M274 83C274 84.1046 273.105 85 272 85C270.895 85 270 84.1046 270 83C270 81.8954 270.895 81 272 81C273.105 81 274 81.8954 274 83Z" fill="#C5CAD3"/>
<path d="M301 83C301 84.1046 300.105 85 299 85C297.895 85 297 84.1046 297 83C297 81.8954 297.895 81 299 81C300.105 81 301 81.8954 301 83Z" fill="#C5CAD3"/>
<path d="M328 83C328 84.1046 327.105 85 326 85C324.895 85 324 84.1046 324 83C324 81.8954 324.895 81 326 81C327.105 81 328 81.8954 328 83Z" fill="#C5CAD3"/>
<path d="M355 83C355 84.1046 354.105 85 353 85C351.895 85 351 84.1046 351 83C351 81.8954 351.895 81 353 81C354.105 81 355 81.8954 355 83Z" fill="#C5CAD3"/>
<path d="M382 83C382 84.1046 381.105 85 380 85C378.895 85 378 84.1046 378 83C378 81.8954 378.895 81 380 81C381.105 81 382 81.8954 382 83Z" fill="#C5CAD3"/>
<path d="M409 83C409 84.1046 408.105 85 407 85C405.895 85 405 84.1046 405 83C405 81.8954 405.895 81 407 81C408.105 81 409 81.8954 409 83Z" fill="#C5CAD3"/>
<path d="M436 83C436 84.1046 435.105 85 434 85C432.895 85 432 84.1046 432 83C432 81.8954 432.895 81 434 81C435.105 81 436 81.8954 436 83Z" fill="#C5CAD3"/>
<path d="M463 83C463 84.1046 462.105 85 461 85C459.895 85 459 84.1046 459 83C459 81.8954 459.895 81 461 81C462.105 81 463 81.8954 463 83Z" fill="#C5CAD3"/>
<path d="M490 83C490 84.1046 489.105 85 488 85C486.895 85 486 84.1046 486 83C486 81.8954 486.895 81 488 81C489.105 81 490 81.8954 490 83Z" fill="#C5CAD3"/>
<path d="M517 83C517 84.1046 516.105 85 515 85C513.895 85 513 84.1046 513 83C513 81.8954 513.895 81 515 81C516.105 81 517 81.8954 517 83Z" fill="#C5CAD3"/>
<path d="M4 110C4 111.105 3.10457 112 2 112C0.89543 112 0 111.105 0 110C0 108.895 0.89543 108 2 108C3.10457 108 4 108.895 4 110Z" fill="#C5CAD3"/>
<path d="M31 110C31 111.105 30.1046 112 29 112C27.8954 112 27 111.105 27 110C27 108.895 27.8954 108 29 108C30.1046 108 31 108.895 31 110Z" fill="#C5CAD3"/>
<path d="M58 110C58 111.105 57.1046 112 56 112C54.8954 112 54 111.105 54 110C54 108.895 54.8954 108 56 108C57.1046 108 58 108.895 58 110Z" fill="#C5CAD3"/>
<path d="M85 110C85 111.105 84.1046 112 83 112C81.8954 112 81 111.105 81 110C81 108.895 81.8954 108 83 108C84.1046 108 85 108.895 85 110Z" fill="#C5CAD3"/>
<path d="M112 110C112 111.105 111.105 112 110 112C108.895 112 108 111.105 108 110C108 108.895 108.895 108 110 108C111.105 108 112 108.895 112 110Z" fill="#C5CAD3"/>
<path d="M139 110C139 111.105 138.105 112 137 112C135.895 112 135 111.105 135 110C135 108.895 135.895 108 137 108C138.105 108 139 108.895 139 110Z" fill="#C5CAD3"/>
<path d="M166 110C166 111.105 165.105 112 164 112C162.895 112 162 111.105 162 110C162 108.895 162.895 108 164 108C165.105 108 166 108.895 166 110Z" fill="#C5CAD3"/>
<path d="M193 110C193 111.105 192.105 112 191 112C189.895 112 189 111.105 189 110C189 108.895 189.895 108 191 108C192.105 108 193 108.895 193 110Z" fill="#C5CAD3"/>
<path d="M220 110C220 111.105 219.105 112 218 112C216.895 112 216 111.105 216 110C216 108.895 216.895 108 218 108C219.105 108 220 108.895 220 110Z" fill="#C5CAD3"/>
<path d="M247 110C247 111.105 246.105 112 245 112C243.895 112 243 111.105 243 110C243 108.895 243.895 108 245 108C246.105 108 247 108.895 247 110Z" fill="#C5CAD3"/>
<path d="M274 110C274 111.105 273.105 112 272 112C270.895 112 270 111.105 270 110C270 108.895 270.895 108 272 108C273.105 108 274 108.895 274 110Z" fill="#C5CAD3"/>
<path d="M301 110C301 111.105 300.105 112 299 112C297.895 112 297 111.105 297 110C297 108.895 297.895 108 299 108C300.105 108 301 108.895 301 110Z" fill="#C5CAD3"/>
<path d="M328 110C328 111.105 327.105 112 326 112C324.895 112 324 111.105 324 110C324 108.895 324.895 108 326 108C327.105 108 328 108.895 328 110Z" fill="#C5CAD3"/>
<path d="M355 110C355 111.105 354.105 112 353 112C351.895 112 351 111.105 351 110C351 108.895 351.895 108 353 108C354.105 108 355 108.895 355 110Z" fill="#C5CAD3"/>
<path d="M382 110C382 111.105 381.105 112 380 112C378.895 112 378 111.105 378 110C378 108.895 378.895 108 380 108C381.105 108 382 108.895 382 110Z" fill="#C5CAD3"/>
<path d="M409 110C409 111.105 408.105 112 407 112C405.895 112 405 111.105 405 110C405 108.895 405.895 108 407 108C408.105 108 409 108.895 409 110Z" fill="#C5CAD3"/>
<path d="M436 110C436 111.105 435.105 112 434 112C432.895 112 432 111.105 432 110C432 108.895 432.895 108 434 108C435.105 108 436 108.895 436 110Z" fill="#C5CAD3"/>
<path d="M463 110C463 111.105 462.105 112 461 112C459.895 112 459 111.105 459 110C459 108.895 459.895 108 461 108C462.105 108 463 108.895 463 110Z" fill="#C5CAD3"/>
<path d="M490 110C490 111.105 489.105 112 488 112C486.895 112 486 111.105 486 110C486 108.895 486.895 108 488 108C489.105 108 490 108.895 490 110Z" fill="#C5CAD3"/>
<path d="M517 110C517 111.105 516.105 112 515 112C513.895 112 513 111.105 513 110C513 108.895 513.895 108 515 108C516.105 108 517 108.895 517 110Z" fill="#C5CAD3"/>
<path d="M4 137C4 138.105 3.10457 139 2 139C0.89543 139 0 138.105 0 137C0 135.895 0.89543 135 2 135C3.10457 135 4 135.895 4 137Z" fill="#C5CAD3"/>
<path d="M31 137C31 138.105 30.1046 139 29 139C27.8954 139 27 138.105 27 137C27 135.895 27.8954 135 29 135C30.1046 135 31 135.895 31 137Z" fill="#C5CAD3"/>
<path d="M58 137C58 138.105 57.1046 139 56 139C54.8954 139 54 138.105 54 137C54 135.895 54.8954 135 56 135C57.1046 135 58 135.895 58 137Z" fill="#C5CAD3"/>
<path d="M85 137C85 138.105 84.1046 139 83 139C81.8954 139 81 138.105 81 137C81 135.895 81.8954 135 83 135C84.1046 135 85 135.895 85 137Z" fill="#C5CAD3"/>
<path d="M112 137C112 138.105 111.105 139 110 139C108.895 139 108 138.105 108 137C108 135.895 108.895 135 110 135C111.105 135 112 135.895 112 137Z" fill="#C5CAD3"/>
<path d="M139 137C139 138.105 138.105 139 137 139C135.895 139 135 138.105 135 137C135 135.895 135.895 135 137 135C138.105 135 139 135.895 139 137Z" fill="#C5CAD3"/>
<path d="M166 137C166 138.105 165.105 139 164 139C162.895 139 162 138.105 162 137C162 135.895 162.895 135 164 135C165.105 135 166 135.895 166 137Z" fill="#C5CAD3"/>
<path d="M193 137C193 138.105 192.105 139 191 139C189.895 139 189 138.105 189 137C189 135.895 189.895 135 191 135C192.105 135 193 135.895 193 137Z" fill="#C5CAD3"/>
<path d="M220 137C220 138.105 219.105 139 218 139C216.895 139 216 138.105 216 137C216 135.895 216.895 135 218 135C219.105 135 220 135.895 220 137Z" fill="#C5CAD3"/>
<path d="M247 137C247 138.105 246.105 139 245 139C243.895 139 243 138.105 243 137C243 135.895 243.895 135 245 135C246.105 135 247 135.895 247 137Z" fill="#C5CAD3"/>
<path d="M274 137C274 138.105 273.105 139 272 139C270.895 139 270 138.105 270 137C270 135.895 270.895 135 272 135C273.105 135 274 135.895 274 137Z" fill="#C5CAD3"/>
<path d="M301 137C301 138.105 300.105 139 299 139C297.895 139 297 138.105 297 137C297 135.895 297.895 135 299 135C300.105 135 301 135.895 301 137Z" fill="#C5CAD3"/>
<path d="M328 137C328 138.105 327.105 139 326 139C324.895 139 324 138.105 324 137C324 135.895 324.895 135 326 135C327.105 135 328 135.895 328 137Z" fill="#C5CAD3"/>
<path d="M355 137C355 138.105 354.105 139 353 139C351.895 139 351 138.105 351 137C351 135.895 351.895 135 353 135C354.105 135 355 135.895 355 137Z" fill="#C5CAD3"/>
<path d="M382 137C382 138.105 381.105 139 380 139C378.895 139 378 138.105 378 137C378 135.895 378.895 135 380 135C381.105 135 382 135.895 382 137Z" fill="#C5CAD3"/>
<path d="M409 137C409 138.105 408.105 139 407 139C405.895 139 405 138.105 405 137C405 135.895 405.895 135 407 135C408.105 135 409 135.895 409 137Z" fill="#C5CAD3"/>
<path d="M436 137C436 138.105 435.105 139 434 139C432.895 139 432 138.105 432 137C432 135.895 432.895 135 434 135C435.105 135 436 135.895 436 137Z" fill="#C5CAD3"/>
<path d="M463 137C463 138.105 462.105 139 461 139C459.895 139 459 138.105 459 137C459 135.895 459.895 135 461 135C462.105 135 463 135.895 463 137Z" fill="#C5CAD3"/>
<path d="M490 137C490 138.105 489.105 139 488 139C486.895 139 486 138.105 486 137C486 135.895 486.895 135 488 135C489.105 135 490 135.895 490 137Z" fill="#C5CAD3"/>
<path d="M517 137C517 138.105 516.105 139 515 139C513.895 139 513 138.105 513 137C513 135.895 513.895 135 515 135C516.105 135 517 135.895 517 137Z" fill="#C5CAD3"/>
<path d="M4 164C4 165.105 3.10457 166 2 166C0.89543 166 0 165.105 0 164C0 162.895 0.89543 162 2 162C3.10457 162 4 162.895 4 164Z" fill="#C5CAD3"/>
<path d="M31 164C31 165.105 30.1046 166 29 166C27.8954 166 27 165.105 27 164C27 162.895 27.8954 162 29 162C30.1046 162 31 162.895 31 164Z" fill="#C5CAD3"/>
<path d="M58 164C58 165.105 57.1046 166 56 166C54.8954 166 54 165.105 54 164C54 162.895 54.8954 162 56 162C57.1046 162 58 162.895 58 164Z" fill="#C5CAD3"/>
<path d="M85 164C85 165.105 84.1046 166 83 166C81.8954 166 81 165.105 81 164C81 162.895 81.8954 162 83 162C84.1046 162 85 162.895 85 164Z" fill="#C5CAD3"/>
<path d="M112 164C112 165.105 111.105 166 110 166C108.895 166 108 165.105 108 164C108 162.895 108.895 162 110 162C111.105 162 112 162.895 112 164Z" fill="#C5CAD3"/>
<path d="M139 164C139 165.105 138.105 166 137 166C135.895 166 135 165.105 135 164C135 162.895 135.895 162 137 162C138.105 162 139 162.895 139 164Z" fill="#C5CAD3"/>
<path d="M166 164C166 165.105 165.105 166 164 166C162.895 166 162 165.105 162 164C162 162.895 162.895 162 164 162C165.105 162 166 162.895 166 164Z" fill="#C5CAD3"/>
<path d="M193 164C193 165.105 192.105 166 191 166C189.895 166 189 165.105 189 164C189 162.895 189.895 162 191 162C192.105 162 193 162.895 193 164Z" fill="#C5CAD3"/>
<path d="M220 164C220 165.105 219.105 166 218 166C216.895 166 216 165.105 216 164C216 162.895 216.895 162 218 162C219.105 162 220 162.895 220 164Z" fill="#C5CAD3"/>
<path d="M247 164C247 165.105 246.105 166 245 166C243.895 166 243 165.105 243 164C243 162.895 243.895 162 245 162C246.105 162 247 162.895 247 164Z" fill="#C5CAD3"/>
<path d="M274 164C274 165.105 273.105 166 272 166C270.895 166 270 165.105 270 164C270 162.895 270.895 162 272 162C273.105 162 274 162.895 274 164Z" fill="#C5CAD3"/>
<path d="M301 164C301 165.105 300.105 166 299 166C297.895 166 297 165.105 297 164C297 162.895 297.895 162 299 162C300.105 162 301 162.895 301 164Z" fill="#C5CAD3"/>
<path d="M328 164C328 165.105 327.105 166 326 166C324.895 166 324 165.105 324 164C324 162.895 324.895 162 326 162C327.105 162 328 162.895 328 164Z" fill="#C5CAD3"/>
<path d="M355 164C355 165.105 354.105 166 353 166C351.895 166 351 165.105 351 164C351 162.895 351.895 162 353 162C354.105 162 355 162.895 355 164Z" fill="#C5CAD3"/>
<path d="M382 164C382 165.105 381.105 166 380 166C378.895 166 378 165.105 378 164C378 162.895 378.895 162 380 162C381.105 162 382 162.895 382 164Z" fill="#C5CAD3"/>
<path d="M409 164C409 165.105 408.105 166 407 166C405.895 166 405 165.105 405 164C405 162.895 405.895 162 407 162C408.105 162 409 162.895 409 164Z" fill="#C5CAD3"/>
<path d="M436 164C436 165.105 435.105 166 434 166C432.895 166 432 165.105 432 164C432 162.895 432.895 162 434 162C435.105 162 436 162.895 436 164Z" fill="#C5CAD3"/>
<path d="M463 164C463 165.105 462.105 166 461 166C459.895 166 459 165.105 459 164C459 162.895 459.895 162 461 162C462.105 162 463 162.895 463 164Z" fill="#C5CAD3"/>
<path d="M490 164C490 165.105 489.105 166 488 166C486.895 166 486 165.105 486 164C486 162.895 486.895 162 488 162C489.105 162 490 162.895 490 164Z" fill="#C5CAD3"/>
<path d="M517 164C517 165.105 516.105 166 515 166C513.895 166 513 165.105 513 164C513 162.895 513.895 162 515 162C516.105 162 517 162.895 517 164Z" fill="#C5CAD3"/>
<path d="M4 191C4 192.105 3.10457 193 2 193C0.89543 193 0 192.105 0 191C0 189.895 0.89543 189 2 189C3.10457 189 4 189.895 4 191Z" fill="#C5CAD3"/>
<path d="M31 191C31 192.105 30.1046 193 29 193C27.8954 193 27 192.105 27 191C27 189.895 27.8954 189 29 189C30.1046 189 31 189.895 31 191Z" fill="#C5CAD3"/>
<path d="M58 191C58 192.105 57.1046 193 56 193C54.8954 193 54 192.105 54 191C54 189.895 54.8954 189 56 189C57.1046 189 58 189.895 58 191Z" fill="#C5CAD3"/>
<path d="M85 191C85 192.105 84.1046 193 83 193C81.8954 193 81 192.105 81 191C81 189.895 81.8954 189 83 189C84.1046 189 85 189.895 85 191Z" fill="#C5CAD3"/>
<path d="M112 191C112 192.105 111.105 193 110 193C108.895 193 108 192.105 108 191C108 189.895 108.895 189 110 189C111.105 189 112 189.895 112 191Z" fill="#C5CAD3"/>
<path d="M139 191C139 192.105 138.105 193 137 193C135.895 193 135 192.105 135 191C135 189.895 135.895 189 137 189C138.105 189 139 189.895 139 191Z" fill="#C5CAD3"/>
<path d="M166 191C166 192.105 165.105 193 164 193C162.895 193 162 192.105 162 191C162 189.895 162.895 189 164 189C165.105 189 166 189.895 166 191Z" fill="#C5CAD3"/>
<path d="M193 191C193 192.105 192.105 193 191 193C189.895 193 189 192.105 189 191C189 189.895 189.895 189 191 189C192.105 189 193 189.895 193 191Z" fill="#C5CAD3"/>
<path d="M220 191C220 192.105 219.105 193 218 193C216.895 193 216 192.105 216 191C216 189.895 216.895 189 218 189C219.105 189 220 189.895 220 191Z" fill="#C5CAD3"/>
<path d="M247 191C247 192.105 246.105 193 245 193C243.895 193 243 192.105 243 191C243 189.895 243.895 189 245 189C246.105 189 247 189.895 247 191Z" fill="#C5CAD3"/>
<path d="M274 191C274 192.105 273.105 193 272 193C270.895 193 270 192.105 270 191C270 189.895 270.895 189 272 189C273.105 189 274 189.895 274 191Z" fill="#C5CAD3"/>
<path d="M301 191C301 192.105 300.105 193 299 193C297.895 193 297 192.105 297 191C297 189.895 297.895 189 299 189C300.105 189 301 189.895 301 191Z" fill="#C5CAD3"/>
<path d="M328 191C328 192.105 327.105 193 326 193C324.895 193 324 192.105 324 191C324 189.895 324.895 189 326 189C327.105 189 328 189.895 328 191Z" fill="#C5CAD3"/>
<path d="M355 191C355 192.105 354.105 193 353 193C351.895 193 351 192.105 351 191C351 189.895 351.895 189 353 189C354.105 189 355 189.895 355 191Z" fill="#C5CAD3"/>
<path d="M382 191C382 192.105 381.105 193 380 193C378.895 193 378 192.105 378 191C378 189.895 378.895 189 380 189C381.105 189 382 189.895 382 191Z" fill="#C5CAD3"/>
<path d="M409 191C409 192.105 408.105 193 407 193C405.895 193 405 192.105 405 191C405 189.895 405.895 189 407 189C408.105 189 409 189.895 409 191Z" fill="#C5CAD3"/>
<path d="M436 191C436 192.105 435.105 193 434 193C432.895 193 432 192.105 432 191C432 189.895 432.895 189 434 189C435.105 189 436 189.895 436 191Z" fill="#C5CAD3"/>
<path d="M463 191C463 192.105 462.105 193 461 193C459.895 193 459 192.105 459 191C459 189.895 459.895 189 461 189C462.105 189 463 189.895 463 191Z" fill="#C5CAD3"/>
<path d="M490 191C490 192.105 489.105 193 488 193C486.895 193 486 192.105 486 191C486 189.895 486.895 189 488 189C489.105 189 490 189.895 490 191Z" fill="#C5CAD3"/>
<path d="M517 191C517 192.105 516.105 193 515 193C513.895 193 513 192.105 513 191C513 189.895 513.895 189 515 189C516.105 189 517 189.895 517 191Z" fill="#C5CAD3"/>
<path d="M4 218C4 219.105 3.10457 220 2 220C0.89543 220 0 219.105 0 218C0 216.895 0.89543 216 2 216C3.10457 216 4 216.895 4 218Z" fill="#C5CAD3"/>
<path d="M31 218C31 219.105 30.1046 220 29 220C27.8954 220 27 219.105 27 218C27 216.895 27.8954 216 29 216C30.1046 216 31 216.895 31 218Z" fill="#C5CAD3"/>
<path d="M58 218C58 219.105 57.1046 220 56 220C54.8954 220 54 219.105 54 218C54 216.895 54.8954 216 56 216C57.1046 216 58 216.895 58 218Z" fill="#C5CAD3"/>
<path d="M85 218C85 219.105 84.1046 220 83 220C81.8954 220 81 219.105 81 218C81 216.895 81.8954 216 83 216C84.1046 216 85 216.895 85 218Z" fill="#C5CAD3"/>
<path d="M112 218C112 219.105 111.105 220 110 220C108.895 220 108 219.105 108 218C108 216.895 108.895 216 110 216C111.105 216 112 216.895 112 218Z" fill="#C5CAD3"/>
<path d="M139 218C139 219.105 138.105 220 137 220C135.895 220 135 219.105 135 218C135 216.895 135.895 216 137 216C138.105 216 139 216.895 139 218Z" fill="#C5CAD3"/>
<path d="M166 218C166 219.105 165.105 220 164 220C162.895 220 162 219.105 162 218C162 216.895 162.895 216 164 216C165.105 216 166 216.895 166 218Z" fill="#C5CAD3"/>
<path d="M193 218C193 219.105 192.105 220 191 220C189.895 220 189 219.105 189 218C189 216.895 189.895 216 191 216C192.105 216 193 216.895 193 218Z" fill="#C5CAD3"/>
<path d="M220 218C220 219.105 219.105 220 218 220C216.895 220 216 219.105 216 218C216 216.895 216.895 216 218 216C219.105 216 220 216.895 220 218Z" fill="#C5CAD3"/>
<path d="M247 218C247 219.105 246.105 220 245 220C243.895 220 243 219.105 243 218C243 216.895 243.895 216 245 216C246.105 216 247 216.895 247 218Z" fill="#C5CAD3"/>
<path d="M274 218C274 219.105 273.105 220 272 220C270.895 220 270 219.105 270 218C270 216.895 270.895 216 272 216C273.105 216 274 216.895 274 218Z" fill="#C5CAD3"/>
<path d="M301 218C301 219.105 300.105 220 299 220C297.895 220 297 219.105 297 218C297 216.895 297.895 216 299 216C300.105 216 301 216.895 301 218Z" fill="#C5CAD3"/>
<path d="M328 218C328 219.105 327.105 220 326 220C324.895 220 324 219.105 324 218C324 216.895 324.895 216 326 216C327.105 216 328 216.895 328 218Z" fill="#C5CAD3"/>
<path d="M355 218C355 219.105 354.105 220 353 220C351.895 220 351 219.105 351 218C351 216.895 351.895 216 353 216C354.105 216 355 216.895 355 218Z" fill="#C5CAD3"/>
<path d="M382 218C382 219.105 381.105 220 380 220C378.895 220 378 219.105 378 218C378 216.895 378.895 216 380 216C381.105 216 382 216.895 382 218Z" fill="#C5CAD3"/>
<path d="M409 218C409 219.105 408.105 220 407 220C405.895 220 405 219.105 405 218C405 216.895 405.895 216 407 216C408.105 216 409 216.895 409 218Z" fill="#C5CAD3"/>
<path d="M436 218C436 219.105 435.105 220 434 220C432.895 220 432 219.105 432 218C432 216.895 432.895 216 434 216C435.105 216 436 216.895 436 218Z" fill="#C5CAD3"/>
<path d="M463 218C463 219.105 462.105 220 461 220C459.895 220 459 219.105 459 218C459 216.895 459.895 216 461 216C462.105 216 463 216.895 463 218Z" fill="#C5CAD3"/>
<path d="M490 218C490 219.105 489.105 220 488 220C486.895 220 486 219.105 486 218C486 216.895 486.895 216 488 216C489.105 216 490 216.895 490 218Z" fill="#C5CAD3"/>
<path d="M517 218C517 219.105 516.105 220 515 220C513.895 220 513 219.105 513 218C513 216.895 513.895 216 515 216C516.105 216 517 216.895 517 218Z" fill="#C5CAD3"/>
<path d="M4 245C4 246.105 3.10457 247 2 247C0.89543 247 0 246.105 0 245C0 243.895 0.89543 243 2 243C3.10457 243 4 243.895 4 245Z" fill="#C5CAD3"/>
<path d="M31 245C31 246.105 30.1046 247 29 247C27.8954 247 27 246.105 27 245C27 243.895 27.8954 243 29 243C30.1046 243 31 243.895 31 245Z" fill="#C5CAD3"/>
<path d="M58 245C58 246.105 57.1046 247 56 247C54.8954 247 54 246.105 54 245C54 243.895 54.8954 243 56 243C57.1046 243 58 243.895 58 245Z" fill="#C5CAD3"/>
<path d="M85 245C85 246.105 84.1046 247 83 247C81.8954 247 81 246.105 81 245C81 243.895 81.8954 243 83 243C84.1046 243 85 243.895 85 245Z" fill="#C5CAD3"/>
<path d="M112 245C112 246.105 111.105 247 110 247C108.895 247 108 246.105 108 245C108 243.895 108.895 243 110 243C111.105 243 112 243.895 112 245Z" fill="#C5CAD3"/>
<path d="M139 245C139 246.105 138.105 247 137 247C135.895 247 135 246.105 135 245C135 243.895 135.895 243 137 243C138.105 243 139 243.895 139 245Z" fill="#C5CAD3"/>
<path d="M166 245C166 246.105 165.105 247 164 247C162.895 247 162 246.105 162 245C162 243.895 162.895 243 164 243C165.105 243 166 243.895 166 245Z" fill="#C5CAD3"/>
<path d="M193 245C193 246.105 192.105 247 191 247C189.895 247 189 246.105 189 245C189 243.895 189.895 243 191 243C192.105 243 193 243.895 193 245Z" fill="#C5CAD3"/>
<path d="M220 245C220 246.105 219.105 247 218 247C216.895 247 216 246.105 216 245C216 243.895 216.895 243 218 243C219.105 243 220 243.895 220 245Z" fill="#C5CAD3"/>
<path d="M247 245C247 246.105 246.105 247 245 247C243.895 247 243 246.105 243 245C243 243.895 243.895 243 245 243C246.105 243 247 243.895 247 245Z" fill="#C5CAD3"/>
<path d="M274 245C274 246.105 273.105 247 272 247C270.895 247 270 246.105 270 245C270 243.895 270.895 243 272 243C273.105 243 274 243.895 274 245Z" fill="#C5CAD3"/>
<path d="M301 245C301 246.105 300.105 247 299 247C297.895 247 297 246.105 297 245C297 243.895 297.895 243 299 243C300.105 243 301 243.895 301 245Z" fill="#C5CAD3"/>
<path d="M328 245C328 246.105 327.105 247 326 247C324.895 247 324 246.105 324 245C324 243.895 324.895 243 326 243C327.105 243 328 243.895 328 245Z" fill="#C5CAD3"/>
<path d="M355 245C355 246.105 354.105 247 353 247C351.895 247 351 246.105 351 245C351 243.895 351.895 243 353 243C354.105 243 355 243.895 355 245Z" fill="#C5CAD3"/>
<path d="M382 245C382 246.105 381.105 247 380 247C378.895 247 378 246.105 378 245C378 243.895 378.895 243 380 243C381.105 243 382 243.895 382 245Z" fill="#C5CAD3"/>
<path d="M409 245C409 246.105 408.105 247 407 247C405.895 247 405 246.105 405 245C405 243.895 405.895 243 407 243C408.105 243 409 243.895 409 245Z" fill="#C5CAD3"/>
<path d="M436 245C436 246.105 435.105 247 434 247C432.895 247 432 246.105 432 245C432 243.895 432.895 243 434 243C435.105 243 436 243.895 436 245Z" fill="#C5CAD3"/>
<path d="M463 245C463 246.105 462.105 247 461 247C459.895 247 459 246.105 459 245C459 243.895 459.895 243 461 243C462.105 243 463 243.895 463 245Z" fill="#C5CAD3"/>
<path d="M490 245C490 246.105 489.105 247 488 247C486.895 247 486 246.105 486 245C486 243.895 486.895 243 488 243C489.105 243 490 243.895 490 245Z" fill="#C5CAD3"/>
<path d="M517 245C517 246.105 516.105 247 515 247C513.895 247 513 246.105 513 245C513 243.895 513.895 243 515 243C516.105 243 517 243.895 517 245Z" fill="#C5CAD3"/>
<path d="M4 272C4 273.105 3.10457 274 2 274C0.89543 274 0 273.105 0 272C0 270.895 0.89543 270 2 270C3.10457 270 4 270.895 4 272Z" fill="#C5CAD3"/>
<path d="M31 272C31 273.105 30.1046 274 29 274C27.8954 274 27 273.105 27 272C27 270.895 27.8954 270 29 270C30.1046 270 31 270.895 31 272Z" fill="#C5CAD3"/>
<path d="M58 272C58 273.105 57.1046 274 56 274C54.8954 274 54 273.105 54 272C54 270.895 54.8954 270 56 270C57.1046 270 58 270.895 58 272Z" fill="#C5CAD3"/>
<path d="M85 272C85 273.105 84.1046 274 83 274C81.8954 274 81 273.105 81 272C81 270.895 81.8954 270 83 270C84.1046 270 85 270.895 85 272Z" fill="#C5CAD3"/>
<path d="M112 272C112 273.105 111.105 274 110 274C108.895 274 108 273.105 108 272C108 270.895 108.895 270 110 270C111.105 270 112 270.895 112 272Z" fill="#C5CAD3"/>
<path d="M139 272C139 273.105 138.105 274 137 274C135.895 274 135 273.105 135 272C135 270.895 135.895 270 137 270C138.105 270 139 270.895 139 272Z" fill="#C5CAD3"/>
<path d="M166 272C166 273.105 165.105 274 164 274C162.895 274 162 273.105 162 272C162 270.895 162.895 270 164 270C165.105 270 166 270.895 166 272Z" fill="#C5CAD3"/>
<path d="M193 272C193 273.105 192.105 274 191 274C189.895 274 189 273.105 189 272C189 270.895 189.895 270 191 270C192.105 270 193 270.895 193 272Z" fill="#C5CAD3"/>
<path d="M220 272C220 273.105 219.105 274 218 274C216.895 274 216 273.105 216 272C216 270.895 216.895 270 218 270C219.105 270 220 270.895 220 272Z" fill="#C5CAD3"/>
<path d="M247 272C247 273.105 246.105 274 245 274C243.895 274 243 273.105 243 272C243 270.895 243.895 270 245 270C246.105 270 247 270.895 247 272Z" fill="#C5CAD3"/>
<path d="M274 272C274 273.105 273.105 274 272 274C270.895 274 270 273.105 270 272C270 270.895 270.895 270 272 270C273.105 270 274 270.895 274 272Z" fill="#C5CAD3"/>
<path d="M301 272C301 273.105 300.105 274 299 274C297.895 274 297 273.105 297 272C297 270.895 297.895 270 299 270C300.105 270 301 270.895 301 272Z" fill="#C5CAD3"/>
<path d="M328 272C328 273.105 327.105 274 326 274C324.895 274 324 273.105 324 272C324 270.895 324.895 270 326 270C327.105 270 328 270.895 328 272Z" fill="#C5CAD3"/>
<path d="M355 272C355 273.105 354.105 274 353 274C351.895 274 351 273.105 351 272C351 270.895 351.895 270 353 270C354.105 270 355 270.895 355 272Z" fill="#C5CAD3"/>
<path d="M382 272C382 273.105 381.105 274 380 274C378.895 274 378 273.105 378 272C378 270.895 378.895 270 380 270C381.105 270 382 270.895 382 272Z" fill="#C5CAD3"/>
<path d="M409 272C409 273.105 408.105 274 407 274C405.895 274 405 273.105 405 272C405 270.895 405.895 270 407 270C408.105 270 409 270.895 409 272Z" fill="#C5CAD3"/>
<path d="M436 272C436 273.105 435.105 274 434 274C432.895 274 432 273.105 432 272C432 270.895 432.895 270 434 270C435.105 270 436 270.895 436 272Z" fill="#C5CAD3"/>
<path d="M463 272C463 273.105 462.105 274 461 274C459.895 274 459 273.105 459 272C459 270.895 459.895 270 461 270C462.105 270 463 270.895 463 272Z" fill="#C5CAD3"/>
<path d="M490 272C490 273.105 489.105 274 488 274C486.895 274 486 273.105 486 272C486 270.895 486.895 270 488 270C489.105 270 490 270.895 490 272Z" fill="#C5CAD3"/>
<path d="M517 272C517 273.105 516.105 274 515 274C513.895 274 513 273.105 513 272C513 270.895 513.895 270 515 270C516.105 270 517 270.895 517 272Z" fill="#C5CAD3"/>
<path d="M4 299C4 300.105 3.10457 301 2 301C0.89543 301 0 300.105 0 299C0 297.895 0.89543 297 2 297C3.10457 297 4 297.895 4 299Z" fill="#C5CAD3"/>
<path d="M31 299C31 300.105 30.1046 301 29 301C27.8954 301 27 300.105 27 299C27 297.895 27.8954 297 29 297C30.1046 297 31 297.895 31 299Z" fill="#C5CAD3"/>
<path d="M58 299C58 300.105 57.1046 301 56 301C54.8954 301 54 300.105 54 299C54 297.895 54.8954 297 56 297C57.1046 297 58 297.895 58 299Z" fill="#C5CAD3"/>
<path d="M85 299C85 300.105 84.1046 301 83 301C81.8954 301 81 300.105 81 299C81 297.895 81.8954 297 83 297C84.1046 297 85 297.895 85 299Z" fill="#C5CAD3"/>
<path d="M112 299C112 300.105 111.105 301 110 301C108.895 301 108 300.105 108 299C108 297.895 108.895 297 110 297C111.105 297 112 297.895 112 299Z" fill="#C5CAD3"/>
<path d="M139 299C139 300.105 138.105 301 137 301C135.895 301 135 300.105 135 299C135 297.895 135.895 297 137 297C138.105 297 139 297.895 139 299Z" fill="#C5CAD3"/>
<path d="M166 299C166 300.105 165.105 301 164 301C162.895 301 162 300.105 162 299C162 297.895 162.895 297 164 297C165.105 297 166 297.895 166 299Z" fill="#C5CAD3"/>
<path d="M193 299C193 300.105 192.105 301 191 301C189.895 301 189 300.105 189 299C189 297.895 189.895 297 191 297C192.105 297 193 297.895 193 299Z" fill="#C5CAD3"/>
<path d="M220 299C220 300.105 219.105 301 218 301C216.895 301 216 300.105 216 299C216 297.895 216.895 297 218 297C219.105 297 220 297.895 220 299Z" fill="#C5CAD3"/>
<path d="M247 299C247 300.105 246.105 301 245 301C243.895 301 243 300.105 243 299C243 297.895 243.895 297 245 297C246.105 297 247 297.895 247 299Z" fill="#C5CAD3"/>
<path d="M274 299C274 300.105 273.105 301 272 301C270.895 301 270 300.105 270 299C270 297.895 270.895 297 272 297C273.105 297 274 297.895 274 299Z" fill="#C5CAD3"/>
<path d="M301 299C301 300.105 300.105 301 299 301C297.895 301 297 300.105 297 299C297 297.895 297.895 297 299 297C300.105 297 301 297.895 301 299Z" fill="#C5CAD3"/>
<path d="M328 299C328 300.105 327.105 301 326 301C324.895 301 324 300.105 324 299C324 297.895 324.895 297 326 297C327.105 297 328 297.895 328 299Z" fill="#C5CAD3"/>
<path d="M355 299C355 300.105 354.105 301 353 301C351.895 301 351 300.105 351 299C351 297.895 351.895 297 353 297C354.105 297 355 297.895 355 299Z" fill="#C5CAD3"/>
<path d="M382 299C382 300.105 381.105 301 380 301C378.895 301 378 300.105 378 299C378 297.895 378.895 297 380 297C381.105 297 382 297.895 382 299Z" fill="#C5CAD3"/>
<path d="M409 299C409 300.105 408.105 301 407 301C405.895 301 405 300.105 405 299C405 297.895 405.895 297 407 297C408.105 297 409 297.895 409 299Z" fill="#C5CAD3"/>
<path d="M436 299C436 300.105 435.105 301 434 301C432.895 301 432 300.105 432 299C432 297.895 432.895 297 434 297C435.105 297 436 297.895 436 299Z" fill="#C5CAD3"/>
<path d="M463 299C463 300.105 462.105 301 461 301C459.895 301 459 300.105 459 299C459 297.895 459.895 297 461 297C462.105 297 463 297.895 463 299Z" fill="#C5CAD3"/>
<path d="M490 299C490 300.105 489.105 301 488 301C486.895 301 486 300.105 486 299C486 297.895 486.895 297 488 297C489.105 297 490 297.895 490 299Z" fill="#C5CAD3"/>
<path d="M517 299C517 300.105 516.105 301 515 301C513.895 301 513 300.105 513 299C513 297.895 513.895 297 515 297C516.105 297 517 297.895 517 299Z" fill="#C5CAD3"/>
<path d="M4 326C4 327.105 3.10457 328 2 328C0.89543 328 0 327.105 0 326C0 324.895 0.89543 324 2 324C3.10457 324 4 324.895 4 326Z" fill="#C5CAD3"/>
<path d="M31 326C31 327.105 30.1046 328 29 328C27.8954 328 27 327.105 27 326C27 324.895 27.8954 324 29 324C30.1046 324 31 324.895 31 326Z" fill="#C5CAD3"/>
<path d="M58 326C58 327.105 57.1046 328 56 328C54.8954 328 54 327.105 54 326C54 324.895 54.8954 324 56 324C57.1046 324 58 324.895 58 326Z" fill="#C5CAD3"/>
<path d="M85 326C85 327.105 84.1046 328 83 328C81.8954 328 81 327.105 81 326C81 324.895 81.8954 324 83 324C84.1046 324 85 324.895 85 326Z" fill="#C5CAD3"/>
<path d="M112 326C112 327.105 111.105 328 110 328C108.895 328 108 327.105 108 326C108 324.895 108.895 324 110 324C111.105 324 112 324.895 112 326Z" fill="#C5CAD3"/>
<path d="M139 326C139 327.105 138.105 328 137 328C135.895 328 135 327.105 135 326C135 324.895 135.895 324 137 324C138.105 324 139 324.895 139 326Z" fill="#C5CAD3"/>
<path d="M166 326C166 327.105 165.105 328 164 328C162.895 328 162 327.105 162 326C162 324.895 162.895 324 164 324C165.105 324 166 324.895 166 326Z" fill="#C5CAD3"/>
<path d="M193 326C193 327.105 192.105 328 191 328C189.895 328 189 327.105 189 326C189 324.895 189.895 324 191 324C192.105 324 193 324.895 193 326Z" fill="#C5CAD3"/>
<path d="M220 326C220 327.105 219.105 328 218 328C216.895 328 216 327.105 216 326C216 324.895 216.895 324 218 324C219.105 324 220 324.895 220 326Z" fill="#C5CAD3"/>
<path d="M247 326C247 327.105 246.105 328 245 328C243.895 328 243 327.105 243 326C243 324.895 243.895 324 245 324C246.105 324 247 324.895 247 326Z" fill="#C5CAD3"/>
<path d="M274 326C274 327.105 273.105 328 272 328C270.895 328 270 327.105 270 326C270 324.895 270.895 324 272 324C273.105 324 274 324.895 274 326Z" fill="#C5CAD3"/>
<path d="M301 326C301 327.105 300.105 328 299 328C297.895 328 297 327.105 297 326C297 324.895 297.895 324 299 324C300.105 324 301 324.895 301 326Z" fill="#C5CAD3"/>
<path d="M328 326C328 327.105 327.105 328 326 328C324.895 328 324 327.105 324 326C324 324.895 324.895 324 326 324C327.105 324 328 324.895 328 326Z" fill="#C5CAD3"/>
<path d="M355 326C355 327.105 354.105 328 353 328C351.895 328 351 327.105 351 326C351 324.895 351.895 324 353 324C354.105 324 355 324.895 355 326Z" fill="#C5CAD3"/>
<path d="M382 326C382 327.105 381.105 328 380 328C378.895 328 378 327.105 378 326C378 324.895 378.895 324 380 324C381.105 324 382 324.895 382 326Z" fill="#C5CAD3"/>
<path d="M409 326C409 327.105 408.105 328 407 328C405.895 328 405 327.105 405 326C405 324.895 405.895 324 407 324C408.105 324 409 324.895 409 326Z" fill="#C5CAD3"/>
<path d="M436 326C436 327.105 435.105 328 434 328C432.895 328 432 327.105 432 326C432 324.895 432.895 324 434 324C435.105 324 436 324.895 436 326Z" fill="#C5CAD3"/>
<path d="M463 326C463 327.105 462.105 328 461 328C459.895 328 459 327.105 459 326C459 324.895 459.895 324 461 324C462.105 324 463 324.895 463 326Z" fill="#C5CAD3"/>
<path d="M490 326C490 327.105 489.105 328 488 328C486.895 328 486 327.105 486 326C486 324.895 486.895 324 488 324C489.105 324 490 324.895 490 326Z" fill="#C5CAD3"/>
<path d="M517 326C517 327.105 516.105 328 515 328C513.895 328 513 327.105 513 326C513 324.895 513.895 324 515 324C516.105 324 517 324.895 517 326Z" fill="#C5CAD3"/>
<path d="M4 353C4 354.105 3.10457 355 2 355C0.89543 355 0 354.105 0 353C0 351.895 0.89543 351 2 351C3.10457 351 4 351.895 4 353Z" fill="#C5CAD3"/>
<path d="M31 353C31 354.105 30.1046 355 29 355C27.8954 355 27 354.105 27 353C27 351.895 27.8954 351 29 351C30.1046 351 31 351.895 31 353Z" fill="#C5CAD3"/>
<path d="M58 353C58 354.105 57.1046 355 56 355C54.8954 355 54 354.105 54 353C54 351.895 54.8954 351 56 351C57.1046 351 58 351.895 58 353Z" fill="#C5CAD3"/>
<path d="M85 353C85 354.105 84.1046 355 83 355C81.8954 355 81 354.105 81 353C81 351.895 81.8954 351 83 351C84.1046 351 85 351.895 85 353Z" fill="#C5CAD3"/>
<path d="M112 353C112 354.105 111.105 355 110 355C108.895 355 108 354.105 108 353C108 351.895 108.895 351 110 351C111.105 351 112 351.895 112 353Z" fill="#C5CAD3"/>
<path d="M139 353C139 354.105 138.105 355 137 355C135.895 355 135 354.105 135 353C135 351.895 135.895 351 137 351C138.105 351 139 351.895 139 353Z" fill="#C5CAD3"/>
<path d="M166 353C166 354.105 165.105 355 164 355C162.895 355 162 354.105 162 353C162 351.895 162.895 351 164 351C165.105 351 166 351.895 166 353Z" fill="#C5CAD3"/>
<path d="M193 353C193 354.105 192.105 355 191 355C189.895 355 189 354.105 189 353C189 351.895 189.895 351 191 351C192.105 351 193 351.895 193 353Z" fill="#C5CAD3"/>
<path d="M220 353C220 354.105 219.105 355 218 355C216.895 355 216 354.105 216 353C216 351.895 216.895 351 218 351C219.105 351 220 351.895 220 353Z" fill="#C5CAD3"/>
<path d="M247 353C247 354.105 246.105 355 245 355C243.895 355 243 354.105 243 353C243 351.895 243.895 351 245 351C246.105 351 247 351.895 247 353Z" fill="#C5CAD3"/>
<path d="M274 353C274 354.105 273.105 355 272 355C270.895 355 270 354.105 270 353C270 351.895 270.895 351 272 351C273.105 351 274 351.895 274 353Z" fill="#C5CAD3"/>
<path d="M301 353C301 354.105 300.105 355 299 355C297.895 355 297 354.105 297 353C297 351.895 297.895 351 299 351C300.105 351 301 351.895 301 353Z" fill="#C5CAD3"/>
<path d="M328 353C328 354.105 327.105 355 326 355C324.895 355 324 354.105 324 353C324 351.895 324.895 351 326 351C327.105 351 328 351.895 328 353Z" fill="#C5CAD3"/>
<path d="M355 353C355 354.105 354.105 355 353 355C351.895 355 351 354.105 351 353C351 351.895 351.895 351 353 351C354.105 351 355 351.895 355 353Z" fill="#C5CAD3"/>
<path d="M382 353C382 354.105 381.105 355 380 355C378.895 355 378 354.105 378 353C378 351.895 378.895 351 380 351C381.105 351 382 351.895 382 353Z" fill="#C5CAD3"/>
<path d="M409 353C409 354.105 408.105 355 407 355C405.895 355 405 354.105 405 353C405 351.895 405.895 351 407 351C408.105 351 409 351.895 409 353Z" fill="#C5CAD3"/>
<path d="M436 353C436 354.105 435.105 355 434 355C432.895 355 432 354.105 432 353C432 351.895 432.895 351 434 351C435.105 351 436 351.895 436 353Z" fill="#C5CAD3"/>
<path d="M463 353C463 354.105 462.105 355 461 355C459.895 355 459 354.105 459 353C459 351.895 459.895 351 461 351C462.105 351 463 351.895 463 353Z" fill="#C5CAD3"/>
<path d="M490 353C490 354.105 489.105 355 488 355C486.895 355 486 354.105 486 353C486 351.895 486.895 351 488 351C489.105 351 490 351.895 490 353Z" fill="#C5CAD3"/>
<path d="M517 353C517 354.105 516.105 355 515 355C513.895 355 513 354.105 513 353C513 351.895 513.895 351 515 351C516.105 351 517 351.895 517 353Z" fill="#C5CAD3"/>
<path d="M4 380C4 381.105 3.10457 382 2 382C0.89543 382 0 381.105 0 380C0 378.895 0.89543 378 2 378C3.10457 378 4 378.895 4 380Z" fill="#C5CAD3"/>
<path d="M31 380C31 381.105 30.1046 382 29 382C27.8954 382 27 381.105 27 380C27 378.895 27.8954 378 29 378C30.1046 378 31 378.895 31 380Z" fill="#C5CAD3"/>
<path d="M58 380C58 381.105 57.1046 382 56 382C54.8954 382 54 381.105 54 380C54 378.895 54.8954 378 56 378C57.1046 378 58 378.895 58 380Z" fill="#C5CAD3"/>
<path d="M85 380C85 381.105 84.1046 382 83 382C81.8954 382 81 381.105 81 380C81 378.895 81.8954 378 83 378C84.1046 378 85 378.895 85 380Z" fill="#C5CAD3"/>
<path d="M112 380C112 381.105 111.105 382 110 382C108.895 382 108 381.105 108 380C108 378.895 108.895 378 110 378C111.105 378 112 378.895 112 380Z" fill="#C5CAD3"/>
<path d="M139 380C139 381.105 138.105 382 137 382C135.895 382 135 381.105 135 380C135 378.895 135.895 378 137 378C138.105 378 139 378.895 139 380Z" fill="#C5CAD3"/>
<path d="M166 380C166 381.105 165.105 382 164 382C162.895 382 162 381.105 162 380C162 378.895 162.895 378 164 378C165.105 378 166 378.895 166 380Z" fill="#C5CAD3"/>
<path d="M193 380C193 381.105 192.105 382 191 382C189.895 382 189 381.105 189 380C189 378.895 189.895 378 191 378C192.105 378 193 378.895 193 380Z" fill="#C5CAD3"/>
<path d="M220 380C220 381.105 219.105 382 218 382C216.895 382 216 381.105 216 380C216 378.895 216.895 378 218 378C219.105 378 220 378.895 220 380Z" fill="#C5CAD3"/>
<path d="M247 380C247 381.105 246.105 382 245 382C243.895 382 243 381.105 243 380C243 378.895 243.895 378 245 378C246.105 378 247 378.895 247 380Z" fill="#C5CAD3"/>
<path d="M274 380C274 381.105 273.105 382 272 382C270.895 382 270 381.105 270 380C270 378.895 270.895 378 272 378C273.105 378 274 378.895 274 380Z" fill="#C5CAD3"/>
<path d="M301 380C301 381.105 300.105 382 299 382C297.895 382 297 381.105 297 380C297 378.895 297.895 378 299 378C300.105 378 301 378.895 301 380Z" fill="#C5CAD3"/>
<path d="M328 380C328 381.105 327.105 382 326 382C324.895 382 324 381.105 324 380C324 378.895 324.895 378 326 378C327.105 378 328 378.895 328 380Z" fill="#C5CAD3"/>
<path d="M355 380C355 381.105 354.105 382 353 382C351.895 382 351 381.105 351 380C351 378.895 351.895 378 353 378C354.105 378 355 378.895 355 380Z" fill="#C5CAD3"/>
<path d="M382 380C382 381.105 381.105 382 380 382C378.895 382 378 381.105 378 380C378 378.895 378.895 378 380 378C381.105 378 382 378.895 382 380Z" fill="#C5CAD3"/>
<path d="M409 380C409 381.105 408.105 382 407 382C405.895 382 405 381.105 405 380C405 378.895 405.895 378 407 378C408.105 378 409 378.895 409 380Z" fill="#C5CAD3"/>
<path d="M436 380C436 381.105 435.105 382 434 382C432.895 382 432 381.105 432 380C432 378.895 432.895 378 434 378C435.105 378 436 378.895 436 380Z" fill="#C5CAD3"/>
<path d="M463 380C463 381.105 462.105 382 461 382C459.895 382 459 381.105 459 380C459 378.895 459.895 378 461 378C462.105 378 463 378.895 463 380Z" fill="#C5CAD3"/>
<path d="M490 380C490 381.105 489.105 382 488 382C486.895 382 486 381.105 486 380C486 378.895 486.895 378 488 378C489.105 378 490 378.895 490 380Z" fill="#C5CAD3"/>
<path d="M517 380C517 381.105 516.105 382 515 382C513.895 382 513 381.105 513 380C513 378.895 513.895 378 515 378C516.105 378 517 378.895 517 380Z" fill="#C5CAD3"/>
<path d="M4 407C4 408.105 3.10457 409 2 409C0.89543 409 0 408.105 0 407C0 405.895 0.89543 405 2 405C3.10457 405 4 405.895 4 407Z" fill="#C5CAD3"/>
<path d="M31 407C31 408.105 30.1046 409 29 409C27.8954 409 27 408.105 27 407C27 405.895 27.8954 405 29 405C30.1046 405 31 405.895 31 407Z" fill="#C5CAD3"/>
<path d="M58 407C58 408.105 57.1046 409 56 409C54.8954 409 54 408.105 54 407C54 405.895 54.8954 405 56 405C57.1046 405 58 405.895 58 407Z" fill="#C5CAD3"/>
<path d="M85 407C85 408.105 84.1046 409 83 409C81.8954 409 81 408.105 81 407C81 405.895 81.8954 405 83 405C84.1046 405 85 405.895 85 407Z" fill="#C5CAD3"/>
<path d="M112 407C112 408.105 111.105 409 110 409C108.895 409 108 408.105 108 407C108 405.895 108.895 405 110 405C111.105 405 112 405.895 112 407Z" fill="#C5CAD3"/>
<path d="M139 407C139 408.105 138.105 409 137 409C135.895 409 135 408.105 135 407C135 405.895 135.895 405 137 405C138.105 405 139 405.895 139 407Z" fill="#C5CAD3"/>
<path d="M166 407C166 408.105 165.105 409 164 409C162.895 409 162 408.105 162 407C162 405.895 162.895 405 164 405C165.105 405 166 405.895 166 407Z" fill="#C5CAD3"/>
<path d="M193 407C193 408.105 192.105 409 191 409C189.895 409 189 408.105 189 407C189 405.895 189.895 405 191 405C192.105 405 193 405.895 193 407Z" fill="#C5CAD3"/>
<path d="M220 407C220 408.105 219.105 409 218 409C216.895 409 216 408.105 216 407C216 405.895 216.895 405 218 405C219.105 405 220 405.895 220 407Z" fill="#C5CAD3"/>
<path d="M247 407C247 408.105 246.105 409 245 409C243.895 409 243 408.105 243 407C243 405.895 243.895 405 245 405C246.105 405 247 405.895 247 407Z" fill="#C5CAD3"/>
<path d="M274 407C274 408.105 273.105 409 272 409C270.895 409 270 408.105 270 407C270 405.895 270.895 405 272 405C273.105 405 274 405.895 274 407Z" fill="#C5CAD3"/>
<path d="M301 407C301 408.105 300.105 409 299 409C297.895 409 297 408.105 297 407C297 405.895 297.895 405 299 405C300.105 405 301 405.895 301 407Z" fill="#C5CAD3"/>
<path d="M328 407C328 408.105 327.105 409 326 409C324.895 409 324 408.105 324 407C324 405.895 324.895 405 326 405C327.105 405 328 405.895 328 407Z" fill="#C5CAD3"/>
<path d="M355 407C355 408.105 354.105 409 353 409C351.895 409 351 408.105 351 407C351 405.895 351.895 405 353 405C354.105 405 355 405.895 355 407Z" fill="#C5CAD3"/>
<path d="M382 407C382 408.105 381.105 409 380 409C378.895 409 378 408.105 378 407C378 405.895 378.895 405 380 405C381.105 405 382 405.895 382 407Z" fill="#C5CAD3"/>
<path d="M409 407C409 408.105 408.105 409 407 409C405.895 409 405 408.105 405 407C405 405.895 405.895 405 407 405C408.105 405 409 405.895 409 407Z" fill="#C5CAD3"/>
<path d="M436 407C436 408.105 435.105 409 434 409C432.895 409 432 408.105 432 407C432 405.895 432.895 405 434 405C435.105 405 436 405.895 436 407Z" fill="#C5CAD3"/>
<path d="M463 407C463 408.105 462.105 409 461 409C459.895 409 459 408.105 459 407C459 405.895 459.895 405 461 405C462.105 405 463 405.895 463 407Z" fill="#C5CAD3"/>
<path d="M490 407C490 408.105 489.105 409 488 409C486.895 409 486 408.105 486 407C486 405.895 486.895 405 488 405C489.105 405 490 405.895 490 407Z" fill="#C5CAD3"/>
<path d="M517 407C517 408.105 516.105 409 515 409C513.895 409 513 408.105 513 407C513 405.895 513.895 405 515 405C516.105 405 517 405.895 517 407Z" fill="#C5CAD3"/>
<path d="M4 434C4 435.105 3.10457 436 2 436C0.89543 436 0 435.105 0 434C0 432.895 0.89543 432 2 432C3.10457 432 4 432.895 4 434Z" fill="#C5CAD3"/>
<path d="M31 434C31 435.105 30.1046 436 29 436C27.8954 436 27 435.105 27 434C27 432.895 27.8954 432 29 432C30.1046 432 31 432.895 31 434Z" fill="#C5CAD3"/>
<path d="M58 434C58 435.105 57.1046 436 56 436C54.8954 436 54 435.105 54 434C54 432.895 54.8954 432 56 432C57.1046 432 58 432.895 58 434Z" fill="#C5CAD3"/>
<path d="M85 434C85 435.105 84.1046 436 83 436C81.8954 436 81 435.105 81 434C81 432.895 81.8954 432 83 432C84.1046 432 85 432.895 85 434Z" fill="#C5CAD3"/>
<path d="M112 434C112 435.105 111.105 436 110 436C108.895 436 108 435.105 108 434C108 432.895 108.895 432 110 432C111.105 432 112 432.895 112 434Z" fill="#C5CAD3"/>
<path d="M139 434C139 435.105 138.105 436 137 436C135.895 436 135 435.105 135 434C135 432.895 135.895 432 137 432C138.105 432 139 432.895 139 434Z" fill="#C5CAD3"/>
<path d="M166 434C166 435.105 165.105 436 164 436C162.895 436 162 435.105 162 434C162 432.895 162.895 432 164 432C165.105 432 166 432.895 166 434Z" fill="#C5CAD3"/>
<path d="M193 434C193 435.105 192.105 436 191 436C189.895 436 189 435.105 189 434C189 432.895 189.895 432 191 432C192.105 432 193 432.895 193 434Z" fill="#C5CAD3"/>
<path d="M220 434C220 435.105 219.105 436 218 436C216.895 436 216 435.105 216 434C216 432.895 216.895 432 218 432C219.105 432 220 432.895 220 434Z" fill="#C5CAD3"/>
<path d="M247 434C247 435.105 246.105 436 245 436C243.895 436 243 435.105 243 434C243 432.895 243.895 432 245 432C246.105 432 247 432.895 247 434Z" fill="#C5CAD3"/>
<path d="M274 434C274 435.105 273.105 436 272 436C270.895 436 270 435.105 270 434C270 432.895 270.895 432 272 432C273.105 432 274 432.895 274 434Z" fill="#C5CAD3"/>
<path d="M301 434C301 435.105 300.105 436 299 436C297.895 436 297 435.105 297 434C297 432.895 297.895 432 299 432C300.105 432 301 432.895 301 434Z" fill="#C5CAD3"/>
<path d="M328 434C328 435.105 327.105 436 326 436C324.895 436 324 435.105 324 434C324 432.895 324.895 432 326 432C327.105 432 328 432.895 328 434Z" fill="#C5CAD3"/>
<path d="M355 434C355 435.105 354.105 436 353 436C351.895 436 351 435.105 351 434C351 432.895 351.895 432 353 432C354.105 432 355 432.895 355 434Z" fill="#C5CAD3"/>
<path d="M382 434C382 435.105 381.105 436 380 436C378.895 436 378 435.105 378 434C378 432.895 378.895 432 380 432C381.105 432 382 432.895 382 434Z" fill="#C5CAD3"/>
<path d="M409 434C409 435.105 408.105 436 407 436C405.895 436 405 435.105 405 434C405 432.895 405.895 432 407 432C408.105 432 409 432.895 409 434Z" fill="#C5CAD3"/>
<path d="M436 434C436 435.105 435.105 436 434 436C432.895 436 432 435.105 432 434C432 432.895 432.895 432 434 432C435.105 432 436 432.895 436 434Z" fill="#C5CAD3"/>
<path d="M463 434C463 435.105 462.105 436 461 436C459.895 436 459 435.105 459 434C459 432.895 459.895 432 461 432C462.105 432 463 432.895 463 434Z" fill="#C5CAD3"/>
<path d="M490 434C490 435.105 489.105 436 488 436C486.895 436 486 435.105 486 434C486 432.895 486.895 432 488 432C489.105 432 490 432.895 490 434Z" fill="#C5CAD3"/>
<path d="M517 434C517 435.105 516.105 436 515 436C513.895 436 513 435.105 513 434C513 432.895 513.895 432 515 432C516.105 432 517 432.895 517 434Z" fill="#C5CAD3"/>
<path d="M4 461C4 462.105 3.10457 463 2 463C0.89543 463 0 462.105 0 461C0 459.895 0.89543 459 2 459C3.10457 459 4 459.895 4 461Z" fill="#C5CAD3"/>
<path d="M31 461C31 462.105 30.1046 463 29 463C27.8954 463 27 462.105 27 461C27 459.895 27.8954 459 29 459C30.1046 459 31 459.895 31 461Z" fill="#C5CAD3"/>
<path d="M58 461C58 462.105 57.1046 463 56 463C54.8954 463 54 462.105 54 461C54 459.895 54.8954 459 56 459C57.1046 459 58 459.895 58 461Z" fill="#C5CAD3"/>
<path d="M85 461C85 462.105 84.1046 463 83 463C81.8954 463 81 462.105 81 461C81 459.895 81.8954 459 83 459C84.1046 459 85 459.895 85 461Z" fill="#C5CAD3"/>
<path d="M112 461C112 462.105 111.105 463 110 463C108.895 463 108 462.105 108 461C108 459.895 108.895 459 110 459C111.105 459 112 459.895 112 461Z" fill="#C5CAD3"/>
<path d="M139 461C139 462.105 138.105 463 137 463C135.895 463 135 462.105 135 461C135 459.895 135.895 459 137 459C138.105 459 139 459.895 139 461Z" fill="#C5CAD3"/>
<path d="M166 461C166 462.105 165.105 463 164 463C162.895 463 162 462.105 162 461C162 459.895 162.895 459 164 459C165.105 459 166 459.895 166 461Z" fill="#C5CAD3"/>
<path d="M193 461C193 462.105 192.105 463 191 463C189.895 463 189 462.105 189 461C189 459.895 189.895 459 191 459C192.105 459 193 459.895 193 461Z" fill="#C5CAD3"/>
<path d="M220 461C220 462.105 219.105 463 218 463C216.895 463 216 462.105 216 461C216 459.895 216.895 459 218 459C219.105 459 220 459.895 220 461Z" fill="#C5CAD3"/>
<path d="M247 461C247 462.105 246.105 463 245 463C243.895 463 243 462.105 243 461C243 459.895 243.895 459 245 459C246.105 459 247 459.895 247 461Z" fill="#C5CAD3"/>
<path d="M274 461C274 462.105 273.105 463 272 463C270.895 463 270 462.105 270 461C270 459.895 270.895 459 272 459C273.105 459 274 459.895 274 461Z" fill="#C5CAD3"/>
<path d="M301 461C301 462.105 300.105 463 299 463C297.895 463 297 462.105 297 461C297 459.895 297.895 459 299 459C300.105 459 301 459.895 301 461Z" fill="#C5CAD3"/>
<path d="M328 461C328 462.105 327.105 463 326 463C324.895 463 324 462.105 324 461C324 459.895 324.895 459 326 459C327.105 459 328 459.895 328 461Z" fill="#C5CAD3"/>
<path d="M355 461C355 462.105 354.105 463 353 463C351.895 463 351 462.105 351 461C351 459.895 351.895 459 353 459C354.105 459 355 459.895 355 461Z" fill="#C5CAD3"/>
<path d="M382 461C382 462.105 381.105 463 380 463C378.895 463 378 462.105 378 461C378 459.895 378.895 459 380 459C381.105 459 382 459.895 382 461Z" fill="#C5CAD3"/>
<path d="M409 461C409 462.105 408.105 463 407 463C405.895 463 405 462.105 405 461C405 459.895 405.895 459 407 459C408.105 459 409 459.895 409 461Z" fill="#C5CAD3"/>
<path d="M436 461C436 462.105 435.105 463 434 463C432.895 463 432 462.105 432 461C432 459.895 432.895 459 434 459C435.105 459 436 459.895 436 461Z" fill="#C5CAD3"/>
<path d="M463 461C463 462.105 462.105 463 461 463C459.895 463 459 462.105 459 461C459 459.895 459.895 459 461 459C462.105 459 463 459.895 463 461Z" fill="#C5CAD3"/>
<path d="M490 461C490 462.105 489.105 463 488 463C486.895 463 486 462.105 486 461C486 459.895 486.895 459 488 459C489.105 459 490 459.895 490 461Z" fill="#C5CAD3"/>
<path d="M517 461C517 462.105 516.105 463 515 463C513.895 463 513 462.105 513 461C513 459.895 513.895 459 515 459C516.105 459 517 459.895 517 461Z" fill="#C5CAD3"/>
<path d="M4 488C4 489.105 3.10457 490 2 490C0.89543 490 0 489.105 0 488C0 486.895 0.89543 486 2 486C3.10457 486 4 486.895 4 488Z" fill="#C5CAD3"/>
<path d="M31 488C31 489.105 30.1046 490 29 490C27.8954 490 27 489.105 27 488C27 486.895 27.8954 486 29 486C30.1046 486 31 486.895 31 488Z" fill="#C5CAD3"/>
<path d="M58 488C58 489.105 57.1046 490 56 490C54.8954 490 54 489.105 54 488C54 486.895 54.8954 486 56 486C57.1046 486 58 486.895 58 488Z" fill="#C5CAD3"/>
<path d="M85 488C85 489.105 84.1046 490 83 490C81.8954 490 81 489.105 81 488C81 486.895 81.8954 486 83 486C84.1046 486 85 486.895 85 488Z" fill="#C5CAD3"/>
<path d="M112 488C112 489.105 111.105 490 110 490C108.895 490 108 489.105 108 488C108 486.895 108.895 486 110 486C111.105 486 112 486.895 112 488Z" fill="#C5CAD3"/>
<path d="M139 488C139 489.105 138.105 490 137 490C135.895 490 135 489.105 135 488C135 486.895 135.895 486 137 486C138.105 486 139 486.895 139 488Z" fill="#C5CAD3"/>
<path d="M166 488C166 489.105 165.105 490 164 490C162.895 490 162 489.105 162 488C162 486.895 162.895 486 164 486C165.105 486 166 486.895 166 488Z" fill="#C5CAD3"/>
<path d="M193 488C193 489.105 192.105 490 191 490C189.895 490 189 489.105 189 488C189 486.895 189.895 486 191 486C192.105 486 193 486.895 193 488Z" fill="#C5CAD3"/>
<path d="M220 488C220 489.105 219.105 490 218 490C216.895 490 216 489.105 216 488C216 486.895 216.895 486 218 486C219.105 486 220 486.895 220 488Z" fill="#C5CAD3"/>
<path d="M247 488C247 489.105 246.105 490 245 490C243.895 490 243 489.105 243 488C243 486.895 243.895 486 245 486C246.105 486 247 486.895 247 488Z" fill="#C5CAD3"/>
<path d="M274 488C274 489.105 273.105 490 272 490C270.895 490 270 489.105 270 488C270 486.895 270.895 486 272 486C273.105 486 274 486.895 274 488Z" fill="#C5CAD3"/>
<path d="M301 488C301 489.105 300.105 490 299 490C297.895 490 297 489.105 297 488C297 486.895 297.895 486 299 486C300.105 486 301 486.895 301 488Z" fill="#C5CAD3"/>
<path d="M328 488C328 489.105 327.105 490 326 490C324.895 490 324 489.105 324 488C324 486.895 324.895 486 326 486C327.105 486 328 486.895 328 488Z" fill="#C5CAD3"/>
<path d="M355 488C355 489.105 354.105 490 353 490C351.895 490 351 489.105 351 488C351 486.895 351.895 486 353 486C354.105 486 355 486.895 355 488Z" fill="#C5CAD3"/>
<path d="M382 488C382 489.105 381.105 490 380 490C378.895 490 378 489.105 378 488C378 486.895 378.895 486 380 486C381.105 486 382 486.895 382 488Z" fill="#C5CAD3"/>
<path d="M409 488C409 489.105 408.105 490 407 490C405.895 490 405 489.105 405 488C405 486.895 405.895 486 407 486C408.105 486 409 486.895 409 488Z" fill="#C5CAD3"/>
<path d="M436 488C436 489.105 435.105 490 434 490C432.895 490 432 489.105 432 488C432 486.895 432.895 486 434 486C435.105 486 436 486.895 436 488Z" fill="#C5CAD3"/>
<path d="M463 488C463 489.105 462.105 490 461 490C459.895 490 459 489.105 459 488C459 486.895 459.895 486 461 486C462.105 486 463 486.895 463 488Z" fill="#C5CAD3"/>
<path d="M490 488C490 489.105 489.105 490 488 490C486.895 490 486 489.105 486 488C486 486.895 486.895 486 488 486C489.105 486 490 486.895 490 488Z" fill="#C5CAD3"/>
<path d="M517 488C517 489.105 516.105 490 515 490C513.895 490 513 489.105 513 488C513 486.895 513.895 486 515 486C516.105 486 517 486.895 517 488Z" fill="#C5CAD3"/>
<path d="M4 515C4 516.105 3.10457 517 2 517C0.89543 517 0 516.105 0 515C0 513.895 0.89543 513 2 513C3.10457 513 4 513.895 4 515Z" fill="#C5CAD3"/>
<path d="M31 515C31 516.105 30.1046 517 29 517C27.8954 517 27 516.105 27 515C27 513.895 27.8954 513 29 513C30.1046 513 31 513.895 31 515Z" fill="#C5CAD3"/>
<path d="M58 515C58 516.105 57.1046 517 56 517C54.8954 517 54 516.105 54 515C54 513.895 54.8954 513 56 513C57.1046 513 58 513.895 58 515Z" fill="#C5CAD3"/>
<path d="M85 515C85 516.105 84.1046 517 83 517C81.8954 517 81 516.105 81 515C81 513.895 81.8954 513 83 513C84.1046 513 85 513.895 85 515Z" fill="#C5CAD3"/>
<path d="M112 515C112 516.105 111.105 517 110 517C108.895 517 108 516.105 108 515C108 513.895 108.895 513 110 513C111.105 513 112 513.895 112 515Z" fill="#C5CAD3"/>
<path d="M139 515C139 516.105 138.105 517 137 517C135.895 517 135 516.105 135 515C135 513.895 135.895 513 137 513C138.105 513 139 513.895 139 515Z" fill="#C5CAD3"/>
<path d="M166 515C166 516.105 165.105 517 164 517C162.895 517 162 516.105 162 515C162 513.895 162.895 513 164 513C165.105 513 166 513.895 166 515Z" fill="#C5CAD3"/>
<path d="M193 515C193 516.105 192.105 517 191 517C189.895 517 189 516.105 189 515C189 513.895 189.895 513 191 513C192.105 513 193 513.895 193 515Z" fill="#C5CAD3"/>
<path d="M220 515C220 516.105 219.105 517 218 517C216.895 517 216 516.105 216 515C216 513.895 216.895 513 218 513C219.105 513 220 513.895 220 515Z" fill="#C5CAD3"/>
<path d="M247 515C247 516.105 246.105 517 245 517C243.895 517 243 516.105 243 515C243 513.895 243.895 513 245 513C246.105 513 247 513.895 247 515Z" fill="#C5CAD3"/>
<path d="M274 515C274 516.105 273.105 517 272 517C270.895 517 270 516.105 270 515C270 513.895 270.895 513 272 513C273.105 513 274 513.895 274 515Z" fill="#C5CAD3"/>
<path d="M301 515C301 516.105 300.105 517 299 517C297.895 517 297 516.105 297 515C297 513.895 297.895 513 299 513C300.105 513 301 513.895 301 515Z" fill="#C5CAD3"/>
<path d="M328 515C328 516.105 327.105 517 326 517C324.895 517 324 516.105 324 515C324 513.895 324.895 513 326 513C327.105 513 328 513.895 328 515Z" fill="#C5CAD3"/>
<path d="M355 515C355 516.105 354.105 517 353 517C351.895 517 351 516.105 351 515C351 513.895 351.895 513 353 513C354.105 513 355 513.895 355 515Z" fill="#C5CAD3"/>
<path d="M382 515C382 516.105 381.105 517 380 517C378.895 517 378 516.105 378 515C378 513.895 378.895 513 380 513C381.105 513 382 513.895 382 515Z" fill="#C5CAD3"/>
<path d="M409 515C409 516.105 408.105 517 407 517C405.895 517 405 516.105 405 515C405 513.895 405.895 513 407 513C408.105 513 409 513.895 409 515Z" fill="#C5CAD3"/>
<path d="M436 515C436 516.105 435.105 517 434 517C432.895 517 432 516.105 432 515C432 513.895 432.895 513 434 513C435.105 513 436 513.895 436 515Z" fill="#C5CAD3"/>
<path d="M463 515C463 516.105 462.105 517 461 517C459.895 517 459 516.105 459 515C459 513.895 459.895 513 461 513C462.105 513 463 513.895 463 515Z" fill="#C5CAD3"/>
<path d="M490 515C490 516.105 489.105 517 488 517C486.895 517 486 516.105 486 515C486 513.895 486.895 513 488 513C489.105 513 490 513.895 490 515Z" fill="#C5CAD3"/>
<path d="M517 515C517 516.105 516.105 517 515 517C513.895 517 513 516.105 513 515C513 513.895 513.895 513 515 513C516.105 513 517 513.895 517 515Z" fill="#C5CAD3"/>
</svg>
