<svg width="951" height="149" viewBox="0 0 951 149" fill="none" xmlns="http://www.w3.org/2000/svg">
<path opacity="0.05" d="M-19.358 146V0.54545H38.0284C49.0133 0.54545 58.3883 2.51041 66.1534 6.44034C73.9659 10.3229 79.9081 15.839 83.9801 22.9886C88.0994 30.0909 90.1591 38.4479 90.1591 48.0597C90.1591 57.7187 88.0758 66.0284 83.9091 72.9886C79.7424 79.9015 73.7055 85.2045 65.7983 88.8977C57.9384 92.5909 48.4214 94.4375 37.2472 94.4375H-1.17613V69.7216H32.2756C38.1468 69.7216 43.0237 68.9167 46.9062 67.3068C50.7888 65.697 53.6771 63.2822 55.571 60.0625C57.5123 56.8428 58.483 52.8419 58.483 48.0597C58.483 43.2301 57.5123 39.1581 55.571 35.8438C53.6771 32.5294 50.7652 30.0199 46.8352 28.3153C42.9527 26.5634 38.0521 25.6875 32.1335 25.6875H11.3949V146H-19.358ZM59.1932 79.8068L95.3438 146H61.3949L26.0256 79.8068H59.1932ZM151.282 148.131C140.06 148.131 130.401 145.858 122.305 141.312C114.255 136.72 108.053 130.233 103.697 121.852C99.3407 113.424 97.1626 103.457 97.1626 91.9517C97.1626 80.7301 99.3407 70.8816 103.697 62.4062C108.053 53.9309 114.184 47.3258 122.092 42.5909C130.046 37.8561 139.374 35.4886 150.075 35.4886C157.272 35.4886 163.971 36.6487 170.174 38.9688C176.424 41.2415 181.869 44.6742 186.509 49.267C191.197 53.8598 194.843 59.6364 197.447 66.5966C200.051 73.5095 201.353 81.6061 201.353 90.8864V99.196H109.237V80.446H172.873C172.873 76.09 171.926 72.2311 170.032 68.8693C168.138 65.5076 165.51 62.8797 162.148 60.9858C158.834 59.0445 154.975 58.0739 150.572 58.0739C145.979 58.0739 141.907 59.1392 138.356 61.2699C134.852 63.3532 132.106 66.1705 130.117 69.7216C128.129 73.2254 127.111 77.1316 127.063 81.4403V99.267C127.063 104.665 128.058 109.329 130.046 113.259C132.082 117.188 134.947 120.219 138.64 122.349C142.333 124.48 146.713 125.545 151.779 125.545C155.141 125.545 158.219 125.072 161.012 124.125C163.806 123.178 166.197 121.758 168.185 119.864C170.174 117.97 171.689 115.65 172.731 112.903L200.714 114.75C199.293 121.473 196.381 127.345 191.978 132.364C187.622 137.335 181.987 141.218 175.075 144.011C168.209 146.758 160.278 148.131 151.282 148.131ZM213.097 146V36.9091H241.933V56.1562H243.211C245.484 49.7642 249.272 44.7216 254.575 41.0284C259.878 37.3352 266.222 35.4886 273.609 35.4886C281.09 35.4886 287.458 37.3589 292.714 41.0994C297.969 44.7926 301.473 49.8116 303.225 56.1562H304.362C306.587 49.9062 310.612 44.911 316.435 41.1705C322.307 37.3826 329.243 35.4886 337.245 35.4886C347.425 35.4886 355.687 38.732 362.032 45.2188C368.424 51.6581 371.62 60.7964 371.62 72.6335V146H341.435V78.5994C341.435 72.5388 339.826 67.9934 336.606 64.9631C333.386 61.9328 329.362 60.4176 324.532 60.4176C319.04 60.4176 314.754 62.1695 311.677 65.6733C308.599 69.1297 307.06 73.6989 307.06 79.3807V146H277.728V77.9602C277.728 72.6098 276.189 68.3485 273.112 65.1761C270.081 62.0038 266.08 60.4176 261.109 60.4176C257.747 60.4176 254.717 61.2699 252.018 62.9744C249.366 64.6316 247.259 66.9754 245.697 70.0057C244.134 72.9886 243.353 76.4924 243.353 80.517V146H213.097ZM436.809 148.131C425.777 148.131 416.236 145.787 408.187 141.099C400.185 136.365 394.006 129.783 389.65 121.355C385.294 112.88 383.116 103.055 383.116 91.8807C383.116 80.6117 385.294 70.7633 389.65 62.3352C394.006 53.8598 400.185 47.2784 408.187 42.5909C416.236 37.8561 425.777 35.4886 436.809 35.4886C447.841 35.4886 457.358 37.8561 465.36 42.5909C473.409 47.2784 479.612 53.8598 483.968 62.3352C488.324 70.7633 490.502 80.6117 490.502 91.8807C490.502 103.055 488.324 112.88 483.968 121.355C479.612 129.783 473.409 136.365 465.36 141.099C457.358 145.787 447.841 148.131 436.809 148.131ZM436.951 124.693C441.97 124.693 446.16 123.273 449.522 120.432C452.884 117.544 455.417 113.614 457.121 108.642C458.873 103.67 459.749 98.0123 459.749 91.6676C459.749 85.3229 458.873 79.6648 457.121 74.6932C455.417 69.7216 452.884 65.7917 449.522 62.9034C446.16 60.0151 441.97 58.571 436.951 58.571C431.885 58.571 427.623 60.0151 424.167 62.9034C420.758 65.7917 418.177 69.7216 416.425 74.6932C414.721 79.6648 413.869 85.3229 413.869 91.6676C413.869 98.0123 414.721 103.67 416.425 108.642C418.177 113.614 420.758 117.544 424.167 120.432C427.623 123.273 431.885 124.693 436.951 124.693ZM554.306 146H502.744V0.54545H554.732C569.363 0.54545 581.958 3.45738 592.516 9.28125C603.075 15.0578 611.195 23.3674 616.877 34.2102C622.606 45.053 625.471 58.0265 625.471 73.1307C625.471 88.2822 622.606 101.303 616.877 112.193C611.195 123.083 603.028 131.44 592.374 137.264C581.768 143.088 569.079 146 554.306 146ZM533.496 119.651H553.028C562.119 119.651 569.765 118.041 575.968 114.821C582.218 111.554 586.906 106.511 590.031 99.6932C593.203 92.8277 594.789 83.9735 594.789 73.1307C594.789 62.3826 593.203 53.5994 590.031 46.7812C586.906 39.9631 582.242 34.9441 576.039 31.7244C569.836 28.5047 562.19 26.8949 553.099 26.8949H533.496V119.651ZM689.399 148.131C678.178 148.131 668.518 145.858 660.422 141.312C652.373 136.72 646.17 130.233 641.814 121.852C637.458 113.424 635.28 103.457 635.28 91.9517C635.28 80.7301 637.458 70.8816 641.814 62.4062C646.17 53.9309 652.302 47.3258 660.209 42.5909C668.163 37.8561 677.491 35.4886 688.192 35.4886C695.389 35.4886 702.089 36.6487 708.291 38.9688C714.541 41.2415 719.986 44.6742 724.626 49.267C729.314 53.8598 732.96 59.6364 735.564 66.5966C738.168 73.5095 739.47 81.6061 739.47 90.8864V99.196H647.354V80.446H710.99C710.99 76.09 710.043 72.2311 708.149 68.8693C706.255 65.5076 703.627 62.8797 700.266 60.9858C696.951 59.0445 693.092 58.0739 688.689 58.0739C684.096 58.0739 680.024 59.1392 676.473 61.2699C672.969 63.3532 670.223 66.1705 668.234 69.7216C666.246 73.2254 665.228 77.1316 665.18 81.4403V99.267C665.18 104.665 666.175 109.329 668.163 113.259C670.199 117.188 673.064 120.219 676.757 122.349C680.45 124.48 684.83 125.545 689.896 125.545C693.258 125.545 696.336 125.072 699.129 124.125C701.923 123.178 704.314 121.758 706.303 119.864C708.291 117.97 709.806 115.65 710.848 112.903L738.831 114.75C737.411 121.473 734.499 127.345 730.095 132.364C725.739 137.335 720.105 141.218 713.192 144.011C706.326 146.758 698.395 148.131 689.399 148.131ZM849.989 36.9091L811.85 146H777.759L739.62 36.9091H771.58L794.237 114.963H795.373L817.958 36.9091H849.989ZM948.239 68.017L920.54 69.7216C920.067 67.3542 919.049 65.2235 917.487 63.3295C915.924 61.3883 913.864 59.8494 911.308 58.7131C908.798 57.5294 905.791 56.9375 902.288 56.9375C897.6 56.9375 893.647 57.9318 890.427 59.9205C887.207 61.8617 885.597 64.4659 885.597 67.733C885.597 70.3371 886.639 72.5388 888.722 74.3381C890.806 76.1373 894.38 77.5814 899.447 78.6705L919.191 82.6477C929.797 84.8258 937.704 88.3295 942.913 93.1591C948.121 97.9886 950.725 104.333 950.725 112.193C950.725 119.343 948.618 125.616 944.404 131.014C940.237 136.412 934.508 140.626 927.217 143.656C919.972 146.639 911.615 148.131 902.146 148.131C887.704 148.131 876.199 145.124 867.629 139.111C859.106 133.05 854.111 124.812 852.643 114.395L882.401 112.832C883.301 117.236 885.479 120.598 888.935 122.918C892.392 125.19 896.819 126.327 902.217 126.327C907.52 126.327 911.781 125.309 915.001 123.273C918.268 121.189 919.925 118.514 919.972 115.247C919.925 112.501 918.765 110.252 916.492 108.5C914.219 106.701 910.716 105.328 905.981 104.381L887.089 100.616C876.435 98.4858 868.504 94.7926 863.296 89.5369C858.135 84.2812 855.555 77.5814 855.555 69.4375C855.555 62.4299 857.449 56.393 861.237 51.3267C865.072 46.2604 870.446 42.3542 877.359 39.608C884.319 36.8617 892.463 35.4886 901.79 35.4886C915.569 35.4886 926.412 38.4006 934.319 44.2244C942.273 50.0483 946.914 57.9792 948.239 68.017Z" fill="#0037FB"/>
</svg>
